<svg xmlns="http://www.w3.org/2000/svg" width="70" height="70" viewBox="0 0 70 70">
  <g id="Group_1817" data-name="Group 1817" transform="translate(-912 -5536)">
    <g id="Group_1814" data-name="Group 1814" transform="translate(912 5535.843)" opacity="0.4">
      <rect id="Rectangle_370" data-name="Rectangle 370" width="70" height="70" rx="7" transform="translate(0 0.157)"/>
      <g id="physical_redeem" data-name="physical redeem" transform="translate(18.543 14.423)">
        <path id="Path_211" data-name="Path 211" d="M120.119,77c2.377,1.414,4.765,2.828,7.142,4.243q4.706,2.8,9.436,5.574a1.175,1.175,0,0,1,.642,1.129q-.018,9.572,0,19.133a1.135,1.135,0,0,1-.618,1.093q-8.093,4.759-16.186,9.567a1.162,1.162,0,0,1-1.331,0q-8.075-4.8-16.186-9.567a1.1,1.1,0,0,1-.618-1.058q.018-9.626,0-19.252a1.033,1.033,0,0,1,.547-.986q8.325-4.9,16.637-9.816a.119.119,0,0,0,.048-.059Zm4.813,18.408c-.166.1-.285.143-.392.214-1.188.7-2.365,1.4-3.553,2.092a.631.631,0,0,0-.368.63c.012,3.839.012,7.689.012,11.527v.357c-.012.594-.3.927-.761.927s-.725-.333-.749-.9v-.357c0-3.838,0-7.689.012-11.527a.656.656,0,0,0-.38-.654q-6.542-3.85-13.084-7.725c-.642-.38-.82-.761-.57-1.2s.7-.475,1.319-.107q6.56,3.868,13.12,7.76a.571.571,0,0,0,.677,0c1.2-.725,2.412-1.426,3.613-2.139.107-.059.2-.143.345-.226-.119-.071-.19-.131-.273-.178q-7.309-4.332-14.629-8.651a.446.446,0,0,0-.535,0c-1.474.879-2.959,1.759-4.445,2.626a.615.615,0,0,0-.357.63q.018,9.02,0,18.052a.642.642,0,0,0,.357.63q7.2,4.243,14.391,8.5c.119.071.238.143.416.238.012-.2.024-.321.024-.452,0-.63-.012-1.26,0-1.878.012-.547.3-.844.749-.844s.737.309.749.844c.012.654,0,1.307.012,1.961,0,.107.024.214.036.368a1.7,1.7,0,0,0,.226-.119q7.326-4.332,14.677-8.663a.48.48,0,0,0,.25-.487V89.359c0-.1-.024-.19-.036-.333-1.224.725-2.4,1.426-3.589,2.115a.536.536,0,0,0-.309.535c.012,1.961,0,3.922.012,5.883a.916.916,0,0,1-.487.891c-1.747,1.022-3.494,2.068-5.241,3.09a.769.769,0,0,1-1.236-.665,2.889,2.889,0,0,1,0-.321v-4.6C124.932,95.753,124.932,95.61,124.932,95.408Zm10.113-7.784a2.963,2.963,0,0,0-.285-.19q-7.291-4.314-14.593-8.628a.5.5,0,0,0-.582,0c-1.129.677-2.27,1.343-3.411,2.02-.071.048-.143.1-.238.155.309.178.57.333.832.5l4.884,2.888a.772.772,0,0,1,.38,1.105c-.226.392-.665.463-1.153.2-.083-.048-.166-.1-.238-.143-1.961-1.165-3.922-2.317-5.883-3.482a.553.553,0,0,0-.677.012c-1.022.63-2.056,1.224-3.09,1.842-.155.1-.3.178-.487.3.107.071.154.107.214.143q7.362,4.349,14.736,8.711a.41.41,0,0,0,.5-.012l3.066-1.818c.19-.107.38-.226.606-.368-.178-.107-.3-.19-.428-.261-1.878-1.117-3.767-2.222-5.645-3.339-.606-.357-.784-.749-.535-1.188s.713-.475,1.331-.119c2.175,1.283,4.338,2.555,6.5,3.85a.464.464,0,0,0,.57,0c1.105-.666,2.222-1.319,3.339-1.985A1.693,1.693,0,0,0,135.045,87.624Zm-4.67,4.552c-1.307.772-2.531,1.485-3.755,2.234a.545.545,0,0,0-.166.392c-.012,1.462-.012,2.935,0,4.4,0,.1.024.19.036.333.951-.559,1.83-1.165,2.769-1.616a1.716,1.716,0,0,0,1.129-1.961C130.291,94.731,130.375,93.495,130.375,92.176Z" transform="translate(-102.4 -77)"/>
        <path id="Path_212" data-name="Path 212" d="M128.161,290.158c0-.475-.012-.963,0-1.438a.756.756,0,1,1,1.509-.059q.036,1.515,0,3.03a.743.743,0,0,1-.784.737.755.755,0,0,1-.713-.808C128.149,291.144,128.161,290.645,128.161,290.158Z" transform="translate(-125.095 -262.837)"/>
        <path id="Path_213" data-name="Path 213" d="M153.661,302.937c0-.475-.012-.963,0-1.438a.75.75,0,1,1,1.5-.048q.036,1.5,0,2.995a.758.758,0,0,1-.784.772.767.767,0,0,1-.713-.844Z" transform="translate(-147.564 -274.106)"/>
      </g>
    </g>
    <g id="flip_02" data-name="flip 02" transform="translate(845.179 5473.328)">
      <path id="Path_225" data-name="Path 225" d="M92.524,117.689a7.86,7.86,0,0,1-1.044-.333,3.738,3.738,0,0,1-2.408-3.594c-.024-3.7-.012-5.557-.012-9.254v-.551H85.124a4.029,4.029,0,0,1-2.443-.769,3.692,3.692,0,0,1-1.613-3.02c-.024-1.78-.024-3.548,0-5.327a3.909,3.909,0,0,1,3.89-3.766c1.34-.023,2.692,0,4.1,0V81.822A3.937,3.937,0,0,1,93.307,77.7H108.8a3.937,3.937,0,0,1,4.246,4.122V96.23h.949a37.19,37.19,0,0,1,3.76.092,3.767,3.767,0,0,1,3.273,3.639c.036,1.8.036,3.605,0,5.419a3.908,3.908,0,0,1-3.866,3.743c-1.2.023-2.4.011-3.593.011h-.522V113.6a3.885,3.885,0,0,1-3.344,4.041.375.375,0,0,0-.119.057Q101.04,117.683,92.524,117.689ZM91.73,98.825V113.6a1.355,1.355,0,0,0,1.554,1.5H108.82c1.044,0,1.554-.494,1.565-1.493V109.56c0-.138-.012-.276-.024-.436h-3.843a1.317,1.317,0,0,1-1.459-1.378c0-1.665-.012-3.318,0-4.983a1.3,1.3,0,0,1,1.423-1.366c1.139-.011,2.277,0,3.416,0h.486V81.684a1.323,1.323,0,0,0-1.471-1.412H93.283a1.355,1.355,0,0,0-1.554,1.5v9.265H94.4V89.87a1.261,1.261,0,0,1,.688-1.217,1.346,1.346,0,0,1,1.459.092q3.932,2.532,7.863,5.075a1.254,1.254,0,0,1,0,2.216c-2.621,1.711-5.266,3.4-7.9,5.1a1.317,1.317,0,0,1-1.388.092,1.268,1.268,0,0,1-.723-1.194V98.825Zm4.756-.861s3.392-2.113,4.815-3.031c-1.447-.93-4.815-3.111-4.815-3.111l-.024,1.791-1.079.034H85.219c-.771,0-1.34.356-1.435,1.01a11.039,11.039,0,0,0-.012,1.653c.854-.034,1.672-.08,2.491-.092,3.06-.011,9.191,0,9.191,0l1.008-.011Zm11.231,8.519c.047.034.059.057.071.057,3.107,0,6.215.011,9.322,0a1.181,1.181,0,0,0,1.2-.976,11.648,11.648,0,0,0,.012-1.7c-.759.034-1.494.092-2.23.092-2.633.011-5.266,0-7.9,0h-.474Zm5.337-5.1c1.388,0,2.74.023,4.092-.011a1.276,1.276,0,0,0,1.21-1.263,1.241,1.241,0,0,0-1.139-1.274c-1.388-.046-2.763-.011-4.175-.011C113.054,99.675,113.054,100.5,113.054,101.385ZM89.038,98.814h-3.9a1.306,1.306,0,0,0-1.4,1.3,1.323,1.323,0,0,0,1.423,1.274c1.2.011,2.4,0,3.594,0a2.4,2.4,0,0,0,.285-.034Z" fill="#fcfcfc"/>
    </g>
  </g>
</svg>
