<svg xmlns="http://www.w3.org/2000/svg" width="36.095" height="85.001" viewBox="0 0 36.095 85.001">
  <path id="D" d="M-16220.691,42.5a3,3,0,0,1-3-3V35.359c-.741-.016-1.649.016-2.652.047-1.422.045-3.035.09-4.62,0-1.85-.086-1.85-.086-1.935-1.76,0-2.375.085-4.75-.09-7.125.09-1.85.09-3.7.09-5.545,0-2.375,0-4.754.085-7.129.09-2.465-.085-4.925,0-7.39a8.044,8.044,0,0,0,.176-2.9,10.439,10.439,0,0,1-.176-2.29c-.175-7.215.09-14.52.176-21.735a43.2,43.2,0,0,0-.261-4.75c-.18-2.73-.09-5.369,0-8.1a1.419,1.419,0,0,1,1.23-1.406,8.069,8.069,0,0,1,3.255-.175,44,44,0,0,0,4.723,0c0-.021,0-.042,0-.063V-38.5a3,3,0,0,1,3-3h9.611a3,3,0,0,1,3,3v3.54a3,3,0,0,1-.147.931,13.209,13.209,0,0,1,5.252,2.47,7.948,7.948,0,0,1,1.846,2.379,24.339,24.339,0,0,1,1.76,3.781,5.77,5.77,0,0,1,.265,1.32c.176,1.145.176,2.29.44,3.434a40.284,40.284,0,0,1,.439,8.005,24.679,24.679,0,0,0,.266,5.72,2.6,2.6,0,0,1,0,1.145c-.176,2.64-.09,5.194-.266,7.834-.175,2.9-.085,5.805-.085,8.71,0,3.7-.18,7.394-.444,11.089a13.583,13.583,0,0,1-2.461,7.04c-.794,1.145-1.585,2.2-2.465,3.345a3.351,3.351,0,0,1-1.055.88c-1.12.529-2.2,1.137-3.345,1.587V39.5a3,3,0,0,1-3,3Zm-7.63-10.079a.625.625,0,0,0,.265.53c.261.086.525-.179.525-.619a.4.4,0,0,0-.44-.35C-16228.236,31.977-16228.321,32.152-16228.321,32.417Zm21.029-1.32a.4.4,0,0,0-.351.44c-.089.44.176.79.53.7.261-.09.436-.175.436-.265,0-.552-.21-.894-.509-.894A.438.438,0,0,0-16207.292,31.1Zm2.465.44a1.22,1.22,0,0,0,.354.265l.351-.53a.694.694,0,0,0-.351-.175C-16204.737,31.1-16204.827,31.361-16204.827,31.537Zm-18.129-1.23a.91.91,0,0,0-.351,1.141c.176.265.615.354.79.09l.266-.53-.086-.44a.427.427,0,0,0-.4-.351A.31.31,0,0,0-16222.956,30.306Zm-8.975.44c0,.35.265.615.794.7a.23.23,0,0,0,.261-.261.607.607,0,0,0-.525-.794C-16231.666,30.392-16231.931,30.481-16231.931,30.746Zm18.877.477a.457.457,0,0,0-.4-.216.36.36,0,0,0-.508.216Zm-2.176,0a.348.348,0,0,0-.067-.126c-.225-.076-.385-.087-.482.126Zm-14.412-.831c-.265,0-.439.265-.354.44.18.175.354.354.529.354.176.086.351-.09.44-.354.078-.23-.111-.457-.45-.457A.869.869,0,0,0-16229.642,30.392Zm23.845-.7c-.261,0-.436.09-.351.44,0,.179.09.354.44.354.265-.09.44-.175.354-.44,0-.219-.122-.376-.314-.376A.424.424,0,0,0-16205.8,29.687Zm-12.055,0,.354.53c.261.09.615-.265.615-.615,0-.175-.175-.44-.354-.44a.268.268,0,0,0-.087-.014A.625.625,0,0,0-16217.852,29.687Zm8.975-.35a.7.7,0,0,0-.175.35c0,.179.175.354.265.53l.351-.44-.175-.44c-.043-.088-.087-.131-.131-.131S-16208.832,29.249-16208.877,29.337Zm-4.31.265-.176.086c.086.09.176.265.265.265s.176-.175.261-.265c-.05-.1-.1-.145-.17-.145A.425.425,0,0,0-16213.187,29.6Zm2.9.086c.09.265.351.265.615.179.175,0,.175-.179.175-.354a.478.478,0,0,0-.525-.35A.388.388,0,0,0-16210.282,29.687Zm-11.179-.086.265.265c.354-.09.44-.265.44-.53,0-.09-.261-.175-.351-.175C-16221.371,29.161-16221.461,29.426-16221.461,29.6Zm-2.815-.97a.406.406,0,0,0-.439.53.462.462,0,0,0,.529.526c.351,0,0-.261,0-.526,0-.308.133-.546-.008-.546A.28.28,0,0,0-16224.276,28.632Zm-7.04,0a.313.313,0,0,0-.175.09c0,.086.09.175.175.265l.795.261c.086.09.175-.175.261-.261v-.179a.859.859,0,0,0-.616-.29A1,1,0,0,0-16231.316,28.632Zm23.939-.265.085.265.354-.175a.272.272,0,0,1-.09-.175Zm-7.3-.526c-.176,0-.176.265-.176.526-.089,0,.176.09.261.09.265,0,.354-.175.354-.44-.063-.124-.169-.248-.288-.248A.213.213,0,0,0-16214.682,27.841Zm-15.665-.7c-.439.09-.35.35-.79.53-.09,0-.09.175-.18.261l.18.09,1.141.175a1.331,1.331,0,0,0,.615-.086.382.382,0,0,0,.18-.619c-.074-.214-.563-.374-.931-.374A.885.885,0,0,0-16230.347,27.137Zm11,.7.09.265.351-.179a.264.264,0,0,1-.09-.175Zm-5.455-1.85c.086.09.175.175.261.175l.18-.175-.354-.175A.316.316,0,0,0-16224.8,25.992Zm12.846-.44c0,.265.265.354.529.354a.452.452,0,0,0,.439-.354.558.558,0,0,0-.529-.44A.471.471,0,0,0-16211.956,25.552Zm4.049-.265c.09.265.176.44.44.44a.394.394,0,0,0,.265-.261c0-.265-.175-.354-.44-.44Zm2.025-.526.175.615a.321.321,0,0,1,.265.09l.351-.265-.44-.53Zm-24.289-.794c-.09.09-.265.09-.265.265-.176.175-.176.35.089.53h.176a.274.274,0,0,0,.175-.44l-.175-.44Zm10.56-47.608a.7.7,0,0,0-.705.7v3.17c-.351,3.7.18,5.455,0,8.885-.175,4.4,0,8.889-.085,13.289-.09,1.32.265,2.64.265,3.874l.085,8.36c-.35,2.99,0,5.981,0,8.975a.812.812,0,0,0,.795.88,13.713,13.713,0,0,0,5.015-.09c2.905-.615,4.485-1.76,4.4-5.19V17.632c-.09-6.16.439-11.615.085-18.48-.085-2.375,0-4.84-.175-7.3-.261-2.9-.175-5.809-.175-8.8a10.514,10.514,0,0,0-.44-3.345,4.212,4.212,0,0,0-3.96-3.255c-1.409-.09-2.99-.09-4.4-.175Zm-10.47,47.168-.09.354c.09-.09.265-.09.354-.179a.672.672,0,0,0-.18-.35A.317.317,0,0,0-16230.081,23.527Zm29.039-1.23c-.176.086-.351.175-.351.44,0,.526.525.966.88.7.175-.09.261-.354.351-.44-.078-.462-.354-.722-.716-.722A.823.823,0,0,0-16201.042,22.3Zm-1.585.086a.634.634,0,0,0-.265.53c.089.265.354.175.529.09.09,0,.09-.179.175-.354-.069-.144-.2-.287-.345-.287A.213.213,0,0,0-16202.627,22.382Zm-5.369.44a.31.31,0,0,0,.179.09c.086-.09.175-.175.175-.265l-.175-.265Zm-15.135-.615c0,.265.175.265.265,0a.272.272,0,0,0-.09-.175h-.175C-16223.131,22.122-16223.217,22.207-16223.131,22.207Zm-6.511-.265.175.44.176-.175-.176-.35A.3.3,0,0,0-16229.642,21.942Zm28.335-1.846a.759.759,0,0,0,.529.265.417.417,0,0,0,.439-.44.324.324,0,0,0-.354-.354C-16201.042,19.567-16201.393,19.832-16201.307,20.1Zm-29.3-1.145a.7.7,0,0,0,.615.79c.265,0,.615-.261.615-.526a.844.844,0,0,0-.615-.794A.658.658,0,0,0-16230.611,18.952Zm.176-3.08a.465.465,0,0,0,.265.35c.175.09.354,0,.439-.261-.085-.09-.085-.265-.175-.354C-16230.171,15.607-16230.436,15.607-16230.436,15.872Zm26.224-1.5c-.086.086-.261.175-.261.265a.479.479,0,0,0,.351.526c.265,0,.351-.175.351-.44-.074-.151-.15-.368-.34-.368A.317.317,0,0,0-16204.212,14.377Zm-27.544-3.7-.261.615c0,.35.261.615.525.526a.479.479,0,0,0,.354-.526.828.828,0,0,0-.565-.627A.114.114,0,0,0-16231.756,10.682Zm2.465-.44a.4.4,0,0,0-.351.44.365.365,0,0,0,.525.261c.18,0,.354-.086.44,0-.147-.516-.294-.723-.494-.723A.377.377,0,0,0-16229.291,10.242Zm1.145-1.234a.37.37,0,0,0,.265.53c.176.086.351,0,.44-.265,0-.265-.09-.44-.354-.44C-16227.882,8.832-16228.146,8.922-16228.146,9.008Zm23.5-.265a.446.446,0,0,0,.354.44c.261,0,.615-.261.526-.526,0-.175-.176-.53-.266-.53C-16204.387,8.128-16204.562,8.392-16204.651,8.743Zm-17.95-.526c.085.265.175.44.439.44.351,0,.526-.265.7-.615-.175-.09-.261-.354-.436-.44a.568.568,0,0,0-.139-.017A.589.589,0,0,0-16222.6,8.217Zm-7.659-1.055a.477.477,0,0,0-.261.44c0,.35.261.526.615.44a1.964,1.964,0,0,0,.439-.354c.077-.236-.332-.54-.673-.54A.49.49,0,0,0-16230.261,7.162Zm3.084.526.086.354.175-.09-.175-.35Zm1.846.175c0,.179.09.179.175,0a.12.12,0,0,0,0-.175h-.175Zm1.319-1.23a1.094,1.094,0,0,0,.44.44.525.525,0,0,0,.615-.53c0-.35-.261-.526-.615-.526A.517.517,0,0,0-16224.012,6.632Zm-7.39-.88.085.35.266-.086-.176-.354A.294.294,0,0,0-16231.4,5.752Zm30.444-.265a.434.434,0,0,0,.265.53c.266,0,.44-.09.44-.354,0-.175-.086-.35-.175-.35a.612.612,0,0,0-.194-.035A.36.36,0,0,0-16200.957,5.488Zm-6.86,0c-.09.175,0,.265.175.265,0,0,0-.175.086-.175l-.086-.175C-16207.731,5.4-16207.817,5.4-16207.817,5.488Zm-20.154-1.145c.09.09.09.265.176.354.175.086.265.086.354-.09-.09-.086-.09-.265-.18-.35Zm25.345-.35c.09.09.09.265.175.35.18.179.354.09.354-.086.086-.09,0-.354-.09-.354a.081.081,0,0,0-.061-.024C-16202.343,3.879-16202.486,3.992-16202.627,3.992Zm-27.1-1.055c-.085.265.09.44.351.44a.747.747,0,0,0,.444-.265c.085-.265-.18-.35-.265-.44C-16229.467,2.673-16229.731,2.762-16229.731,2.937Zm22-.354.439.179a.313.313,0,0,0,.09-.179.192.192,0,0,0-.175-.175Zm-21.12-1.055.09.09.176-.175h-.176Zm1.32-1.23c-.175.175.09.44.265.35.09,0,.176-.175.265-.265-.089-.086-.089-.261-.175-.261A.66.66,0,0,0-16227.531.3Zm19.714-.265c0,.265.351.53.79.615.44,0,.795-.175.88-.526a1.032,1.032,0,0,0-.79-.97A.947.947,0,0,0-16207.817.033Zm2.64-1.32c-.089,0-.354.09-.354.175-.085.265.354.615.53.53.085,0,.175-.175.265-.354,0-.214-.121-.374-.31-.374A.409.409,0,0,0-16205.178-1.287Zm4.926-1.055c0,.175.265.265.44.265a.665.665,0,0,0,.175-.354c0-.265-.261-.265-.44-.265A.694.694,0,0,0-16200.252-2.343Zm-27.63-.265c-.09.265.176.44.351.44.265.09.529-.265.44-.44a.535.535,0,0,0-.53-.265C-16227.706-2.783-16227.882-2.7-16227.882-2.607Zm20.944-.35a.423.423,0,0,0-.265.526.46.46,0,0,0,.615.175c.265-.086.439-.175.354-.526a.453.453,0,0,0-.412-.307A.407.407,0,0,0-16206.937-2.958Zm-15.313-1.059c-.086.179,0,.354.175.53.18.09.615-.09.615-.35a.427.427,0,0,0-.261-.53.415.415,0,0,0-.133-.023C-16222.046-4.391-16222.178-4.231-16222.251-4.017Zm19.979.09a.623.623,0,0,0,.525.265.429.429,0,0,0,.265-.53.323.323,0,0,0-.354-.35C-16202.1-4.457-16202.452-4.017-16202.272-3.927Zm-22-.97a.814.814,0,0,0-.265.619l.354.261.351-.79-.176-.175Zm24.379-.175c-.09.175,0,.354.086.354.265.086.439.086.529-.179-.09-.175-.09-.35-.176-.35a.831.831,0,0,0-.251-.054C-16199.827-5.3-16199.9-5.239-16199.9-5.072Zm-30.273-1.145c.439.619,1.145.88,1.76,1.41a.366.366,0,0,0,.529-.175.771.771,0,0,0,.086-.615l-1.585-1.939A1.328,1.328,0,0,0-16230-7.8c-.7-.086-.966-.526-1.32-1.055a.537.537,0,0,0-.614-.265.473.473,0,0,0-.176.354c-.09.265.09.526.265.79a.637.637,0,0,1,.176.97,1.788,1.788,0,0,0-.351.526.9.9,0,0,0,.175.44h.44l.175-.086c.369-.277.545-.409.679-.409S-16230.338-6.427-16230.171-6.217Zm26.839.619h.18v-.179l-.18-.086C-16203.507-5.777-16203.6-5.687-16203.332-5.6Zm-2.11-1.585c0,.086.09.086.09.175.086-.09.175-.09.175-.175l-.175-.354Zm-23.584-1.32v.44a1.363,1.363,0,0,0,.705.526.415.415,0,0,0,.439-.44.923.923,0,0,0-.529-.7.5.5,0,0,0-.218-.051A.467.467,0,0,0-16229.026-8.5Zm5.81-.09.086.175.175-.086-.086-.179Zm-5.545-1.41v-.086C-16228.852-10.087-16228.852-10.087-16228.762-10Zm.086-1.5c-.261.09-.44.265-.351.53s.265.44.351.7c.439-.179.619-.44.439-.88,0-.219-.119-.376-.31-.376A.419.419,0,0,0-16228.676-11.5Zm-3.08-1.32-.175.09a1.454,1.454,0,0,0,0,1.76.537.537,0,0,0,.614.086l.44-.44c-.525-.35-.261-1.055-.705-1.5,0-.029-.009-.038-.025-.038C-16231.639-12.855-16231.7-12.817-16231.756-12.817Zm25.344.7.18.44.175-.175-.175-.354Zm-18.3-.265c-.086.265.265.615.439.53a.783.783,0,0,0,.354-.44c0-.175-.175-.354-.265-.53C-16224.541-12.817-16224.627-12.642-16224.716-12.377Zm-4.221-1.5.175.09v-.179l-.09-.086Zm26.839-.615a.316.316,0,0,0,.086.175l.439-.175a.313.313,0,0,1-.175-.09Zm-5.634-1.76-.086.526.086.619c.089.175.439.261.529.175s.265-.265.175-.354a3.22,3.22,0,0,0-.439-.966l-.176-.175Zm-21.735-.44a1.7,1.7,0,0,0,1.41,1.76l.085-.175-.965-1.674a.548.548,0,0,0-.354-.086A.186.186,0,0,0-16229.467-16.687Zm5.631,1.585-.086-.179-.265-.175Zm-5.016-5.369c-.175.175-.439.265-.529.44-.086.265.18.53.444.7s.085.35,0,.526c-.09.44-.18.794.175,1.059.176.175.615-.179.615-.7a1.459,1.459,0,0,1,.705-1.145c.265-.175.175-.44.265-.7a1.924,1.924,0,0,0-1.017-.405A1.115,1.115,0,0,0-16228.852-20.472Zm-3.165,1.5c0,.09.086.265.175.265.261.09.351-.09.351-.35,0-.09-.09-.265-.175-.265a.208.208,0,0,0-.094-.024C-16231.9-19.351-16232.017-19.194-16232.017-18.977Zm0-4.75c-.354.88-.09,1.406.7,1.585l.62.175-.18.615-.086.615v.53a2.174,2.174,0,0,0,.351.615c.09.09.53-.175.615-.53.18-.44.265-1.055.795-1.055.88,0,1.145-.79,1.76-1.23.265-.09.175-.354.085-.615a.533.533,0,0,0-.615-.09,3.013,3.013,0,0,1-1.76.35.648.648,0,0,1-.35-.175l.35-.175.265-.175a.7.7,0,0,0-.265-1.234c-.529-.175-.79-.086-1.145.7-.261.615-.351.175-.525,0a.53.53,0,0,0-.292-.095A.351.351,0,0,0-16232.017-23.727Zm30.444,1.406a.277.277,0,0,1,.09.179l.351-.09-.086-.175Zm-6.335-2.9c-.089,0-.175.175-.265.261.09.265.265.44.529.354a.689.689,0,0,0,.176-.354.285.285,0,0,0-.3-.294A.316.316,0,0,0-16207.907-25.222Zm-20.064-.7c-.265,0-.35.175-.439.35a.525.525,0,0,0,.529.615c.261,0,.615-.261.615-.526a.543.543,0,0,0-.53-.463A.713.713,0,0,0-16227.972-25.927Zm-3.165-.97c0,.354.261.794.615.794a.583.583,0,0,0,.525-.619.587.587,0,0,0-.439-.615.573.573,0,0,0-.135-.017A.627.627,0,0,0-16231.137-26.9Zm2.636-2.285a1.486,1.486,0,0,1-.7,1.5c-.266.086-.18.44-.09.615.175.175.439.175.529.35.176-.086.44-.175.44-.261a3.525,3.525,0,0,1,1.319-1.5c.526-.44.351-1.055-.265-1.406a1.278,1.278,0,0,0-.564-.154C-16228.235-30.041-16228.5-29.744-16228.5-29.182Zm14.964-.09s.086.175.086.09l.439-.09c-.086-.09-.086-.175-.175-.175Zm8.095-2.375a2.325,2.325,0,0,0,.176.615c.089-.175.265-.35.265-.53a.464.464,0,0,0-.176-.35C-16205.267-31.822-16205.442-31.736-16205.442-31.647Zm-4.135-.53a.654.654,0,0,0,.525.615c.265.09.354-.175.44-.35,0-.35-.086-.615-.44-.615a.406.406,0,0,0-.133-.024C-16209.374-32.55-16209.507-32.393-16209.577-32.176Zm-3.785.44c.176.175.351.09.525-.175a.363.363,0,0,0,.016-.053h-.819A.4.4,0,0,0-16213.362-31.736Zm-13.2-.265.086.354a.314.314,0,0,0,.179-.09l-.09-.35A.3.3,0,0,0-16226.562-32Zm-2.994-.7c-.176.086-.086.175.089.175.086.086.086,0,.176-.09a.085.085,0,0,0-.09-.086.186.186,0,0,0-.119-.067C-16229.533-32.769-16229.556-32.747-16229.556-32.7Zm-2.551-.7.176.35.089-.175-.089-.35Z" transform="translate(16233.487 42.006)" fill="#ff692b" stroke="rgba(0,0,0,0)" stroke-miterlimit="10" stroke-width="1"/>
</svg>
