<svg xmlns="http://www.w3.org/2000/svg" width="37.59" height="38" viewBox="0 0 37.59 38">
  <g id="credit-card_2_" data-name="credit-card (2)" transform="translate(-59.905 -58.65)">
    <path id="Path_389" data-name="Path 389" d="M220.084,141.49a.769.769,0,0,0,.806-.763.8.8,0,0,0-.795-.827.814.814,0,0,0-.795.795A.791.791,0,0,0,220.084,141.49Z" transform="translate(-143.657 -73.228)" fill="#ff692b"/>
    <path id="Path_390" data-name="Path 390" d="M60.459,96.63c-.684-.436-.733-.872-.159-1.446q3.4-3.4,6.816-6.816a.837.837,0,0,0,.248-.614,6.327,6.327,0,0,1,4.082-6.063c.05-.02.109-.05.317-.149a3.151,3.151,0,0,1-.466-.307c-.852-.842-1.7-1.684-2.546-2.536a3.173,3.173,0,0,1,.02-4.637c1.546-1.555,3.091-3.091,4.637-4.637a1.538,1.538,0,0,1,.277-.238.707.707,0,0,1,.911.1.721.721,0,0,1,.089.921,1.849,1.849,0,0,1-.3.327l-4.508,4.508a1.715,1.715,0,0,0,0,2.695l3.25,3.25a.848.848,0,0,0,1.308-.01c.931-.921,1.833-1.873,2.784-2.774a2.937,2.937,0,0,1,4.835,1.229,2.87,2.87,0,0,1-.783,3.061c-.981.991-1.972,1.981-2.962,2.962-.109.109-.248.2-.4.327.327.307.565.575.842.793a1.667,1.667,0,0,0,2.061-.02c.129-.1.238-.218.357-.327q7.074-7.074,14.158-14.158a1.738,1.738,0,0,0,.01-2.774l-8.471-8.471a1.743,1.743,0,0,0-2.774,0l-4.538,4.538a2.6,2.6,0,0,1-.3.277.739.739,0,0,1-1.05-1.03,2.581,2.581,0,0,1,.228-.238c1.536-1.536,3.071-3.081,4.617-4.617a3.2,3.2,0,0,1,4.825-.01q4.265,4.25,8.52,8.52a3.2,3.2,0,0,1-.01,4.825q-4.057,4.072-8.124,8.134a1.936,1.936,0,0,0-.446.7c-.951,2.526-1.882,5.063-2.814,7.6a6.6,6.6,0,0,1-4.627,4.31c-1.684.476-3.369.961-5.063,1.427a1.8,1.8,0,0,0-.931.555c-.277.3-.594.555-.892.822h-.446c-.664-.436-.7-.872-.139-1.437.238-.238.485-.466.7-.713a1.814,1.814,0,0,1,.941-.545c1.823-.5,3.636-1.02,5.449-1.536a5.143,5.143,0,0,0,3.6-3.339c.406-1.12.832-2.249,1.248-3.369.178-.5.357-.991.545-1.486-.04-.03-.079-.069-.119-.1a1.878,1.878,0,0,1-.218.327c-.971.981-1.952,1.962-2.933,2.933a3.182,3.182,0,0,1-4.686-.01c-.168-.159-.3-.357-.456-.535-.228.208-.376.357-.545.485a.736.736,0,0,1-.951-.069.748.748,0,0,1-.079-.951,1.972,1.972,0,0,1,.277-.3q2.2-2.2,4.4-4.409l.208-.208a1.487,1.487,0,0,0,.02-2.071,1.456,1.456,0,0,0-2.09-.01c-.9.882-1.813,1.754-2.665,2.685a2.211,2.211,0,0,1-1.813.783,4.646,4.646,0,0,0-3.785,1.793,4.886,4.886,0,0,0-1.11,3.478,1.481,1.481,0,0,1-.5,1.209c-2.318,2.3-4.617,4.607-6.925,6.915a7.048,7.048,0,0,1-.594.485A2.463,2.463,0,0,0,60.459,96.63Z" fill="#ff692b"/>
    <path id="Path_391" data-name="Path 391" d="M220.084,141.49a.8.8,0,0,1-.784-.795.8.8,0,1,1,1.59.032A.769.769,0,0,1,220.084,141.49Z" transform="translate(-143.657 -73.228)" fill="#ff692b"/>
  </g>
</svg>
