<svg xmlns="http://www.w3.org/2000/svg" width="38" height="36.144" viewBox="0 0 38 36.144">
  <g id="heart_social_media" data-name="heart_social media" transform="translate(-45 -75.137)">
    <path id="Path_392" data-name="Path 392" d="M45,87.253c.149-.892.223-1.806.446-2.667,1.051-4.057,3.291-6.994,6.824-8.53,3.868-1.681,7.522-1.027,10.86,1.712.149.125.288.27.428.4s.279.27.428.4c.428-.374.837-.757,1.264-1.1a10.2,10.2,0,0,1,13.946.975,13.58,13.58,0,0,1,3.8,9.63,11.339,11.339,0,0,1-1.423,5.292,31.307,31.307,0,0,1-4.956,6.942,83.086,83.086,0,0,1-12.078,10.75.8.8,0,0,1-1.06.021A80.242,80.242,0,0,1,50.495,99.311a26.888,26.888,0,0,1-4.444-6.745,11.769,11.769,0,0,1-.986-3.455A1.486,1.486,0,0,0,45,88.924C45,88.363,45,87.8,45,87.253Zm36.521.654a12.3,12.3,0,0,0-2.613-7.451A8.924,8.924,0,0,0,65.7,79.18c-.381.342-.735.737-1.1,1.11a.715.715,0,0,1-1.181,0c-.093-.093-.177-.2-.27-.291-2.752-2.916-5.969-3.891-9.6-2.7a10.009,10.009,0,0,0-6.322,6.548,10.486,10.486,0,0,0,.735,9.163,32.766,32.766,0,0,0,3.775,5.3,78.487,78.487,0,0,0,12.012,10.958.365.365,0,0,0,.521,0c1.488-1.2,3-2.387,4.481-3.611a62,62,0,0,0,8.089-8.011A25.23,25.23,0,0,0,80.545,92,9.182,9.182,0,0,0,81.521,87.907Z" fill="#ff692b"/>
    <path id="Path_393" data-name="Path 393" d="M352.786,128.871c0,.166.01.332,0,.5a.806.806,0,0,1-1.588.083c-.125-.664-.145-1.349-.332-1.992a6.331,6.331,0,0,0-3.808-4.348c-.166-.073-.342-.114-.5-.2a.8.8,0,0,1-.446-1,.752.752,0,0,1,.944-.529,7.995,7.995,0,0,1,5.728,7.482Z" transform="translate(-274.239 -41.421)" fill="#ff692b"/>
    <path id="Path_394" data-name="Path 394" d="M315.7,120.309a.826.826,0,0,1,.82-.809.835.835,0,0,1,.83.841.82.82,0,0,1-.861.8A.8.8,0,0,1,315.7,120.309Z" transform="translate(-245.648 -39.76)" fill="#ff692b"/>
  </g>
</svg>
