<svg xmlns="http://www.w3.org/2000/svg" width="38.606" height="38.572" viewBox="0 0 38.606 38.572">
  <g id="layers_4_" data-name="layers (4)" transform="translate(-62.588 -62.925)">
    <path id="Path_395" data-name="Path 395" d="M82.35,101.5h-.978A10.689,10.689,0,0,1,80,100.92Q73.608,97.2,67.244,93.434c-1.092-.638-2.183-1.287-3.264-1.946a2.566,2.566,0,0,1-1.3-2.873,2.658,2.658,0,0,1,1.328-1.7c.669-.391,1.339-.783,2.039-1.2-.783-.463-1.524-.886-2.235-1.349a2.545,2.545,0,0,1,.01-4.346c.247-.165.515-.309.772-.463.474-.278.937-.556,1.452-.855-.711-.422-1.39-.783-2.018-1.215a3.838,3.838,0,0,1-1.1-1.092,2.54,2.54,0,0,1,1.153-3.542q7.908-4.665,15.827-9.329a3.618,3.618,0,0,1,3.975,0q7.692,4.557,15.415,9.072a3.56,3.56,0,0,1,1.895,2.152v.834a2.881,2.881,0,0,1-1.328,1.874c-.391.227-.772.463-1.164.69-.309.185-.608.36-.958.577.577.34,1.081.669,1.617.937a3.156,3.156,0,0,1,1.833,2.183v.752a3.177,3.177,0,0,1-1.8,2.162c-.546.288-1.061.628-1.648.968.587.34,1.1.68,1.637.958a3.187,3.187,0,0,1,1.812,2.162v.834A3.528,3.528,0,0,1,99.3,91.827c-4.85,2.832-9.68,5.694-14.519,8.537A8.32,8.32,0,0,1,82.35,101.5Zm-.432-15.724a9.147,9.147,0,0,0,1.019-.412q7.955-4.665,15.9-9.35c.824-.484.824-1.164.01-1.648q-7.97-4.7-15.93-9.381a1.841,1.841,0,0,0-2.018-.01q-7.986,4.7-15.961,9.4c-.772.453-.783,1.153-.01,1.606q8,4.711,15.992,9.412A6.983,6.983,0,0,0,81.918,85.772Zm-.01,14.035a6.646,6.646,0,0,0,1.009-.4q7.97-4.68,15.93-9.371c.813-.474.8-1.164-.021-1.648s-1.648-.958-2.461-1.452a.541.541,0,0,0-.669-.01c-3.923,2.317-7.857,4.613-11.78,6.93a3.648,3.648,0,0,1-4.016.01q-5.9-3.491-11.811-6.94c-.175-.1-.319-.2-.535-.062-.875.535-1.771,1.04-2.657,1.576A.835.835,0,0,0,64.906,90q8.017,4.727,16.033,9.432A6.556,6.556,0,0,0,81.907,99.808Zm0-7.023a7.056,7.056,0,0,0,.989-.391Q90.881,87.713,98.867,83c.772-.453.772-1.153,0-1.606-.844-.5-1.689-.989-2.523-1.493a.525.525,0,0,0-.638,0c-3.923,2.317-7.857,4.6-11.78,6.93a3.68,3.68,0,0,1-4.047.01q-5.9-3.491-11.811-6.951a.479.479,0,0,0-.577-.01c-.844.515-1.709,1.009-2.564,1.514-.772.463-.783,1.153-.021,1.606q8,4.711,16,9.412A9.536,9.536,0,0,0,81.907,92.785Z" fill="#ff692b"/>
  </g>
</svg>
