<svg xmlns="http://www.w3.org/2000/svg" width="50.837" height="38.132" viewBox="0 0 50.837 38.132">
  <g id="megaphone" transform="translate(-58 -106.741)">
    <path id="Path_396" data-name="Path 396" d="M79.425,142.781a2.24,2.24,0,0,1-1.751,1.99,4.41,4.41,0,0,1-.929.093c-.955.013-1.924.013-2.879,0a2.393,2.393,0,0,1-2.468-2.335c-.2-2.905-.425-5.811-.637-8.743-.212-.053-.438-.106-.65-.172a2.348,2.348,0,0,1-1.34-1.181c-.252-.5-.517-.995-.743-1.512a.537.537,0,0,0-.57-.358c-1.247.013-2.481.013-3.728.013A2.418,2.418,0,0,1,61.3,128.97a1.184,1.184,0,0,0-.425-.425c-.584-.4-1.221-.73-1.764-1.167A4.282,4.282,0,0,1,58,125.322v-5.36c.159-.4.279-.809.464-1.181a4.041,4.041,0,0,1,2.1-1.884,1.529,1.529,0,0,0,.876-.849,2.278,2.278,0,0,1,2.242-1.353H77.435a27.4,27.4,0,0,0,5.983-.385,18.682,18.682,0,0,0,4.524-1.579c2.189-1.088,4.378-2.189,6.567-3.277a.631.631,0,0,0,.425-.584,2.272,2.272,0,0,1,2.123-2.123,2.3,2.3,0,0,1,2.468,1.791c.305,1.592.57,3.184.783,4.789a71.184,71.184,0,0,1,.517,12.577,74.825,74.825,0,0,1-1.247,10.587,2.349,2.349,0,0,1-4.67-.186.594.594,0,0,0-.252-.425c-2.866-1.406-5.691-2.879-8.61-4.152a16.322,16.322,0,0,0-7.389-1.141c0,.279.013.544,0,.8a2.292,2.292,0,0,1-1.167,2,.511.511,0,0,0-.318.57c.212,1.977.385,3.953.624,5.917m.889-10.958a.39.39,0,0,0,.119.04c.318,0,.624.013.942.013a18.908,18.908,0,0,1,7.071,1.327c1.433.584,2.812,1.3,4.205,1.977,1.366.663,2.72,1.353,4.113,2.056a71.573,71.573,0,0,0,0-23.429l-.531.265-5.89,2.945a19.256,19.256,0,0,1-7.389,2.07c-.862.053-1.738.013-2.64.013Zm-11.144.027h9.512V116.3H67.539v2.109c0,.663-.305,1.035-.809,1.035s-.783-.385-.783-1.048v-2.109H63.864c-.849,0-1.1.239-1.1,1.088v10.679c0,.557.239.915.677.929.823.04,1.645.013,2.494.013v-7.044a.8.8,0,0,1,.809-.876.811.811,0,0,1,.769.862v.451C67.539,124.539,67.539,126.715,67.539,128.944Zm31.773-6.288a74.185,74.185,0,0,0-.809-10.719c-.146-.942-.318-1.884-.491-2.839-.093-.544-.464-.849-.9-.769s-.663.464-.6,1.035c.013.066.013.133.027.2.345,2.852.769,5.7,1.008,8.57a61.022,61.022,0,0,1-.2,11.648c-.226,2.03-.544,4.06-.823,6.089-.08.6.146.982.61,1.061s.783-.239.889-.8A74.219,74.219,0,0,0,99.312,122.655ZM76.188,140.061c-.119-1.088-.212-2.176-.318-3.264-.106-1.008-.212-2.03-.318-3.038H72.368c.053.677.093,1.313.133,1.937.159,2.255.332,4.524.491,6.779a.725.725,0,0,0,.65.769c1.194.04,3.21.093,4.4.027M61.157,118.423a2.137,2.137,0,0,0-1.552,2.017c-.027,1.459-.04,2.905,0,4.365a2.136,2.136,0,0,0,1.552,1.99Zm8.464,12.152a6.192,6.192,0,0,0,.584,1.114,1.148,1.148,0,0,0,.756.438c1.751.04,3.5.027,5.267.013a.752.752,0,0,0,.823-.69,6.4,6.4,0,0,0,.013-.876Z" transform="translate(0 0)" fill="#ff692b"/>
    <path id="Path_397" data-name="Path 397" d="M407.675,222.014c-.517,0-1.022.013-1.539,0a.791.791,0,1,1,.013-1.579c1.022-.013,2.056-.013,3.078,0a.784.784,0,0,1,.836.8.793.793,0,0,1-.849.783C408.709,222.027,408.192,222.014,407.675,222.014Z" transform="translate(-301.226 -98.602)" fill="#ff692b"/>
    <path id="Path_398" data-name="Path 398" d="M399.224,170.539a1.846,1.846,0,0,1-.464.544c-.876.544-1.764,1.048-2.653,1.539a.791.791,0,1,1-.769-1.38c.876-.517,1.764-1.048,2.667-1.539A.829.829,0,0,1,399.224,170.539Z" transform="translate(-292.192 -54.516)" fill="#ff692b"/>
    <path id="Path_399" data-name="Path 399" d="M395.789,259.3a2.655,2.655,0,0,1,.438.186c.836.464,1.658.942,2.494,1.433.517.305.677.73.438,1.141-.239.438-.7.531-1.234.226-.862-.491-1.711-.982-2.574-1.486a.752.752,0,0,1-.4-.915A.8.8,0,0,1,395.789,259.3Z" transform="translate(-292.219 -132.32)" fill="#ff692b"/>
    <path id="Path_400" data-name="Path 400" d="M71.457,203.171a2.123,2.123,0,0,1-1.552-1.99c-.04-1.446-.04-2.905,0-4.365a2.169,2.169,0,0,1,1.552-2.016" transform="translate(-10.3 -76.377)" fill="#ff692b"/>
  </g>
</svg>
