<svg id="Layer_1" data-name="Layer 1" xmlns="http://www.w3.org/2000/svg" viewBox="0 0 37.23 37.23"><defs><style>.cls-1{fill:#ff692b;}</style></defs><path class="cls-1" d="M18.82,37.69A18.62,18.62,0,1,1,37.44,19.07,18.64,18.64,0,0,1,18.82,37.69ZM18.82,2A17.12,17.12,0,1,0,35.94,19.07,17.13,17.13,0,0,0,18.82,2Z" transform="translate(-0.21 -0.45)"/><path class="cls-1" d="M14.48,20.71h-5a.92.92,0,0,1-.77-1.42l5-7.75a.87.87,0,0,1,.84-.42.92.92,0,0,1,.77.53c.64,1.45,1.66,4.15,1.23,6a9.75,9.75,0,0,1-1,2.31l-.2.33A.93.93,0,0,1,14.48,20.71ZM10,20.1h0Zm.56-.89h3.63A8,8,0,0,0,15,17.3a7.93,7.93,0,0,0-.72-4Z" transform="translate(-0.21 -0.45)"/><path class="cls-1" d="M24,29.38H14.22a7,7,0,0,1-7-7v-.12a.92.92,0,0,1,.92-.91h5.45a.93.93,0,0,1,.92,1,1.17,1.17,0,0,0,.12.64,1.19,1.19,0,0,0,1.05.66h2V23H15.68a.93.93,0,0,1-.75-1.45l.71.29L15,21.43c.28-.41.63-1,.93-1.49a11.33,11.33,0,0,0,.63-1.26l.08-.19,0-.15.09-.25c0-.11.06-.2.08-.28a4.88,4.88,0,0,0,.12-1.1c0-.14,0-.29,0-.44s0-.36,0-.52,0-.3-.07-.45-.09-.46-.15-.69l0-.22-.09-.31c-.15-.51-.31-1-.5-1.48-.07-.2-.14-.37-.21-.54s-.18-.41-.26-.6l-.07-.15-.15-.3c0-.1-.09-.21-.14-.31l.62-.43-.67.34a1.89,1.89,0,0,1-.09-.21l-.3-.53a.85.85,0,0,1,1-1.23l1.8.49V8.89a1.81,1.81,0,0,1,1.81-1.82,1.83,1.83,0,0,1,1.29.53,1.88,1.88,0,0,1,.52,1.29v1.33l.47.37c.22.17.47.39.74.64a2.13,2.13,0,0,1,.22.21,14.48,14.48,0,0,1,1.1,1.11l.32.37.1.12.22.27.07.09.33.46.17.26c.15.23.29.48.42.73a3,3,0,0,1,.19.41,5.18,5.18,0,0,1,.35,1,1.22,1.22,0,0,1,.06.27c0,.11,0,.23,0,.34A3.61,3.61,0,0,1,26,18.1a4.27,4.27,0,0,1-.13.48c-.08.21-.13.35-.19.48a6.55,6.55,0,0,1-.46.87c0,.08-.11.19-.18.3l-.2.29c-.12.15-.22.29-.33.41a2.79,2.79,0,0,1-.27.35l-.39.44a3.2,3.2,0,0,1-.26.28l-.21.22-.39.37-.21.19a.93.93,0,0,1-.62.24h-.89v.61h1.32a1.17,1.17,0,0,0,.77-.29,15,15,0,0,0,1.2-1.19l.16-.17.31-.1,5.67-1.64a.9.9,0,0,1,.81.15.93.93,0,0,1,.36.73v1.21a.93.93,0,0,1-.56.85,5.07,5.07,0,0,0-1.89,1.25c-.29.4-.57.84-.84,1.29C27.46,27.43,26.24,29.38,24,29.38ZM8.71,22.81a5.55,5.55,0,0,0,5.51,5.07H24c1.42,0,2.31-1.44,3.26-3,.3-.47.59-.94.9-1.37A6,6,0,0,1,30.32,22v-.07l-4.81,1.39a15,15,0,0,1-1.21,1.18,2.69,2.69,0,0,1-1.76.67H19.72V21.52l2.21,0,.31-.29.21-.22.23-.25c.15-.16.26-.29.38-.44a2.6,2.6,0,0,0,.23-.28,4.25,4.25,0,0,0,.27-.35l.18-.26.15-.23a4.82,4.82,0,0,0,.37-.71c0-.11.08-.2.12-.29a3,3,0,0,0,.1-.37,2.27,2.27,0,0,0,.05-.74c0-.07,0-.12,0-.18l0-.18a5.66,5.66,0,0,0-.29-.85l-.14-.31c-.1-.18-.22-.39-.35-.59l-.17-.26c-.08-.13-.18-.25-.27-.37l-.07-.09A1.74,1.74,0,0,0,23,14l-.1-.12a3,3,0,0,0-.28-.33,14.29,14.29,0,0,0-1-1l-.18-.17c-.26-.24-.48-.43-.67-.59l-.18-.14-.31-.19-.55-.16V8.89a.34.34,0,0,0-.1-.24.3.3,0,0,0-.21-.08.31.31,0,0,0-.31.32V11.1l-2.31-.64.1.21.08.18c.09.2.19.41.28.63s.16.39.24.6c.19.5.37,1,.52,1.56,0,.11.07.24.11.37l.06.25a6.93,6.93,0,0,1,.17.79c0,.17.06.35.08.53a5.41,5.41,0,0,1,.05.59,4.39,4.39,0,0,1,0,.54,6.07,6.07,0,0,1-.15,1.4,4.11,4.11,0,0,1-.12.42,2.46,2.46,0,0,1-.11.32l0,.11a2.1,2.1,0,0,1-.13.32,12.12,12.12,0,0,1-.7,1.4c-.18.32-.35.6-.5.84H19.1v3.61H15.65A2.7,2.7,0,0,1,13,22.81Zm7.46-.39h0Zm14.5-.62h0Zm.39-.12ZM15.4,10.09h0Zm.73-.94v0Z" transform="translate(-0.21 -0.45)"/></svg>