<svg xmlns="http://www.w3.org/2000/svg" width="37.929" height="37.917" viewBox="0 0 37.929 37.917">
  <g id="projection-screen" transform="translate(6 6)">
    <path id="Path_401" data-name="Path 401" d="M30.432-6a2.116,2.116,0,0,1,1.432,1.7,12.028,12.028,0,0,1,0,2.478,2.042,2.042,0,0,1-2.1,1.766h-.542V17.2c.326.03.631.03.935.082a2.112,2.112,0,0,1,1.759,2.048c.015.608.015,1.209,0,1.818a2.125,2.125,0,0,1-2.033,2.1c-.163.007-.319.007-.482.007H13.492c0,.549-.015,1.054.015,1.558.007.082.178.2.3.23a3.507,3.507,0,1,1-1.9.052c.126-.037.26-.074.423-.111V23.265H3.72a2.5,2.5,0,0,1-.408-.015.509.509,0,0,1-.49-.512.52.52,0,0,1,.453-.586,2.212,2.212,0,0,1,.445-.022h25.71c1.039,0,1.373-.334,1.373-1.373,0-.43.007-.868,0-1.3a1.038,1.038,0,0,0-1.061-1.1c-.1-.007-.2,0-.3,0H-3.566c-.111,0-.223,0-.334.007a1.032,1.032,0,0,0-1.031,1.083c-.015.534-.015,1.061,0,1.6a1.023,1.023,0,0,0,1.106,1.083c1.573.007,3.139,0,4.712.007a1.441,1.441,0,0,1,.4.037.51.51,0,0,1,.386.594.5.5,0,0,1-.475.482,3.04,3.04,0,0,1-.371.015c-1.358,0-2.723-.045-4.081.015A2.567,2.567,0,0,1-6,21.825V18.709A2.264,2.264,0,0,1-3.967,17.24c.193-.007.386,0,.586,0V-.034a6.359,6.359,0,0,1-.942-.059A2.226,2.226,0,0,1-6-1.548V-4.59A2.576,2.576,0,0,1-4.59-6ZM28.043-.027H-2.2V17.217H28.043ZM12.921-1.177H29.579a1.067,1.067,0,0,0,1.217-1.2V-3.566c0-1.054-.341-1.388-1.4-1.388H-3.8A1.054,1.054,0,0,0-4.946-3.819c-.007.43,0,.868,0,1.3-.007.987.349,1.343,1.328,1.343Zm2.36,29.591a2.363,2.363,0,1,0-2.352,2.374A2.382,2.382,0,0,0,15.281,28.414Z" fill="#ff692b"/>
    <path id="Path_402" data-name="Path 402" d="M322.9,95.6V89.7a1.537,1.537,0,0,1,1.7-1.7h4.526a1.527,1.527,0,0,1,1.662,1.655c0,.386.007.764,0,1.15a.547.547,0,0,1-.549.608.566.566,0,0,1-.571-.6c-.015-.393-.007-.794,0-1.187a.432.432,0,0,0-.49-.5c-1.543,0-3.094-.007-4.638,0-.386,0-.512.148-.512.557v11.8c0,.519.1.623.631.623H329c.594,0,.668-.074.668-.653V93.357c0-.171-.007-.393.089-.49a.825.825,0,0,1,.579-.267c.163.022.319.252.438.416.059.089.022.237.022.364v8.088a1.545,1.545,0,0,1-1.773,1.759h-4.415a1.528,1.528,0,0,1-1.7-1.692Q322.9,98.574,322.9,95.6Z" transform="translate(-304.496 -87.025)" fill="#ff692b"/>
    <path id="Path_403" data-name="Path 403" d="M195.859,149.351v-3.888a1.507,1.507,0,0,1,1.64-1.632c1.529-.007,3.064-.007,4.593,0a1.513,1.513,0,0,1,1.647,1.632c.007,2.6.007,5.216,0,7.821a1.511,1.511,0,0,1-1.64,1.632c-1.529.007-3.064.007-4.593,0a1.511,1.511,0,0,1-1.647-1.662C195.851,151.948,195.859,150.65,195.859,149.351Zm6.76.03v-3.9c0-.4-.134-.534-.527-.534h-4.556c-.423,0-.549.126-.549.557v7.709c0,.453.111.571.564.571h4.482c.482,0,.586-.1.586-.586Z" transform="translate(-186.878 -138.708)" fill="#ff692b"/>
    <path id="Path_404" data-name="Path 404" d="M72.678,215.919c-.779,0-1.558.007-2.337,0a1.5,1.5,0,0,1-1.61-1.625c-.007-.987-.007-1.974,0-2.968a1.494,1.494,0,0,1,1.6-1.6q2.337-.011,4.667,0a1.51,1.51,0,0,1,1.618,1.625c.007.987.007,1.974,0,2.968a1.511,1.511,0,0,1-1.6,1.6C74.236,215.926,73.457,215.919,72.678,215.919Zm.015-5.06h-2.3c-.408,0-.534.119-.542.519-.007.965,0,1.929,0,2.894,0,.408.126.527.534.527h4.563c.408,0,.542-.126.542-.519q.011-1.447,0-2.894c0-.393-.134-.527-.542-.527C74.2,210.851,73.45,210.858,72.693,210.858Z" transform="translate(-69.18 -199.718)" fill="#ff692b"/>
  </g>
</svg>
