<svg xmlns="http://www.w3.org/2000/svg" width="37.01" height="37.016" viewBox="0 0 37.01 37.016">
  <g id="social-media" transform="translate(-58 -58.656)">
    <path id="Path_320" data-name="Path 320" d="M58,69.066a6.23,6.23,0,0,1,.627-1.072,1.944,1.944,0,0,1,1.574-.57H74.952V60.9a2.01,2.01,0,0,1,2.23-2.24h10.3c.454,0,.656.164.666.531a.514.514,0,0,1-.492.55c-.106.01-.212,0-.328,0H77.211c-.869,0-1.168.3-1.168,1.178v6.468c.222.048.405.068.589.126a1.98,1.98,0,0,1,1.419,1.96c.01,1.168,0,2.336,0,3.5v.444H78.5q4.894,0,9.789-.01a1.121,1.121,0,0,1,.9.367,16.737,16.737,0,0,0,1.631,1.554V74.241c0-.676.154-.83.83-.83.434,0,.869.01,1.3,0a.882.882,0,0,0,.956-.936q.014-5.894,0-11.777a.9.9,0,0,0-.956-.956c-.714-.01-1.419,0-2.133,0-.415,0-.627-.183-.627-.521,0-.357.212-.55.647-.56.724,0,1.448-.01,2.172,0A1.972,1.972,0,0,1,95,60.668q.014,5.923,0,11.855a1.961,1.961,0,0,1-1.96,1.989c-.357.01-.714,0-1.129,0v2.153a.545.545,0,0,1-.338.579.555.555,0,0,1-.647-.174c-.666-.676-1.371-1.323-2.008-2.027a1.542,1.542,0,0,0-1.284-.531c-3.031.029-6.072.01-9.1.01h-.444V77.05H86.8a2,2,0,0,1,2.114,1.593,2.5,2.5,0,0,1,.039.541V90.777a2,2,0,0,1-2.124,2.133h-.975c0,.7-.01,1.361.01,2.018a.719.719,0,0,1-.386.743h-.357c-.83-.821-1.66-1.631-2.481-2.471a.89.89,0,0,0-.724-.3q-5.4.014-10.8.01a2,2,0,0,1-2.2-2.191V83.335a1.026,1.026,0,0,0-.193-.029c-1.284,0-2.578-.01-3.861.01a.63.63,0,0,0-.4.183c-.763.753-1.525,1.506-2.278,2.269-.2.2-.405.386-.724.251s-.338-.4-.338-.685c.01-.656,0-1.323,0-2.027H60.085a1.84,1.84,0,0,1-1.506-.647,7.075,7.075,0,0,1-.55-.994C58,77.455,58,73.266,58,69.066ZM84.663,93.741c.029-.01.068-.029.1-.039,0-.415-.01-.84,0-1.255.01-.434.193-.618.618-.627s.869,0,1.3,0c.859,0,1.168-.309,1.168-1.178v-11.3c0-.907-.3-1.207-1.207-1.207H71.187c-.917,0-1.207.3-1.207,1.216V90.613c0,.917.29,1.216,1.207,1.216q5.546,0,11.092-.01a1.066,1.066,0,0,1,.859.357C83.621,92.7,84.142,93.22,84.663,93.741ZM68.87,80.583c-.154.068-.261.1-.357.145a.909.909,0,0,1-.985,0c-.656-.367-1.332-.714-1.989-1.091-.386-.222-.463-.5-.261-.8s.473-.319.85-.106c.541.309,1.091.618,1.641.9a.84.84,0,0,0,1.129-.666,1.939,1.939,0,0,1,1.738-1.9c.357-.048.724-.01,1.081-.039a.6.6,0,0,0,.367-.154,4.66,4.66,0,0,0,1.2-2.761,2.54,2.54,0,0,0-1.767-2.674,2.457,2.457,0,0,0-2.944,1.149c-.338.57-.724.531-1.129-.01a3.509,3.509,0,0,0-1.023-.975,2.29,2.29,0,0,0-2.587.174A2.59,2.59,0,0,0,62.788,74.4a4.973,4.973,0,0,0,1.149,2.452.5.5,0,0,1-.077.763.519.519,0,0,1-.763-.1,5.58,5.58,0,0,1-1.429-3.9,3.638,3.638,0,0,1,4.161-3.369A3.746,3.746,0,0,1,68,71.461c.077-.068.135-.126.193-.183a3.577,3.577,0,0,1,5.937,1.371,4.684,4.684,0,0,1-.589,4.006c-.058.106-.126.212-.193.338h3.562a.863.863,0,0,0,.019-.106c0-2.481.01-4.962,0-7.443,0-.618-.367-.946-1.033-.946H60.076a.925.925,0,0,0-1.023,1.033V81.162a.922.922,0,0,0,.994,1.023c.4.01.792,0,1.187,0,.782,0,.907.116.907.888v1.11c.57-.57,1.062-1.033,1.525-1.545a1.321,1.321,0,0,1,1.1-.463c1.226.029,2.452.01,3.688.01.126,0,.251-.01.376-.019C68.87,81.635,68.87,81.134,68.87,80.583Z" transform="translate(0)" fill="#ff692b"/>
    <path id="Path_321" data-name="Path 321" d="M282.375,94.325a1.427,1.427,0,0,1-1.467.763c-.2-.01-.405,0-.618,0a1.292,1.292,0,0,1-1.361-1.294c-.029-1.844-.019-3.678,0-5.522a1.287,1.287,0,0,1,1.361-1.294c.183,0,.357.01.541,0a1.522,1.522,0,0,1,1.506.676,5.4,5.4,0,0,0,.454-.589c.454-.821.9-1.651,1.323-2.481a.72.72,0,0,1,.792-.425,1.968,1.968,0,0,1,1.738,1.873,10.826,10.826,0,0,1,0,1.12c-.019.338.126.444.444.434.589-.019,1.178-.01,1.767,0a1.533,1.533,0,0,1,1.554,2.018c-.309,1.178-.618,2.346-.936,3.524a1.65,1.65,0,0,1-1.709,1.313c-1.5,0-2.983.01-4.479,0C282.993,94.412,282.7,94.364,282.375,94.325Zm2.587-9.045c-.434.811-.821,1.612-1.284,2.365a3.029,3.029,0,0,1-.9.888.521.521,0,0,0-.29.492c.01,1.236.029,2.481-.01,3.717a.469.469,0,0,0,.473.56,1.82,1.82,0,0,0,.328.019h4.4a.634.634,0,0,0,.743-.57c.3-1.11.589-2.23.878-3.35.154-.589.01-.772-.608-.772s-1.255.01-1.873-.01a1.285,1.285,0,0,1-1.284-1.294c-.01-.405,0-.821-.01-1.226A.835.835,0,0,0,284.962,85.28Zm-4.952,5.783V93.08c0,1.052-.077.907.936.917.425,0,.473-.048.473-.483V89c0-1.091.1-.936-.975-.956-.338-.01-.444.135-.434.454Z" transform="translate(-199.585 -23.039)" fill="#ff692b"/>
    <path id="Path_322" data-name="Path 322" d="M256.72,313.1a1.878,1.878,0,0,1,1.911,1.931,1.943,1.943,0,0,1-1.931,1.9,1.914,1.914,0,0,1-1.9-1.911A1.856,1.856,0,0,1,256.72,313.1Zm-.84,1.882a.808.808,0,0,0,.8.84.826.826,0,1,0-.8-.84Z" transform="translate(-177.801 -229.881)" fill="#ff692b"/>
    <path id="Path_323" data-name="Path 323" d="M210.132,315.011a1.916,1.916,0,0,1-3.833.01,1.878,1.878,0,0,1,1.921-1.921A1.851,1.851,0,0,1,210.132,315.011Zm-1.081-.019a.816.816,0,0,0-.83-.821.83.83,0,1,0,.029,1.66A.814.814,0,0,0,209.051,314.992Z" transform="translate(-133.983 -229.881)" fill="#ff692b"/>
    <path id="Path_324" data-name="Path 324" d="M305.011,313.1a1.873,1.873,0,0,1,1.931,1.911,1.921,1.921,0,0,1-3.842.029A1.875,1.875,0,0,1,305.011,313.1Zm-.821,1.892a.816.816,0,0,0,.811.84.83.83,0,1,0,.019-1.66A.816.816,0,0,0,304.191,314.991Z" transform="translate(-221.439 -229.881)" fill="#ff692b"/>
    <path id="Path_325" data-name="Path 325" d="M218.359,325.86a.839.839,0,0,1-.859-.84.828.828,0,0,1,.83-.821" transform="translate(-144.102 -239.91)" fill="#ff692b"/>
  </g>
</svg>
