<svg xmlns="http://www.w3.org/2000/svg" width="37.241" height="37.22" viewBox="0 0 37.241 37.22">
  <g id="speedometer" transform="translate(-45 -45)">
    <path id="Path_405" data-name="Path 405" d="M64.7,45c.71.091,1.411.164,2.122.282A18.628,18.628,0,0,1,81.9,60.115,18.62,18.62,0,0,1,46.1,69.93a17.89,17.89,0,0,1-1.038-4.88c-.009-.118-.046-.237-.064-.346V62.519c.091-.71.164-1.42.291-2.112a18.63,18.63,0,0,1,4.088-8.778.6.6,0,0,1,.719-.264c.355.146.428.546.155.911-.446.619-.929,1.211-1.348,1.848a16.942,16.942,0,0,0-2.677,7.439A17.325,17.325,0,0,0,58.476,80.338c6.711,1.967,12.675.41,17.664-4.516a16.4,16.4,0,0,0,4.88-10.407,17.079,17.079,0,0,0-5.154-14.286,16.737,16.737,0,0,0-9.816-4.853,17.2,17.2,0,0,0-13.886,4.079c-.146.127-.291.264-.437.382a.548.548,0,0,1-.783-.009.539.539,0,0,1,.073-.8c.683-.565,1.348-1.147,2.076-1.648a18.105,18.105,0,0,1,9.133-3.205c.091-.009.191-.036.282-.055C63.247,45,63.975,45,64.7,45Z" fill="#ff692b"/>
    <path id="Path_406" data-name="Path 406" d="M97,83.206c-.51.574-1.02,1.165-1.539,1.748a1.64,1.64,0,0,1-.337.328.482.482,0,0,1-.665-.046.494.494,0,0,1-.1-.656,1.99,1.99,0,0,1,.246-.319c1.175-1.338,2.358-2.668,3.533-4.006.091-.1.219-.191.255-.31a.631.631,0,0,0,0-.483c-.127-.191-.337-.146-.51-.009-.036.027-.073.064-.109.091l-7.6,6.7a2.325,2.325,0,0,1-.237.173A2.781,2.781,0,0,1,91.394,87.9c.464-.528.892-1.011,1.32-1.493.046-.055.1-.109.146-.164.355-.392.656-.464.929-.209s.219.555-.127.947c-.455.519-.92,1.038-1.366,1.557A5.524,5.524,0,0,0,91.3,89.98a2.5,2.5,0,0,1-2.85,1.42,2.594,2.594,0,0,1-.246-5.017,1.161,1.161,0,0,0,.382-.191q3-2.636,6-5.281c.027-.027.046-.055.091-.109a7.192,7.192,0,0,0-2.122-1.156,9.611,9.611,0,0,0-10.508,2.213A9.854,9.854,0,0,0,81.7,95.535c.091.1.182.191.264.3a.542.542,0,0,1-.027.838q-1.735,1.762-3.5,3.5a.572.572,0,0,1-.92-.036,15.66,15.66,0,0,1-4.389-8.6,15.973,15.973,0,0,1,8.122-16.754,15.161,15.161,0,0,1,8.914-1.921,15.7,15.7,0,0,1,13.212,8.923,15.131,15.131,0,0,1,1.593,8.3,15.781,15.781,0,0,1-4.48,9.952c-.419.437-.674.437-1.1.018-1.1-1.093-2.194-2.194-3.287-3.287-.4-.4-.419-.637-.027-1.047a9.923,9.923,0,0,0,1.047-12.438.589.589,0,0,0-.073-.082C97.067,83.215,97.048,83.215,97,83.206Zm-16.189,13a10.946,10.946,0,0,1-2.8-6.756H74.03a14.87,14.87,0,0,0,3.961,9.579C78.929,98.084,79.858,97.155,80.814,96.208Zm23.127-6.756H99.98c-.574,3.733-1.038,4.452-2.8,6.756.938.938,1.867,1.867,2.814,2.8A14.907,14.907,0,0,0,103.941,89.452Zm-22.3-8.723A10.979,10.979,0,0,1,88.4,77.916v-4A14.889,14.889,0,0,0,78.82,77.9C79.767,78.854,80.7,79.782,81.642,80.729Zm-3.615-1.994c-2.085,1.748-4.307,7.111-3.961,9.57h3.952a10.968,10.968,0,0,1,2.8-6.765C79.876,80.584,78.956,79.655,78.028,78.735Zm17.519,1.338c.528-.464,1.029-.911,1.539-1.357a1.369,1.369,0,0,1,1.257-.428c.446.118.6-.127.819-.4a14.951,14.951,0,0,0-9.6-3.979v4A11,11,0,0,1,95.546,80.074Zm2.24,2.24a10.96,10.96,0,0,1,2.167,5.991h4a14.964,14.964,0,0,0-4.043-9.67c-.137.255-.373.483-.337.665a1.679,1.679,0,0,1-.455,1.53C98.66,81.312,98.232,81.8,97.786,82.314Zm-8.778,5.053a1.512,1.512,0,1,0-.036,3.023,1.512,1.512,0,0,0,.036-3.023Z" transform="translate(-25.37 -25.267)" fill="#ff692b"/>
    <path id="Path_407" data-name="Path 407" d="M229.333,376.073a2.515,2.515,0,0,1-1.921-.774.528.528,0,0,1-.055-.774.555.555,0,0,1,.783-.018,1.463,1.463,0,0,0,2.194-.009.547.547,0,0,1,.783.027.528.528,0,0,1-.064.774A2.338,2.338,0,0,1,229.333,376.073Z" transform="translate(-165.622 -299.359)" fill="#ff692b"/>
    <path id="Path_408" data-name="Path 408" d="M178.47,364.556c0,.191.018.392,0,.583a.516.516,0,0,1-.555.5.5.5,0,0,1-.519-.5,8.165,8.165,0,0,1,0-1.156.486.486,0,0,1,.528-.483.51.51,0,0,1,.537.483,3.978,3.978,0,0,1,.009.574Z" transform="translate(-120.322 -289.5)" fill="#ff692b"/>
    <path id="Path_409" data-name="Path 409" d="M310.361,364.453c0,.191.018.392,0,.583a.528.528,0,0,1-.546.51.5.5,0,0,1-.519-.5,8.17,8.17,0,0,1,0-1.156.5.5,0,0,1,.528-.492.529.529,0,0,1,.546.519C310.379,364.089,310.361,364.271,310.361,364.453Z" transform="translate(-240.212 -289.406)" fill="#ff692b"/>
    <path id="Path_410" data-name="Path 410" d="M235.724,249.146a1.571,1.571,0,0,1-1.53,1.5,1.537,1.537,0,0,1-1.5-1.548" transform="translate(-170.602 -185.516)" fill="#ff692b"/>
  </g>
</svg>
