<svg xmlns="http://www.w3.org/2000/svg" width="38.01" height="37.78" viewBox="0 0 38.01 37.78">
  <g id="Group_1789" data-name="Group 1789" transform="translate(-104 -1757.629)">
    <g id="alarm-clock" transform="translate(104 1757.629)">
      <path id="Path_384" data-name="Path 384" d="M58,67.445c.1-.436.159-.873.3-1.3a6.88,6.88,0,0,1,5.385-4.978A6.768,6.768,0,0,1,70.555,63.5a.406.406,0,0,0,.5.139c.813-.248,1.626-.506,2.459-.694.347-.079.476-.2.516-.555a2.965,2.965,0,0,1,2.856-2.628,3.022,3.022,0,0,1,3.064,2.3.184.184,0,0,1,.02.069c-.079.664.337.764.873.873.813.169,1.617.446,2.45.684a6.608,6.608,0,0,1,2.6-2.053,6.955,6.955,0,0,1,7.17.734,6.882,6.882,0,0,1,2.906,6.625,6.568,6.568,0,0,1-2.5,4.592c-.238.188-.188.347-.109.575a17.156,17.156,0,0,1-1.845,15.1c-.208.337-.446.655-.684.972s-.486.615-.754.962a3.279,3.279,0,0,1,2.162,1.755,3.108,3.108,0,0,1,.218,2.132,3.227,3.227,0,0,1-3.114,2.45c-1.636,0-2.816-1.071-3.233-2.975a17.348,17.348,0,0,1-18.168,0c-.486,1.964-1.646,3-3.273,2.975a3.2,3.2,0,0,1-3.1-2.588c-.337-1.626.466-2.906,2.39-3.778-.228-.288-.466-.575-.684-.863a17.02,17.02,0,0,1-3.481-11.6,16.581,16.581,0,0,1,.932-4.6.383.383,0,0,0-.129-.506,6.737,6.737,0,0,1-2.5-4.483,1.266,1.266,0,0,0-.069-.278C58,68.387,58,67.921,58,67.445Zm18.991-3.382A15.8,15.8,0,1,0,92.809,79.841,15.829,15.829,0,0,0,76.991,64.063Zm-7.646.288a5.435,5.435,0,0,0-5.464-1.7A5.667,5.667,0,0,0,61.392,72.4,17.666,17.666,0,0,1,69.345,64.351Zm23.266,8.063a5.46,5.46,0,0,0,1.716-5.643,5.657,5.657,0,0,0-9.669-2.41,17.511,17.511,0,0,1,7.954,8.053ZM66.4,94.37a1.716,1.716,0,1,0-1.736,1.7A1.725,1.725,0,0,0,66.4,94.37Zm21.213-.01a1.716,1.716,0,1,0,1.706-1.726A1.718,1.718,0,0,0,87.613,94.36ZM75.5,62.605H78.5a1.5,1.5,0,0,0-2.995,0Z" transform="translate(-58 -59.754)" fill="#ff692b"/>
      <path id="Path_385" data-name="Path 385" d="M128.078,154.366a13.383,13.383,0,1,1,13.378-13.378A13.393,13.393,0,0,1,128.078,154.366Zm.744-1.507a11.828,11.828,0,0,0,8.2-4.046,11.665,11.665,0,0,0,2.935-7.1h-.684c-.536-.01-.873-.3-.873-.744a.778.778,0,0,1,.853-.734c.228-.01.456,0,.684,0a11.883,11.883,0,0,0-11.127-11.107c0,.258.01.516,0,.774a.739.739,0,1,1-1.478-.01c-.01-.258,0-.506,0-.764a11.823,11.823,0,0,0-11.087,11.117c.268,0,.545-.02.813,0a.74.74,0,0,1-.069,1.478c-.258.01-.516,0-.764,0a11.839,11.839,0,0,0,11.117,11.107c0-.258-.01-.516,0-.774a.754.754,0,0,1,.724-.754.747.747,0,0,1,.754.754C128.832,152.3,128.822,152.552,128.822,152.859Z" transform="translate(-109.077 -120.872)" fill="#ff692b"/>
      <path id="Path_386" data-name="Path 386" d="M243.548,184.645h5.236a2.267,2.267,0,0,1,.367.01.723.723,0,0,1,.645.8.712.712,0,0,1-.754.664q-3.094.015-6.2,0a.715.715,0,0,1-.783-.783c-.01-2.549,0-5.1,0-7.646a.745.745,0,1,1,1.488,0c.01,2.152,0,4.3,0,6.456Z" transform="translate(-223.802 -165.282)" fill="#ff692b"/>
    </g>
  </g>
</svg>
