<svg xmlns="http://www.w3.org/2000/svg" width="39.135" height="37.275" viewBox="0 0 39.135 37.275">
  <g id="traits" transform="translate(-62.3 -71.7)">
    <path id="Path_411" data-name="Path 411" d="M65.856,277.8a1.214,1.214,0,0,0-.417.073c-.24.073-.48.156-.72.24-.459.156-.928.313-1.408.448a1.368,1.368,0,0,0-1.012.761v.438c.334.647.584.7.834.7a2.371,2.371,0,0,0,.7-.136c.167-.052.334-.1.511-.167.553-.177,1.116-.355,1.669-.542a.937.937,0,0,0,.709-1.2A.859.859,0,0,0,65.856,277.8Z" transform="translate(0 -184.605)" fill="#ff692b"/>
    <path id="Path_412" data-name="Path 412" d="M137.137,105.288c-2.086-.323-4.193-.626-6.362-.928a1,1,0,0,1-.845-.594c-.939-1.94-1.9-3.859-2.7-5.486a3.439,3.439,0,0,0-.4-.657,2.638,2.638,0,0,0-2.086-1.022h0a2.725,2.725,0,0,0-2.441,1.523c-.928,1.836-1.846,3.713-2.733,5.538l-.063.125a.952.952,0,0,1-.814.584l-.24.031c-1.909.261-3.88.542-5.809.845a3.427,3.427,0,0,0-1.293.448,2.541,2.541,0,0,0-1.2,1.909,2.76,2.76,0,0,0,.814,2.263c1.293,1.283,2.628,2.576,3.922,3.828l.574.553a1.02,1.02,0,0,1,.334.98c-.344,1.888-.7,3.9-1.012,5.945a3.905,3.905,0,0,0,.031,1.491,2.635,2.635,0,0,0,2.555,1.94,2.947,2.947,0,0,0,1.418-.375c.96-.532,1.95-1.043,2.91-1.544.772-.407,1.575-.824,2.368-1.252a1.337,1.337,0,0,1,.678-.188,1.451,1.451,0,0,1,.678.188c1.544.834,3.212,1.71,5.4,2.847a2.794,2.794,0,0,0,1.293.344,2.625,2.625,0,0,0,1.575-.563,2.534,2.534,0,0,0,1.043-2.618c-.3-1.836-.667-4-1.064-6.216a.963.963,0,0,1,.313-.949c.907-.876,1.815-1.763,2.7-2.628.594-.574,1.179-1.147,1.773-1.731a2.607,2.607,0,0,0,.866-1.961A2.662,2.662,0,0,0,137.137,105.288Zm-.063,3.379c-1.46,1.439-3.181,3.139-4.923,4.8a1.344,1.344,0,0,0-.428,1.345c.448,2.482.866,4.964,1.168,6.842a.805.805,0,0,1-.834,1.043,1.2,1.2,0,0,1-.521-.115l-.063-.031c-1.95-1-3.953-2.044-5.914-3.108a1.761,1.761,0,0,0-.834-.25,1.6,1.6,0,0,0-.8.24c-1.5.824-3.035,1.627-4.526,2.4-.49.261-.98.511-1.481.772a1.258,1.258,0,0,1-.563.146.827.827,0,0,1-.594-.24.891.891,0,0,1-.24-.636v-.031l.01-.031.115-.709c.094-.563.188-1.116.282-1.679l.156-.9c.219-1.252.438-2.555.667-3.838a1.178,1.178,0,0,0-.4-1.168c-1.179-1.137-2.368-2.295-3.515-3.41l-1.325-1.293c-.01-.01-.031-.021-.042-.031a1.068,1.068,0,0,1-.24-.271.423.423,0,0,0-.052-.094.884.884,0,0,1-.136-.751,1.1,1.1,0,0,1,.772-.594c.678-.115,1.366-.209,2.023-.3.271-.042.532-.073.8-.115l.428-.063c1.272-.188,2.6-.375,3.9-.563a1,1,0,0,0,.793-.647c.73-1.5,1.491-3.025,2.211-4.5.271-.553.542-1.106.824-1.658a.176.176,0,0,1,.021-.052.77.77,0,0,1,.2-.313l.063-.063a.9.9,0,0,1,.626-.334h.031a1.05,1.05,0,0,1,.793.511c.271.511.532,1.043.782,1.554.094.2.188.386.282.584.209.417.417.845.626,1.262.48.97.98,1.982,1.46,2.972a1.151,1.151,0,0,0,.97.7c2.086.292,4.287.6,6.915,1.012a1.055,1.055,0,0,1,.855.626A1.142,1.142,0,0,1,137.074,108.667Z" transform="translate(-42.849 -22.303)" fill="#ff692b"/>
    <path id="Path_413" data-name="Path 413" d="M398.6,278.707c-.939-.334-1.888-.626-2.607-.855a1.311,1.311,0,0,0-.344-.052.886.886,0,0,0-.866.626.914.914,0,0,0,.667,1.179c.866.282,1.648.542,2.4.782a2.711,2.711,0,0,0,.323.073c.021,0,.031.01.042.01a.936.936,0,0,0,.96-.751A.857.857,0,0,0,398.6,278.707Z" transform="translate(-297.761 -184.605)" fill="#ff692b"/>
    <path id="Path_414" data-name="Path 414" d="M126.529,75.45a.951.951,0,0,0,.9.365h.01a.833.833,0,0,0,.615-.459.814.814,0,0,0-.042-.949c-.584-.824-1.106-1.554-1.617-2.221a.936.936,0,0,0-.73-.386.914.914,0,0,0-.73,1.46C125.465,74,126.018,74.741,126.529,75.45Z" transform="translate(-55.937 -0.09)" fill="#ff692b"/>
    <path id="Path_415" data-name="Path 415" d="M343.162,75.715h.031a.775.775,0,0,0,.636-.271c.563-.741,1.158-1.544,1.721-2.378a.877.877,0,0,0-.25-1.189.968.968,0,0,0-.553-.177.83.83,0,0,0-.667.323c-.532.688-1.085,1.45-1.7,2.347a.785.785,0,0,0-.01.887A.815.815,0,0,0,343.162,75.715Z" transform="translate(-250.741)" fill="#ff692b"/>
    <path id="Path_416" data-name="Path 416" d="M242.14,381.917a.908.908,0,0,0-.907.907c-.01.855-.01,1.752,0,2.722a.915.915,0,0,0,.9.918h.01a.9.9,0,0,0,.907-.918c.01-.313,0-.636,0-.939v-1.773a.917.917,0,0,0-.907-.918h0l1.669-.417h0Z" transform="translate(-160.264 -277.489)" fill="#ff692b"/>
  </g>
</svg>
