<?xml version="1.0" encoding="utf-8"?>
<!-- Generator: Adobe Illustrator 26.0.3, SVG Export Plug-In . SVG Version: 6.00 Build 0)  -->
<svg version="1.1" id="Layer_1" xmlns="http://www.w3.org/2000/svg" xmlns:xlink="http://www.w3.org/1999/xlink" x="0px" y="0px"
	 viewBox="0 0 26 18.3" style="enable-background:new 0 0 26 18.3;" xml:space="preserve" width="26" height="26">
<g>
	<path d="M0,2c0-0.1,0.1-0.3,0.1-0.4C0.4,0.6,1.3,0,2.3,0c1.6,0,3.2,0,4.8,0c5.5,0,11,0,16.5,0c1.2,0,2,0.7,2.3,1.7
		C26,1.9,26,2.2,26,2.4c0,4.5,0,9,0,13.5c0,1.4-1,2.4-2.4,2.4c-7.1,0-14.1,0-21.2,0c-1.3,0-2.1-0.7-2.4-1.9c0,0,0-0.1,0-0.1
		C0,11.5,0,6.8,0,2z M2.7,1.5c0.1,0.1,0.1,0.1,0.2,0.2c3.2,3.2,6.3,6.3,9.5,9.5c0.5,0.5,0.9,0.5,1.4,0c3.2-3.2,6.3-6.3,9.5-9.5
		c0,0,0.1-0.1,0.2-0.2C16.4,1.5,9.6,1.5,2.7,1.5z M2.7,16.7c6.9,0,13.8,0,20.7,0c-2.2-2.2-4.4-4.3-6.5-6.5c0,0-0.1,0.1-0.2,0.2
		c-0.6,0.6-1.3,1.3-1.9,1.9c-1,1-2.5,1-3.5,0c-0.4-0.4-0.8-0.8-1.1-1.2c-0.3-0.3-0.6-0.6-0.9-0.9C7,12.4,4.8,14.6,2.7,16.7z
		 M1.5,2.7c0,4.3,0,8.6,0,12.9c2.2-2.1,4.3-4.3,6.5-6.5C5.9,7,3.7,4.8,1.5,2.7z M24.5,2.7C22.3,4.8,20.1,7,18,9.2
		c2.2,2.1,4.3,4.3,6.5,6.4C24.5,11.3,24.5,7,24.5,2.7z"/>
</g>
</svg>
