<?xml version="1.0" encoding="utf-8"?>
<!-- Generator: Adobe Illustrator 26.0.3, SVG Export Plug-In . SVG Version: 6.00 Build 0)  -->
<svg version="1.1" id="Layer_1" xmlns="http://www.w3.org/2000/svg" xmlns:xlink="http://www.w3.org/1999/xlink" x="0px" y="0px"
	 viewBox="80 50 350 400" style="enable-background:new 0 0 350 300;" xml:space="preserve">
<g>
	<path d="M86,337.7c0-58.8,0-117.5,0-176.3c0.4-2.3,0.8-4.6,1.2-6.8c5.7-30,22.7-51,50.8-62.6c7.4-3,15.5-4,23.4-5.9
		c58.8,0,117.5,0,176.3,0c6.1,1.3,12.4,2,18.3,4c34.4,11.2,56.9,42,57,78.3c0.1,54.2,0.1,108.4,0,162.5c0,17.4-4.8,33.4-15.1,47.5
		c-17,23.3-40.2,34.7-69,34.7c-52.6,0-105.2,0-157.7-0.1c-5.5,0-11.1-0.3-16.5-1.2c-30.2-5.5-51.3-22.7-62.8-51
		C88.9,353.5,87.9,345.4,86,337.7z M249.3,385.6c0,0,0,0.1,0,0.1c26.6,0,53.2,0.2,79.8-0.1c6.6-0.1,13.5-0.8,19.7-2.9
		c23.1-7.8,36.8-28,36.9-53c0-53.4,0-106.9,0-160.3c0-4.3-0.3-8.8-1.2-13c-5.8-25.8-27-42.9-53.8-43c-54.1-0.2-108.1,0-162.2-0.1
		c-8.1,0-16,1.3-23.2,4.9c-21.2,10.5-31.9,27.7-31.9,51.3c-0.1,53.3,0,106.7,0,160c0,3.6,0.3,7.2,0.8,10.8
		c3.2,23.8,25.9,44.8,49.9,45.2C192.4,385.9,220.9,385.6,249.3,385.6z"/>
	<path d="M250,167.8c45.3,0.4,81.9,37.5,81.3,82.3c-0.6,45.2-37.4,81.6-82.2,81.2c-45.3-0.5-81.9-37.5-81.3-82.3
		C168.4,203.7,205.2,167.3,250,167.8z M249.6,304c30.1,0,54.4-24.3,54.4-54.4c0-30.1-24.2-54.4-54.3-54.5
		c-30.2-0.1-54.7,24.4-54.6,54.6C195.2,279.8,219.5,304,249.6,304z"/>
	<path d="M338.1,181.3c-11.2,0-20.2-9-20.3-20.2c-0.1-11.3,9.1-20.6,20.4-20.6c11.1,0,20.2,9.1,20.4,20.3
		C358.7,172,349.4,181.3,338.1,181.3z"/>
</g>
</svg>
