<?xml version="1.0" encoding="utf-8"?>
<!-- Generator: Adobe Illustrator 26.0.2, SVG Export Plug-In . SVG Version: 6.00 Build 0)  -->
<svg version="1.1" id="Layer_1" xmlns="http://www.w3.org/2000/svg" xmlns:xlink="http://www.w3.org/1999/xlink" x="0px" y="0px"
	 viewBox="0 0 500 500" style="enable-background:new 0 0 500 500;" xml:space="preserve">
<style type="text/css">
	.st0{fill:none;}
</style>
<g>
	<path class="st0" d="M94,264.2H34.3c2.9,44.9,19.8,87.2,48.7,121.6c11.3-10.1,23.4-19,36.1-26.7C104.4,329.7,95.9,297.6,94,264.2z"
		/>
	<path class="st0" d="M407.2,231.8h59.7c-3.7-42.4-19.9-82.1-46.9-114.9c-11.4,10.3-23.6,19.4-36.4,27.3
		C396.8,171.4,404.8,201.1,407.2,231.8z"/>
	<path class="st0" d="M270.1,146.9c23.8-1.5,46.8-6.8,68.3-15.9c-7.2-10.5-15.5-20.4-24.6-29.5c-13.2-13.2-27.9-24.5-43.7-33.6v77.9
		V146.9z"/>
	<path class="st0" d="M270.1,324.6c29.2,1.5,57.4,8.2,83.6,19.6c12.3-24.8,19.6-51.8,21.4-80h-105V324.6z"/>
	<path class="st0" d="M270.1,231.8h104.6c-2.2-25.5-9-50-19.9-72.6c-26.5,11.7-55.1,18.5-84.7,20.1V231.8z"/>
	<path class="st0" d="M270.1,358.1v75.1c15.8-9.1,30.5-20.4,43.7-33.6c8.5-8.5,16.2-17.7,23.1-27.3c-21.1-8.6-43.6-13.8-66.8-15.2
		V358.1z"/>
	<path class="st0" d="M336.7,422.4c-14,14-29.5,26.1-46,36.2c39-6.2,75.3-23.3,105.3-49.7c-9.4-8.3-19.4-15.6-29.9-22
		C357.5,399.5,347.7,411.4,336.7,422.4z"/>
	<path class="st0" d="M231.4,357c-23.2,1.4-45.7,6.6-66.8,15.2c6.8,9.6,14.6,18.8,23.1,27.3c13.2,13.2,27.9,24.5,43.7,33.6v-75.1
		V357z"/>
	<path class="st0" d="M135.5,386.9c-10.5,6.4-20.5,13.7-29.9,22c30,26.4,66.2,43.4,105.3,49.7c-16.5-10-32-22.1-46-36.2
		C153.8,411.4,144,399.5,135.5,386.9z"/>
	<path class="st0" d="M367.4,116.1c10.6-6.6,20.7-14.1,30.1-22.6c-30.3-27.2-67.2-44.7-106.9-51.1c16.5,10,32,22.1,46,36.2
		C348.3,90.2,358.5,102.8,367.4,116.1z"/>
	<path class="st0" d="M382.4,359c12.7,7.7,24.8,16.6,36.1,26.7c28.9-34.4,45.8-76.6,48.7-121.6h-59.7
		C405.6,297.6,397.1,329.7,382.4,359z"/>
	<path class="st0" d="M126.4,264.2c1.8,28.2,9.1,55.2,21.4,80c26.2-11.4,54.4-18,83.6-19.6v-60.4H126.4z"/>
	<path class="st0" d="M231.4,179.3c-29.6-1.6-58.2-8.4-84.7-20.1c-10.9,22.6-17.7,47.2-19.9,72.6h104.6V179.3z"/>
	<path class="st0" d="M118,144.2c-12.9-7.9-25.1-17-36.4-27.3c-27,32.8-43.2,72.6-46.9,114.9h59.7C96.7,201.1,104.7,171.4,118,144.2
		z"/>
	<path class="st0" d="M164.8,78.6c14-14,29.5-26.1,46-36.2c-39.7,6.4-76.6,23.9-106.9,51.1c9.4,8.5,19.5,16,30.1,22.6
		C143,102.8,153.2,90.2,164.8,78.6z"/>
	<path class="st0" d="M231.4,145.8V67.9c-15.8,9.1-30.5,20.4-43.7,33.6c-9.2,9.2-17.4,19.1-24.6,29.5c21.5,9,44.6,14.4,68.3,15.9
		V145.8z"/>
	<path d="M104,93.5c30.3-27.2,67.2-44.7,106.9-51.1c6.7-4.1,13.5-7.8,20.5-11.2V16.6c-6.8-1.9-13.6-3.5-20.5-4.9
		c13-2.5,26.4-3.9,39.9-4.3c-2.1-0.1-4.1-0.1-6.2-0.1c-60.8,0-118.3,22.2-163,62.8c4.4,5.3,9.1,10.5,14,15.4
		C98.3,88.3,101.1,91,104,93.5z"/>
	<path d="M236.8,482.8v-6.3h-5.4v-6.7c-7-3.4-13.9-7.1-20.5-11.2c-39-6.2-75.3-23.3-105.3-49.7c-3.4,3-6.8,6.1-10,9.4
		c-4.4,4.4-8.6,9-12.6,13.8c44.6,39.8,101.4,61.5,161.6,61.5c2.1,0,4.1,0,6.2-0.1c-13.5-0.3-26.9-1.8-39.9-4.3
		C219.7,487.6,228.3,485.4,236.8,482.8z"/>
	<path d="M83,385.7c-28.9-34.4-45.8-76.6-48.7-121.6H22.7v-32.3h11.9c3.7-42.4,19.9-82.1,46.9-114.9c-3-2.7-6-5.5-8.9-8.4
		c-4.8-4.8-9.4-9.8-13.7-14.9c-37.2,43.8-57.5,98.8-57.5,157c0,58.8,20.7,114.3,58.7,158.4c4-4.6,8.2-9.1,12.5-13.5
		C76,392.1,79.5,388.9,83,385.7z"/>
	<path d="M231.4,179.3v-1v-31.4c-23.8-1.5-46.8-6.8-68.3-15.9c-6.2,9-11.7,18.4-16.4,28.2C173.2,170.9,201.8,177.7,231.4,179.3z"/>
	<path d="M134.1,116.1c-10.6-6.6-20.7-14.1-30.1-22.6c-2.9,2.6-5.7,5.2-8.4,7.9c-4.9,4.9-9.6,10.1-14,15.4
		c11.4,10.3,23.6,19.4,36.4,27.3C122.7,134.5,128.1,125.1,134.1,116.1z"/>
	<path d="M81.6,116.9c4.4-5.3,9.1-10.5,14-15.4c2.7-2.7,5.5-5.4,8.4-7.9c-2.9-2.6-5.7-5.2-8.4-7.9c-4.9-4.9-9.6-10.1-14-15.4
		c-3,2.7-6,5.5-8.9,8.4c-4.8,4.8-9.4,9.8-13.7,14.9c4.4,5.1,8.9,10.1,13.7,14.9C75.6,111.4,78.6,114.2,81.6,116.9z"/>
	<path d="M231.4,31.3c-7,3.4-13.9,7.1-20.5,11.2c6.8-1.1,13.6-1.8,20.5-2.3V31.3z"/>
	<path d="M210.9,458.6c6.7,4.1,13.5,7.8,20.5,11.2v-8.9C224.5,460.4,217.6,459.6,210.9,458.6z"/>
	<path d="M231.4,325.5v-1c-29.2,1.5-57.4,8.2-83.6,19.6c4.8,9.7,10.4,19.1,16.8,28c21.1-8.6,43.6-13.8,66.8-15.2V325.5z"/>
	<path d="M119.1,359c-12.7,7.7-24.8,16.6-36.1,26.7c4,4.7,8.2,9.3,12.6,13.8c3.3,3.3,6.6,6.4,10,9.4c9.4-8.3,19.4-15.6,29.9-22
		C129.4,378,123.9,368.7,119.1,359z"/>
	<path d="M105.6,408.9c-3.4-3-6.8-6.1-10-9.4c-4.4-4.4-8.6-9-12.6-13.8c-3.5,3.1-6.9,6.3-10.3,9.7c-4.4,4.4-8.5,8.9-12.5,13.5
		c4,4.6,8.2,9.1,12.5,13.5c3.3,3.3,6.8,6.6,10.3,9.7c4-4.7,8.2-9.3,12.6-13.8C98.8,415,102.2,411.9,105.6,408.9z"/>
	<path d="M93.6,250.5c0-6.3,0.2-12.5,0.7-18.7H34.7c-0.5,6.2-0.8,12.4-0.8,18.7c0,4.6,0.2,9.1,0.4,13.7H94
		C93.8,259.6,93.6,255.1,93.6,250.5z"/>
	<path d="M231.4,231.8H126.8c-0.5,6.2-0.8,12.4-0.8,18.7c0,4.6,0.2,9.1,0.4,13.7h105V231.8z"/>
	<path d="M34.7,231.8H22.7v32.3h11.6c-0.3-4.5-0.4-9.1-0.4-13.7C33.8,244.2,34.1,238,34.7,231.8z"/>
	<path d="M146.7,159.2c-9.9-4.3-19.4-9.4-28.7-15c-13.3,27.2-21.3,56.9-23.7,87.7h32.5C129,206.4,135.8,181.8,146.7,159.2z"/>
	<path d="M126.4,264.2H94c1.8,33.4,10.4,65.5,25.1,94.8c9.3-5.6,18.9-10.6,28.8-14.8C135.5,319.4,128.2,292.3,126.4,264.2z"/>
	<path d="M134.1,116.1c9.3,5.7,19,10.7,29,14.9c7.2-10.5,15.5-20.4,24.6-29.5c13.2-13.2,27.9-24.5,43.7-33.6V50.4
		c-6.7-2.2-13.6-4.1-20.5-5.7c6.8-1.5,13.6-2.7,20.5-3.5v-1.1c-6.9,0.4-13.8,1.2-20.5,2.3c-16.5,10-32,22.1-46,36.2
		C153.2,90.2,143,102.8,134.1,116.1z"/>
	<path d="M231.4,459.7c-6.9-0.8-13.8-2-20.5-3.5c7-1.5,13.8-3.4,20.5-5.7v-17.4c-15.8-9.1-30.5-20.4-43.7-33.6
		c-8.5-8.5-16.2-17.7-23.1-27.3c-10.1,4.1-19.8,9-29.2,14.7c8.6,12.6,18.4,24.5,29.4,35.5c14,14,29.5,26.1,46,36.2
		c6.8,1.1,13.6,1.8,20.5,2.3V459.7z"/>
	<path d="M163.1,131c-10-4.2-19.7-9.2-29-14.9c-6,9-11.4,18.4-16.1,28.1c9.2,5.7,18.8,10.7,28.7,15C151.4,149.4,156.8,140,163.1,131
		z"/>
	<path d="M119.1,359c4.8,9.6,10.3,18.9,16.4,27.9c9.3-5.7,19.1-10.6,29.2-14.7c-6.3-8.9-11.9-18.3-16.8-28
		C137.9,348.5,128.3,353.4,119.1,359z"/>
	<path d="M126,250.5c0-6.3,0.3-12.5,0.8-18.7H94.3c-0.5,6.2-0.7,12.4-0.7,18.7c0,4.6,0.1,9.1,0.4,13.7h32.4
		C126.1,259.6,126,255.1,126,250.5z"/>
	<path d="M270.1,231.8v-52.5c-2.1,0.1-4.2,0.2-6.4,0.3v52.3H270.1z"/>
	<path d="M270.1,145.8V67.9c-2.1-1.2-4.2-2.4-6.4-3.5v82.1C265.9,146.3,268,146,270.1,145.8z"/>
	<path d="M263.7,264.2v60.1c2.1,0.1,4.2,0.1,6.4,0.3v-60.4H263.7z"/>
	<path d="M263.7,357.4v79.3c2.1-1.1,4.3-2.3,6.4-3.5v-75.1C268,357.8,265.9,357.6,263.7,357.4z"/>
	<path d="M270.1,145.8c-2.1,0.3-4.2,0.5-6.4,0.7v0.7c2.1-0.1,4.2-0.2,6.4-0.3V145.8z"/>
	<path d="M270.1,358.1V357c-2.1-0.1-4.2-0.2-6.4-0.3v0.7C265.9,357.6,268,357.8,270.1,358.1z"/>
	<path d="M231.4,16.6V14h6.4h26v14.3c9.2,4.1,18.2,8.8,26.9,14.1c39.7,6.4,76.6,23.9,106.9,51.1c2.9-2.6,5.7-5.2,8.4-7.9
		c4.9-4.9,9.6-10.1,14-15.4c-44.8-40.6-102.2-62.8-163-62.8c-2.1,0-4.1,0-6.2,0.1c-13.5,0.3-26.9,1.8-39.9,4.3
		C217.8,13.1,224.6,14.7,231.4,16.6z"/>
	<path d="M395.9,408.9c-30,26.4-66.2,43.4-105.3,49.7c-8.7,5.3-17.7,10-26.9,14.1v3.8h-5.4v8.9h-21.5v-2.5c-8.5,2.6-17.2,4.8-26,6.5
		c13,2.5,26.4,3.9,39.9,4.3c2.1,0.1,4.1,0.1,6.2,0.1c60.2,0,117.1-21.8,161.6-61.5c-4-4.7-8.2-9.3-12.6-13.8
		C402.7,415,399.3,411.9,395.9,408.9z"/>
	<path d="M442.5,93.5c-4.4,5.1-8.9,10.1-13.7,14.9c-2.9,2.9-5.9,5.7-8.9,8.4c27,32.8,43.2,72.6,46.9,114.9h11.9v32.3h-11.6
		c-2.9,44.9-19.8,87.2-48.7,121.6c3.5,3.1,6.9,6.3,10.3,9.7c4.4,4.4,8.5,8.9,12.5,13.5c38-44.1,58.7-99.6,58.7-158.4
		C500,192.4,479.7,137.4,442.5,93.5z"/>
	<path d="M263.7,147.2v32.4c2.1-0.1,4.2-0.1,6.4-0.3c29.6-1.6,58.2-8.4,84.7-20.1c-4.7-9.8-10.2-19.2-16.4-28.2
		c-21.5,9-44.6,14.4-68.3,15.9C268,147,265.9,147.1,263.7,147.2z"/>
	<path d="M397.5,93.5c-9.4,8.5-19.5,16-30.1,22.6c6,9,11.4,18.4,16.1,28.1c12.9-7.9,25.1-17,36.4-27.3c-4.4-5.3-9.1-10.5-14-15.4
		C403.2,98.7,400.4,96.1,397.5,93.5z"/>
	<path d="M397.5,93.5c2.9,2.6,5.7,5.2,8.4,7.9c4.9,4.9,9.6,10.1,14,15.4c3-2.7,6-5.5,8.9-8.4c4.8-4.8,9.4-9.8,13.7-14.9
		c-4.4-5.1-8.9-10.1-13.7-14.9c-2.9-2.9-5.9-5.7-8.9-8.4c-4.4,5.3-9.1,10.5-14,15.4C403.2,88.3,400.4,91,397.5,93.5z"/>
	<path d="M210.9,456.2c6.8,1.5,13.6,2.7,20.5,3.5v-9.2C224.7,452.8,217.8,454.7,210.9,456.2z"/>
	<path d="M210.9,44.8c7,1.5,13.8,3.4,20.5,5.7v-9.2C224.5,42.1,217.6,43.3,210.9,44.8z"/>
	<path d="M290.6,42.4c-8.7-5.3-17.7-10-26.9-14.1v11.5C272.8,40.2,281.8,41,290.6,42.4z"/>
	<path d="M263.7,461.1v11.5c9.2-4.1,18.2-8.8,26.9-14.1C281.8,460,272.8,460.8,263.7,461.1z"/>
	<path d="M270.1,324.6c-2.1-0.1-4.2-0.2-6.4-0.3v32.4c2.1,0.1,4.2,0.2,6.4,0.3c23.2,1.4,45.7,6.6,66.8,15.2
		c6.3-8.9,11.9-18.3,16.8-28C327.5,332.8,299.3,326.1,270.1,324.6z"/>
	<path d="M366,386.9c10.5,6.4,20.5,13.7,29.9,22c3.4-3,6.8-6.1,10-9.4c4.4-4.4,8.6-9,12.6-13.8c-11.3-10.1-23.4-19-36.1-26.7
		C377.6,368.7,372.1,378,366,386.9z"/>
	<path d="M418.5,385.7c-4,4.7-8.2,9.3-12.6,13.8c-3.3,3.3-6.6,6.4-10,9.4c3.4,3,6.8,6.1,10,9.4c4.4,4.4,8.6,9,12.6,13.8
		c3.5-3.1,6.9-6.3,10.3-9.7c4.4-4.4,8.5-8.9,12.5-13.5c-4-4.6-8.2-9.1-12.5-13.5C425.5,392.1,422,388.9,418.5,385.7z"/>
	<path d="M407.9,250.5c0,4.6-0.1,9.1-0.4,13.7h59.7c0.3-4.5,0.4-9.1,0.4-13.7c0-6.3-0.3-12.5-0.8-18.7h-59.7
		C407.6,238,407.9,244.2,407.9,250.5z"/>
	<path d="M263.7,231.8v32.3h6.4h105c0.3-4.5,0.4-9.1,0.4-13.7c0-6.3-0.3-12.5-0.8-18.7H270.1H263.7z"/>
	<path d="M467.2,264.2h11.6v-32.3h-11.9c0.5,6.2,0.8,12.4,0.8,18.7C467.7,255.1,467.5,259.6,467.2,264.2z"/>
	<path d="M374.7,231.8h32.5c-2.3-30.8-10.4-60.4-23.7-87.7c-9.2,5.7-18.8,10.7-28.7,15C365.7,181.8,372.5,206.4,374.7,231.8z"/>
	<path d="M353.7,344.2c9.9,4.3,19.5,9.2,28.8,14.8c14.6-29.3,23.2-61.4,25.1-94.8h-32.4C373.3,292.3,366,319.4,353.7,344.2z"/>
	<path d="M263.7,39.9v24.4c2.1,1.1,4.3,2.3,6.4,3.5c15.8,9.1,30.5,20.4,43.7,33.6c9.2,9.2,17.4,19.1,24.6,29.5
		c10-4.2,19.7-9.2,29-14.9c-8.9-13.3-19.2-25.9-30.7-37.5c-14-14-29.5-26.1-46-36.2C281.8,41,272.8,40.2,263.7,39.9z"/>
	<path d="M366,386.9c-9.3-5.7-19.1-10.6-29.2-14.7c-6.8,9.6-14.6,18.8-23.1,27.3c-13.2,13.2-27.9,24.5-43.7,33.6
		c-2.1,1.2-4.2,2.4-6.4,3.5v24.4c9.1-0.3,18.1-1.1,26.9-2.6c16.5-10,32-22.1,46-36.2C347.7,411.4,357.5,399.5,366,386.9z"/>
	<path d="M354.8,159.2c9.9-4.3,19.4-9.4,28.7-15c-4.7-9.7-10.1-19.1-16.1-28.1c-9.3,5.7-19,10.7-29,14.9
		C344.7,140,350.1,149.4,354.8,159.2z"/>
	<path d="M336.9,372.2c10.1,4.1,19.8,9,29.2,14.7c6.1-9,11.6-18.3,16.4-27.9c-9.3-5.6-18.9-10.6-28.8-14.8
		C348.8,353.9,343.2,363.3,336.9,372.2z"/>
	<path d="M375.5,250.5c0,4.6-0.2,9.1-0.4,13.7h32.4c0.3-4.5,0.4-9.1,0.4-13.7c0-6.3-0.2-12.5-0.7-18.7h-32.5
		C375.2,238,375.5,244.2,375.5,250.5z"/>
	<path d="M237.8,231.8h26v-52.3c-2.3,0.1-4.5,0.1-6.8,0.1c-8.6,0-17.1-0.5-25.5-1.3v1v52.5H237.8z"/>
	<path d="M256.9,147.3c2.3,0,4.6,0,6.8-0.1v-0.7V64.3c-10.4-5.5-21.2-10.2-32.3-13.9v17.4v77.9C239.8,146.8,248.3,147.3,256.9,147.3
		z"/>
	<path d="M237.8,264.2h-6.4v60.4v1c8.4-0.9,16.9-1.3,25.5-1.3c2.3,0,4.6,0,6.8,0.1v-60.1H237.8z"/>
	<path d="M263.7,356.7c-2.3-0.1-4.5-0.1-6.8-0.1c-8.6,0-17.1,0.5-25.5,1.5v75.1v17.4c11.2-3.7,22-8.3,32.3-13.9v-79.3V356.7z"/>
	<path d="M258.3,476.4h5.4v-3.8c-1.8,0.8-3.6,1.6-5.4,2.3V476.4z"/>
	<path d="M263.7,28.3V14h-26h-6.4v2.6C242.5,19.8,253.3,23.7,263.7,28.3z"/>
	<path d="M256.9,179.7c2.3,0,4.6,0,6.8-0.1v-32.4c-2.3,0.1-4.5,0.1-6.8,0.1c-8.6,0-17.1-0.5-25.5-1.5v1.1v31.4
		C239.8,179.2,248.3,179.7,256.9,179.7z"/>
	<path d="M263.7,64.3V39.9c-2.3-0.1-4.5-0.1-6.8-0.1c-8.6,0-17.1,0.5-25.5,1.5v9.2C242.6,54.2,253.4,58.8,263.7,64.3z"/>
	<path d="M231.4,450.5v9.2c8.4,1,16.9,1.5,25.5,1.5c2.3,0,4.6,0,6.8-0.1v-24.4C253.4,442.2,242.6,446.8,231.4,450.5z"/>
	<path d="M256.9,461.2c-8.6,0-17.1-0.5-25.5-1.5v1.1v8.9v6.7h5.4v-12.6h21.5V475c1.8-0.8,3.6-1.5,5.4-2.3v-11.5
		C261.5,461.2,259.2,461.2,256.9,461.2z"/>
	<path d="M231.4,41.3c8.4-1,16.9-1.5,25.5-1.5c2.3,0,4.6,0,6.8,0.1V28.3c-10.5-4.7-21.3-8.6-32.3-11.7v14.7v8.9V41.3z"/>
	<path d="M231.4,325.5V357v1.1c8.4-1,16.9-1.5,25.5-1.5c2.3,0,4.6,0,6.8,0.1v-32.4c-2.3-0.1-4.5-0.1-6.8-0.1
		C248.3,324.2,239.8,324.7,231.4,325.5z"/>
	<polygon points="231.4,231.8 231.4,264.2 237.8,264.2 263.7,264.2 263.7,231.8 237.8,231.8 	"/>
	<polygon points="258.3,463.8 236.8,463.8 236.8,476.4 236.8,482.8 236.8,485.3 258.3,485.3 258.3,476.4 258.3,475 	"/>
</g>
</svg>
