<svg xmlns="http://www.w3.org/2000/svg" xmlns:xlink="http://www.w3.org/1999/xlink" width="40" height="39.432" viewBox="0 0 40 39.432">
  <defs>
    <clipPath id="clip-path">
      <rect width="40" height="39.432" fill="none"/>
    </clipPath>
  </defs>
  <g id="CAR_white" clip-path="url(#clip-path)">
    <g id="CAR_white-2" data-name="CAR_white" transform="translate(-8.634 -14.525)">
      <g id="Repeat_Grid_6" data-name="Repeat Grid 6" transform="translate(8.634 14.525)" clip-path="url(#clip-path)">
        <g transform="translate(-8.634 -14.525)">
          <path id="Path_146" data-name="Path 146" d="M44.441,20.056c-.653-.017-1.323-.017-1.975-.008H40.732l-.042-.444c-.017-.209-.033-.419-.042-.611a6.841,6.841,0,0,0-.134-1.147,4.277,4.277,0,0,0-4.269-3.315c-2.6-.008-5.248-.008-7.81,0H21.112a4.266,4.266,0,0,0-4.47,4.411v1.113H15.1c-.762,0-1.49-.008-2.218.008a4.214,4.214,0,0,0-3.993,2.854,4.556,4.556,0,0,0-.243,1.465c-.017,5.868-.017,12.3-.008,19.646a4.281,4.281,0,0,0,4.4,4.319h3.532l.033.46.025.527a10.191,10.191,0,0,0,.084,1.046,4.211,4.211,0,0,0,3.491,3.507,1.66,1.66,0,0,1,.259.067H36.832a5.054,5.054,0,0,0,1.934-.753,4.178,4.178,0,0,0,1.867-3.465c.008-.184,0-.377,0-.578v-.812H41.6c.335,0,.645.008.963-.008.285-.008.561-.008.837-.008a8.823,8.823,0,0,0,1.85-.117,4.08,4.08,0,0,0,3.323-3.44c.017-.084.042-.151.059-.209V23.8a5.108,5.108,0,0,0-.845-2.026A4.176,4.176,0,0,0,44.441,20.056Zm-27.8,26.016-.427.059c-.025,0-.042.008-.067.008a1.213,1.213,0,0,1-.268.025H14.148c-.377,0-.745,0-1.122-.008A2.088,2.088,0,0,1,10.841,44c-.008-6.579-.008-13.192,0-19.646a2.088,2.088,0,0,1,2.185-2.151c.745-.008,1.5,0,2.227,0h.778a.672.672,0,0,1,.268.067c.008,0,.017.008.025.008l.31.126V46.072Zm21.295,3.315c0,1.306-.6,1.9-1.934,1.9H21.271c-1.306,0-1.917-.594-1.917-1.875V19.068c0-1.281.6-1.875,1.908-1.875H36.037a1.643,1.643,0,0,1,1.892,1.858V34.244Q37.941,41.8,37.937,49.386Zm8.5-5.583a2.139,2.139,0,0,1-2.411,2.369H40.666V22.232h1.5c.753-.008,1.523-.008,2.285.008a2.06,2.06,0,0,1,1.992,1.925c.008.126.008.243.008.36V24.6Q46.437,34.194,46.441,43.8Z" fill="#fc6c03"/>
        </g>
      </g>
    </g>
  </g>
</svg>
