<?xml version="1.0" encoding="utf-8"?>
<!-- Generator: Adobe Illustrator 26.0.2, SVG Export Plug-In . SVG Version: 6.00 Build 0)  -->
<svg version="1.1" id="Layer_1" xmlns="http://www.w3.org/2000/svg" xmlns:xlink="http://www.w3.org/1999/xlink" x="0px" y="0px"
	 viewBox="0 0 500 500" style="enable-background:new 0 0 500 500;" xml:space="preserve">
<style type="text/css">
	.st0{fill:none;stroke:#ff692b;stroke-width:30;stroke-linejoin:round;stroke-miterlimit:10;}
</style>
<path class="st0" d="M193.9,223.5H55.3c-14.6,0-26.4-11.8-26.4-26.4V58.5c0-14.6,11.8-26.4,26.4-26.4h138.6
	c14.6,0,26.4,11.8,26.4,26.4v138.6C220.3,211.7,208.5,223.5,193.9,223.5z"/>
<path class="st0" d="M445.7,223.5H305.1c-14,0-25.4-11.4-25.4-25.4V57.5c0-14,11.4-25.4,25.4-25.4h140.5c14,0,25.4,11.4,25.4,25.4
	v140.5C471.1,212.1,459.7,223.5,445.7,223.5z"/>
<path class="st0" d="M193.6,467.9h-138c-14.8,0-26.7-12-26.7-26.7v-138c0-14.8,12-26.7,26.7-26.7h138c14.8,0,26.7,12,26.7,26.7v138
	C220.3,455.9,208.3,467.9,193.6,467.9z"/>
<path class="st0" d="M445.4,467.9H305.4c-14.2,0-25.7-11.5-25.7-25.7V302.2c0-14.2,11.5-25.7,25.7-25.7h140.1
	c14.2,0,25.7,11.5,25.7,25.7v140.1C471.1,456.4,459.6,467.9,445.4,467.9z"/>
</svg>
