<svg width="500" height="500" viewBox="0 0 500 500"  fill="#FF692B" xmlns="http://www.w3.org/2000/svg">
<path d="M256.814 158.976C260.768 159.269 263.989 159.415 267.211 159.562C320.954 161.319 374.697 163.076 428.44 164.834C437.666 165.273 439.57 167.323 439.57 176.549C439.57 189.582 439.57 202.615 439.57 215.794C439.57 223.409 437.08 225.899 429.319 226.045C373.086 227.949 316.561 229.706 260.328 231.61C259.45 231.61 258.571 231.756 256.667 232.049C256.667 234.246 256.667 236.735 256.667 238.932C256.667 307.319 256.667 375.559 256.814 443.946C256.814 452.586 255.203 460.494 247.735 465.326C243.049 468.401 236.898 470.452 231.333 470.452C182.716 470.891 134.098 470.744 85.4804 470.744C69.8114 470.744 60.1464 460.933 60 445.118C60 315.519 60 185.628 60 56.0295C60 39.7748 69.5185 30.1098 85.7732 30.1098C134.244 29.9634 182.716 29.9634 231.187 30.1098C247.588 30.1098 256.814 39.4819 256.814 56.0295C256.814 87.9532 256.814 119.73 256.814 151.654C256.814 153.704 256.814 156.047 256.814 158.976ZM240.998 157.805C241.145 156.487 241.291 154.729 241.291 153.118C241.291 121.048 241.291 88.9783 241.291 57.0546C241.291 47.8289 239.095 45.6323 229.869 45.6323C182.423 45.6323 134.83 45.6323 87.3841 45.6323C78.012 45.6323 75.5225 47.9754 75.5225 57.4939C75.5225 186.214 75.5225 314.933 75.5225 443.653C75.5225 452.879 77.8655 455.368 87.3841 455.368C134.684 455.368 181.984 455.368 229.43 455.368C239.388 455.368 241.438 453.172 241.438 443.36C241.438 375.266 241.438 307.026 241.438 238.932C241.438 236.882 241.438 234.978 241.438 233.074C234.848 233.074 228.99 233.367 223.133 232.928C216.982 232.488 212.882 234.685 208.635 239.517C189.891 261.63 158.26 268.512 131.755 256.797C104.81 244.936 88.702 216.819 92.2166 187.971C95.2918 161.319 114.329 138.914 139.956 131.446C166.168 123.831 194.138 132.763 211.271 154.29C212.443 155.754 214.2 157.512 215.811 157.658C223.865 157.805 232.066 157.805 240.998 157.805ZM424.047 179.331C414.675 179.331 405.596 179.624 396.663 179.331C319.343 176.842 242.024 174.352 164.704 171.863C150.06 171.423 139.223 181.528 139.077 195.439C139.077 209.351 149.767 219.748 164.264 219.455C173.49 219.309 182.569 218.87 191.941 218.43C264.868 216.087 337.648 213.744 410.575 211.401C414.968 211.255 419.215 210.962 423.901 210.669C424.047 200.418 424.047 190.753 424.047 179.331ZM191.063 156.194C169.829 137.01 134.977 141.257 117.404 164.687C99.5385 188.41 105.982 222.677 131.023 238.639C154.307 253.722 183.741 244.496 189.891 234.685C180.812 234.685 171.294 234.831 161.775 234.685C149.913 234.392 139.809 229.852 132.341 220.773C121.944 208.033 119.747 193.828 126.63 178.892C133.366 164.248 145.374 156.487 161.629 156.047C171.001 156.047 180.812 156.194 191.063 156.194Z" fill="#FF692B"/>
<path d="M135.123 379.952C135.123 378.781 135.123 377.756 135.123 376.731C135.416 369.262 134.537 362.819 129.119 356.083C117.55 341.732 121.211 320.352 135.562 308.637C149.767 296.921 170.561 298.093 183.741 311.272C196.627 324.305 197.653 345.686 185.498 359.451C182.423 362.819 181.544 366.041 181.544 370.287C181.837 377.902 181.837 385.81 181.544 393.571C181.105 407.19 171.147 417.294 158.26 417.294C145.374 417.294 135.27 407.043 134.977 393.425C134.977 388.885 135.123 384.492 135.123 379.952ZM150.646 375.998C150.646 381.27 150.646 386.688 150.646 391.96C150.792 398.111 153.867 401.918 158.7 401.772C163.386 401.625 166.168 398.111 166.168 392.253C166.315 383.906 166.461 375.266 166.168 366.919C165.875 360.329 167.34 355.204 172.758 350.518C181.105 343.343 180.519 330.017 172.758 322.402C165.143 314.933 152.549 314.641 144.788 321.962C136.587 329.577 135.562 342.757 143.763 349.932C149.913 355.351 151.085 361.208 150.499 368.384C150.353 370.727 150.646 373.363 150.646 375.998Z" fill="#FF692B"/>
</svg>
