<?xml version="1.0" encoding="utf-8"?>
<!-- Generator: Adobe Illustrator 26.0.2, SVG Export Plug-In . SVG Version: 6.00 Build 0)  -->
<svg version="1.1" id="Layer_1" xmlns="http://www.w3.org/2000/svg" xmlns:xlink="http://www.w3.org/1999/xlink" x="0px" y="0px"
	 viewBox="0 0 500 500" style="enable-background:new 0 0 500 500; fill: #FF692B" xml:space="preserve">
<g>
	<path d="M249.9,490.6c-74.7,0-149.3,0-224,0c-14.9,0-25-7.4-26.9-21.3c-0.7-5.3,1-11.7,3.6-16.6c14.5-28.5,29.6-56.7,44.5-85
		c60.2-114.3,120.4-228.7,180.6-343c7.9-15.1,24.8-19.3,37.3-9.1c3.1,2.5,5.6,6.2,7.5,9.8c41.4,78.3,82.6,156.7,123.9,235.1
		c33.7,63.9,67.2,128,101.1,191.8c7.9,14.9,2,27.8-6.6,33.7c-5.3,3.7-11.3,4.6-17.6,4.6C398.9,490.6,324.4,490.6,249.9,490.6z
		 M250.8,37c-0.5-0.1-1.1-0.1-1.6-0.2C174.1,179.4,99.1,321.9,23.6,465.2c151.3,0,301.4,0,452.6,0C400.9,322,325.8,179.5,250.8,37z"
		/>
	<path d="M298.2,365.6c-8,0-15.9,0.1-23.9-0.1c-1.1,0-2.6-1.8-3.1-3.1c-1.7-4.1-2.7-8.6-4.6-12.6c-0.8-1.7-3.2-3.6-4.9-3.6
		c-11.2-0.3-22.3-0.1-33.5-0.2c-3.1,0-4.5,1.4-5.3,4.2c-1.3,4.1-2.6,8.3-4.3,12.2c-0.6,1.4-2.3,3.1-3.6,3.2
		c-7.6,0.3-15.3,0.1-23.8,0.1c0.7-2.2,1.1-3.9,1.7-5.5c11.7-32.5,23.6-65,35.2-97.6c1.4-4,3.3-5.5,7.5-5.2
		c6.8,0.4,13.7-0.1,20.5,0.2c1.7,0.1,4.3,1.5,4.8,2.9c12.6,34.5,25,69,37.5,103.6C298.5,364.1,298.4,364.3,298.2,365.6z
		 M245.8,287.4c-0.6,0-1.2,0-1.7,0c-4.2,12.7-8.4,25.3-12.8,38.5c9.5,0,18.1,0,27.6,0C254.3,312.7,250,300,245.8,287.4z"/>
</g>
</svg>
