<?xml version="1.0" encoding="utf-8"?>
<!-- Generator: Adobe Illustrator 26.0.2, SVG Export Plug-In . SVG Version: 6.00 Build 0)  -->
<svg version="1.1" id="Layer_1" xmlns="http://www.w3.org/2000/svg" xmlns:xlink="http://www.w3.org/1999/xlink" x="0px" y="0px"
	 viewBox="0 0 500 500" style="enable-background:new 0 0 500 500; fill: #FF692B" xml:space="preserve">
<style type="text/css">
	.st0{fill:#FFFFFF;}
</style>
<g>
	<path d="M100.7,491.5c-7.1-4.2-7.5-5.4-4-13.2c7.7-17.4,15.4-34.7,23.2-52.1c0.7-1.5,1.2-3.1,2-5.4c-2.4-0.2-4.2-0.4-6-0.4
		c-11.8,0-23.6,0-35.4,0c-7.4,0-9.6-2.1-9.6-9.4c0-11,0-22,0-33c0-7.1,2.6-9.6,9.6-9.7c6.3-0.1,6.3-0.1,6.3-6.5
		c0-93.2,0-186.5,0-279.7c0-9.5,1-10.5,10.6-10.5c30.8,0,61.6,0,92.5,0c6.5,0,6.5,0,6.5-6.6c0-3.5,0-6.9,0-10.4
		c0.1-4.2,2.3-6.4,6.5-6.5c3.8-0.1,7.6-0.2,11.3,0c4.2,0.3,6-1.1,5.8-5.6c-0.3-7.8,0.2-15.7-0.2-23.6c-0.2-4.9,0.9-8.6,5.5-10.8
		c16,0,32.1,0,48.1,0c5.1,2.1,6.5,6,6.3,11.3c-0.3,8,0.1,16-0.2,24.1c-0.1,3.6,1.3,4.7,4.7,4.6c3.5-0.2,6.9-0.1,10.4,0
		c6,0.1,8.2,2.1,8.5,8.1c0.2,3.1,0.4,6.3,0,9.4c-0.6,5,1.7,6.1,6.2,6c12.3-0.2,24.5-0.1,36.8-0.1c18.7,0,37.4,0,56.1,0
		c8.9,0,10.1,1.2,10.1,10.1c0,54.1,0,108.2,0,162.3c0,38.8,0,77.7,0,116.5c0,2.3,0,4.7,0,7.8c3.1,0,5.5-0.1,7.9,0
		c5.3,0.3,7.6,2.8,7.6,8.1c0,12.1,0.1,24.2,0,36.3c0,5.5-2.2,7.7-7.7,7.7c-12.3,0.1-24.5,0-36.8,0c-1.7,0-3.4,0-5.9,0
		c0.8,2.4,1.2,4.1,1.9,5.7c7.7,17.4,15.4,34.7,23.1,52.1c3.2,7.3,2.8,8.9-3.5,13.3c-18.9,0-37.8,0-56.6,0c-2.2-2.9-5.1-5.5-6.6-8.7
		c-8.9-19.4-17.4-39-26.2-58.4c-0.8-1.7-2.9-3.7-4.4-3.8c-7.4-0.4-14.8-0.3-22.1,0c-1.1,0-3,2-3.1,3.3c-0.4,4.2,0,8.5-0.2,12.7
		c-0.2,4.8-2.7,7.3-7.3,7.4c-15.1,0.1-30.2,0.1-45.3,0c-4.8,0-7-2.4-7.1-7.4c-0.1-3.9-0.1-7.9,0-11.8c0.1-3.2-1.2-4.5-4.5-4.4
		c-6.3,0.2-12.6,0.3-18.9,0c-3.9-0.2-5.9,1.1-7.5,4.7c-8.4,19.3-16.9,38.5-25.6,57.6c-1.5,3.3-4.7,5.9-7.1,8.9
		C137.9,491.5,119.3,491.5,100.7,491.5z M397.9,292.1c0.4-0.1,0.8-0.3,1.2-0.4c0.1-1.5,0.2-3,0.2-4.5c0-65.9,0-131.8,0.1-197.7
		c0-4.1-1-5.4-5.2-5.4c-96.4,0.1-192.9,0.1-289.3,0c-4.5,0-5.5,1.6-5.5,5.7c0.1,65.7,0.1,131.5,0.1,197.2c0,1.6,0.2,3.2,0.5,6.2
		c2.4-2.7,3.9-4.3,5.2-6c27.7-34,55.3-68.1,83-102.1c4.7-5.8,8.5-5.8,13.4,0.1c14.7,18,29.4,36.1,44.1,54.1c1.2,1.4,2.4,2.8,4,4.5
		c2.1-2.4,3.8-4.4,5.5-6.4c14.1-17.3,28.1-34.7,42.2-52c5.2-6.4,8.7-6.4,14,0c21.5,26.3,42.9,52.7,64.3,79.1
		C383.1,273.9,390.5,283,397.9,292.1z M84.3,381.6c0,6.9,0,13,0,19.1c0,7,0,7,7.2,7c105.6,0,211.1,0,316.7,0c1.3,0,2.7,0.4,3.7-0.1
		c1.4-0.7,3.3-2.2,3.3-3.4c0.3-6.4,0.3-12.9,0-19.3c-0.1-1.2-2-3-3.2-3.2c-3.2-0.5-6.6-0.2-9.9-0.2c-8.5,0-17,0.1-25.5-0.1
		c-4.4-0.1-7.2-2.7-7.4-6.4c-0.1-3.7,2.5-6.4,6.9-6.9c2-0.2,4.1-0.1,6.1-0.1c5.6,0,11.2,0,17.2,0c0-15.2-0.2-29.6,0.1-44.1
		c0.1-4.5-1.5-5.6-5.6-5.6c-37.9,0.1-75.8,0.1-113.7,0.1c-1.6,0-3.2,0.4-5.3,0.7c6,16,11.6,31.3,17.6,46.4c0.5,1.2,3.2,2.3,4.8,2.3
		c15.4,0.2,30.8,0.1,46.2,0.1c1.9,0,4.2-0.2,5.5,0.8c1.9,1.4,4.2,3.9,4.2,5.9c0,2-2.2,4.5-4.1,5.9c-1.4,1-3.9,0.8-5.9,0.8
		c-83.8,0-167.7,0-251.5,0C89.3,381.6,87.2,381.6,84.3,381.6z M282.7,305.6c-29.7-36.5-58.5-72-87.8-108.1
		c-29.3,36.1-58.2,71.6-87.8,108.1C166.2,305.6,223.6,305.6,282.7,305.6z M392.2,305.6c-29.7-36.6-58.5-72-87.4-107.6
		c-1,0.8-1.6,1.1-2,1.6c-14.3,17.5-28.6,35.1-42.8,52.8c-0.8,1-0.5,4,0.4,5.1c12,15.1,24.3,30.1,36.4,45.2c2,2.5,4.1,3.3,7.2,3.3
		c27.4-0.1,54.7-0.1,82.1-0.1C387.7,305.9,389.2,305.7,392.2,305.6z M162.2,318.6c-19.2,0-38.3,0.1-57.5-0.1c-3.7,0-5.4,1.1-5.3,5.1
		c0.2,13.4,0.2,26.7,0,40.1c0,3.5,1.2,4.6,4.7,4.6c32.7-0.1,65.4-0.1,98,0c3,0,4.5-1.1,5.5-3.8c4.9-13.3,9.9-26.4,14.8-39.7
		c2.2-5.9,1.9-6.2-4.6-6.2C199.3,318.6,180.8,318.6,162.2,318.6z M323,420.4c0.3,1.7,0.3,2.7,0.6,3.5c7.5,17.1,15.1,34.1,22.8,51.1
		c0.6,1.4,3,2.6,4.7,2.7c9.6,0.2,19.1,0.1,28.7,0.1c2.4,0,4.8,0,7.5,0c-0.2-1.5-0.2-2.1-0.4-2.7c-7.7-17.3-15.3-34.7-23.2-51.9
		c-0.6-1.4-3.1-2.6-4.8-2.6c-8.5-0.3-17-0.1-25.4-0.1C330.2,420.4,326.8,420.4,323,420.4z M111.6,477.7c12.4,0,24-0.1,35.6,0.1
		c3.3,0.1,5-1,6.4-4.1c6.9-16,14.1-31.8,21.1-47.7c0.7-1.5,1.1-3.1,1.8-4.9c-1.1-0.3-1.7-0.7-2.2-0.7c-11.6,0-23.2-0.2-34.9,0.1
		c-1.4,0-3.4,1.6-4,3c-7.7,16.8-15.1,33.8-22.6,50.7C112.3,475.1,112.1,476,111.6,477.7z M220.2,367.9c19.9,0,39,0,58.1,0
		c0.1-0.7,0.2-1,0.2-1.3c-5.6-15.1-11.2-30.3-17-45.3c-0.5-1.2-2.8-2.4-4.4-2.5c-4.7-0.3-9.4,0-14.1-0.2c-3.4-0.2-5,1.3-6.1,4.4
		c-3.2,9-6.7,17.9-10,26.9C224.7,355.7,222.5,361.5,220.2,367.9z M266.4,22c-10.8,0-20.8-0.1-30.8,0.1c-1,0-2.8,1.9-2.8,3
		c-0.3,6.4-0.1,12.8-0.2,19.3c0,2.6,1.2,3.7,3.7,3.6c8.9,0,17.9,0.1,26.8-0.2c1.1,0,3.1-1.8,3.2-2.8C266.5,37.6,266.4,30.1,266.4,22
		z M249.9,71.5c11.6,0,23.3-0.1,34.9,0.1c4.3,0.1,5.3-1.5,5.3-5.5c0-4-0.9-5.5-5.2-5.5c-23.4,0.2-46.9,0.2-70.3,0
		c-3.9,0-5.7,0.8-5.7,5.2c0,4.2,1.2,5.9,5.6,5.8C226.3,71.4,238.1,71.6,249.9,71.5z M249.4,420.4c-4.4,0-8.8,0.1-13.2,0
		c-3.4-0.1-3.9,1.9-3.7,4.6c0.2,2.6-1.2,6.2,3.4,6.2c9.1,0.1,18.2,0.1,27.3,0c4.8-0.1,2.7-4,3.1-6.4c0.3-2.4,0-4.4-3.3-4.3
		C258.5,420.5,254,420.4,249.4,420.4z"/>
	<path class="st0" d="M214.5,71.6c-4.4,0.1-5.6-1.6-5.6-5.8c0-4.4,1.8-5.2,5.7-5.2c23.4,0.1,46.9,0.2,70.3,0c4.3,0,5.2,1.5,5.2,5.5
		c0,4-1,5.6-5.3,5.5"/>
	<path d="M177.8,132.6c0,16.5-13.7,30.1-30,30c-16.3-0.1-29.8-13.9-29.7-30.3c0.1-16.3,13.3-29.4,29.8-29.4
		C164.7,102.8,177.8,115.9,177.8,132.6z M148,149.3c9.3,0,16.8-7.4,17-16.5c0.2-9-7.8-17.2-17-17.3c-9.2-0.1-17.2,7.8-17.2,17
		C130.9,141.8,138.5,149.3,148,149.3z"/>
	<path d="M359.5,147.6c-2.4-1.4-4.1-2.1-5.5-3.3c-2.7-2.4-5.4-4.9-7.7-7.7c-2.7-3.4-5.1-3-8.2-0.6c-4,3-8.4,5.5-12.5,8.5
		c-3.8,2.7-7.3,2.9-11.2,0c-4.4-3.2-9.2-6-13.7-9.2c-2.6-1.9-4.3-1.6-6.4,0.7c-2.7,3-5.7,5.9-8.7,8.7c-3,2.8-6.3,3.1-9.2,0.2
		c-2.9-2.9-2.6-6.4,0.2-9.3c4.9-5.1,9.9-10.1,15-15c2.9-2.9,6-2.8,9.4-0.6c5.3,3.6,10.6,7.3,16.2,10.6c1.5,0.8,4.3,0.8,5.7,0
		c5.5-3.2,10.8-7,16.2-10.6c3.1-2.2,6.2-2.3,9,0.4c5.3,5.1,10.7,10.3,15.5,15.8c1.3,1.5,1.8,4.8,1.1,6.7
		C364,144.7,361.4,145.9,359.5,147.6z"/>
	<path d="M124.3,400.7c-5,0-10.1,0.1-15.1,0c-4.4-0.1-6.6-2.4-6.5-6.3c0.1-4.2,2.6-6.3,6.7-6.3c10.1-0.1,20.1-0.1,30.2,0
		c4,0,6.5,2.2,6.9,6.2c0.4,3.7-2.6,6.3-7.1,6.4C134.4,400.8,129.4,400.7,124.3,400.7z"/>
</g>
</svg>
