<svg width="500" height="500" viewBox="0 0 500 500" fill="none" xmlns="http://www.w3.org/2000/svg">
<path d="M247.452 468.829C246.178 467.979 244.903 467.13 243.629 466.422C179.637 435.559 115.646 404.554 51.654 373.832C46.8405 371.567 45 368.594 45 363.355C45.1416 287.896 45.1416 212.437 45 136.978C45 131.598 46.9821 128.766 51.654 126.501C115.929 95.6378 180.204 64.633 244.479 33.4865C248.443 31.5045 251.699 31.5045 255.663 33.4865C319.938 64.633 384.354 95.7794 448.771 126.643C453.443 128.908 455 131.881 455 136.978C454.859 212.437 454.859 287.896 455 363.355C455 368.735 453.16 371.708 448.346 373.974C384.354 404.695 320.363 435.7 256.371 466.563C254.955 467.271 253.823 468.121 252.548 468.97C250.85 468.829 249.151 468.829 247.452 468.829ZM57.8833 143.915C57.8833 145.472 57.8833 146.322 57.8833 147.171C57.8833 217.817 57.8833 288.321 57.7417 358.967C57.7417 362.081 59.299 363.072 61.4227 364.205C120.601 392.803 179.638 421.259 238.816 449.858C240.231 450.565 241.506 450.99 243.488 451.84C243.488 449.433 243.488 447.592 243.488 445.752C243.488 394.785 243.488 343.818 243.488 292.851C243.488 274.305 243.488 255.9 243.488 237.354C243.488 234.523 242.78 232.965 240.09 231.833C235.701 229.992 231.595 227.869 227.348 225.745C223.384 223.763 221.827 220.082 223.667 216.684C225.366 213.428 228.905 212.437 232.87 214.277C237.258 216.259 241.647 218.241 245.894 220.648C248.726 222.206 250.991 222.064 253.823 220.648C267.131 214.136 280.439 207.765 293.747 201.252C297.286 199.554 300.401 199.412 302.949 202.668C305.639 206.066 304.082 210.313 299.41 212.72C286.385 219.091 273.36 225.462 260.193 231.549C257.079 232.965 256.229 234.664 256.229 237.92C256.371 307.575 256.371 377.088 256.371 446.743C256.371 448.3 256.371 449.716 256.371 451.84C258.353 450.99 259.627 450.424 260.901 449.858C320.221 421.259 379.399 392.661 438.719 364.063C441.409 362.789 442.258 361.232 442.258 358.259C442.117 288.179 442.258 218.241 442.258 148.162C442.258 146.888 442.258 145.614 442.258 144.056C441.267 144.481 440.56 144.623 439.993 144.906C422.013 153.542 403.892 162.319 385.77 170.956C383.222 172.23 383.222 173.929 383.222 176.052C383.222 199.554 383.08 223.055 383.363 246.556C383.363 251.653 381.523 254.626 376.851 256.75C362.552 263.404 348.394 270.341 334.237 277.278C326.45 280.959 322.628 278.552 322.628 269.916C322.628 246.698 322.486 223.48 322.628 200.261C322.628 197.005 321.778 195.165 318.664 193.749C256.937 164.018 195.211 134.288 133.626 104.415C131.077 103.141 129.095 102.858 126.547 104.274C121.167 107.247 115.504 109.654 110.124 112.344C95.8253 119.281 81.5263 126.218 66.6609 133.297C68.3598 134.146 69.634 134.854 70.9082 135.42C114.655 156.515 158.401 177.751 202.148 198.846C208.094 201.677 209.934 204.933 207.952 208.898C206.112 212.862 202.431 213.286 196.485 210.455C164.489 195.023 132.493 179.592 100.497 164.16C86.3398 157.648 72.4655 150.993 57.8833 143.915ZM197.193 70.5791C199.175 71.5701 200.307 72.278 201.298 72.7027C260.193 101.159 318.947 129.616 377.842 157.789C379.399 158.497 381.948 158.497 383.647 157.789C398.087 150.993 412.386 144.056 426.685 137.119C428.809 136.128 430.932 134.996 433.622 133.58C425.553 129.757 418.191 126.076 410.829 122.537C358.446 97.1951 305.922 71.8533 253.398 46.653C251.841 45.9451 249.717 45.2372 248.443 45.8035C231.595 53.8733 214.748 62.0846 197.193 70.5791ZM145.235 95.9209C146.226 96.6288 146.792 96.912 147.217 97.1951C206.678 125.935 266.281 154.674 325.743 183.273C327.3 183.98 329.707 183.839 331.264 183.131C341.74 178.317 352.075 173.221 362.41 168.124C363.401 167.699 364.251 167.133 365.525 166.284C363.685 165.293 362.269 164.585 360.853 163.877C338.767 153.259 316.54 142.499 294.455 131.881C258.353 114.467 222.251 97.0535 186.15 79.6399C184.593 78.7904 182.044 78.2241 180.629 78.7904C168.878 84.3118 157.41 90.1164 145.235 95.9209ZM335.228 262.413C337.069 261.705 338.201 261.28 339.334 260.714C348.536 256.325 357.738 251.795 366.941 247.406C369.489 246.273 370.339 244.716 370.339 241.884C370.197 222.206 370.197 202.668 370.197 182.989C370.197 181.715 370.055 180.583 369.914 178.742C361.986 182.565 354.624 186.953 346.837 189.643C337.068 192.9 334.237 198.563 334.803 208.756C335.936 226.311 335.228 244.008 335.228 262.413Z" fill="#FF692B"/>
<path d="M79.6856 292.709C80.3935 292.993 81.8092 293.276 83.0834 293.984C100.78 302.478 118.335 310.973 136.032 319.609C137.448 320.317 139.572 321.449 139.855 322.723C140.421 325.13 140.563 328.245 139.43 330.085C137.59 333.058 134.192 332.917 131.077 331.359C118.76 325.413 106.585 319.467 94.2678 313.521C88.3216 310.548 82.2339 307.716 76.2878 304.743C73.3147 303.186 71.899 300.638 72.7484 297.381C73.5979 294.267 75.7215 292.709 79.6856 292.709Z" fill="#FF692B"/>
<path d="M108.992 350.472C106.585 349.623 105.311 349.198 104.037 348.632C95.1176 344.384 86.1984 339.996 77.2792 335.748C73.0319 333.625 71.4746 330.369 73.1735 326.829C74.8724 323.148 78.4118 322.157 82.9421 324.281C92.1445 328.67 101.347 333.058 110.549 337.589C113.805 339.146 115.504 341.978 114.089 345.234C112.956 347.358 110.549 348.773 108.992 350.472Z" fill="#FF692B"/>
</svg>
