<?xml version="1.0" encoding="utf-8"?>
<!-- Generator: Adobe Illustrator 26.0.2, SVG Export Plug-In . SVG Version: 6.00 Build 0)  -->
<svg version="1.1" id="Layer_1" xmlns="http://www.w3.org/2000/svg" xmlns:xlink="http://www.w3.org/1999/xlink" x="0px" y="0px"
	 viewBox="0 0 500 500" style="enable-background:new 0 0 500 500; fill: #FF692B" xml:space="preserve">
<g>
	<path d="M461,185.1c0,35.5,0.1,71,0,106.5c-0.1,23.9-8.4,45.3-20.7,65.2c-18,29.2-42.6,52.3-69.5,73.2
		c-34.8,26.9-72.5,49.1-111.9,68.4c-6.1,3-11.5,2.9-17.6,0c-42.7-20.7-83.2-45-120.2-74.9c-26.6-21.5-50.4-45.6-66.7-76.2
		c-10.1-19-15.5-39.1-15.5-60.7C39,215.7,38.9,144.8,39,74c0-11.5,1-12.7,12.1-16.1c63.8-19.2,127.6-38.4,191.5-57.3
		c4.6-1.4,10.4-1.3,15,0c64.4,19,128.7,38.4,193,57.7c9.1,2.7,10.5,4.7,10.5,15.3c0,37.2,0,74.3,0,111.5
		C461.1,185.1,461.1,185.1,461,185.1z M440.5,190.4c0-35.2,0-70.3,0-105.5c0-7.1-0.9-8.4-7.9-10.5c-59.4-17.9-118.7-35.7-178.2-53.4
		c-2.7-0.8-6.1-0.8-8.7,0C186.3,38.6,126.9,56.5,67.5,74.4c-7,2.1-7.9,3.4-7.9,10.5c0,68,0.1,136-0.1,204c0,15.2,3.6,29.3,10.2,42.8
		c13.4,27.5,34.5,48.9,57.1,68.7c35.7,31.3,76.1,55.4,118.3,76.8c3.5,1.8,6.4,1.8,9.9,0c33.9-17.2,66.7-36.3,97-59.5
		c26.1-19.9,50.2-41.9,68.7-69.2c13.1-19.3,20.5-40.3,20-64.2C440,253.1,440.5,221.7,440.5,190.4z"/>
	<path d="M135.4,257.1c-9.9-6.6-21.3-10.6-21.3-24.5c0.1-14,11.5-17.9,21.1-24.3c-3.9-2.5-7.2-4.6-10.6-6.6
		c-14.2-8.2-14-27.4,0-35.6c37.5-22,74.9-44.1,112.3-66c9.1-5.3,18.4-4.9,27.5,0.4c36.2,21.2,72.3,42.5,108.5,63.7
		c6.2,3.6,11.6,7.7,13.1,15.4c1.6,8-1.2,16-7.9,20.6c-3.9,2.7-8.1,5.1-12.9,8.1c4,2.4,7.4,4.4,10.7,6.5c14.3,9.1,14.3,26.5,0.1,35.6
		c-3.2,2-6.4,3.9-10.5,6.4c2.7,1.8,4.6,3.4,6.7,4.4c18.7,8.6,19.3,29.7,0.1,40.5c-36,20.2-71.3,41.6-106.8,62.6
		c-10.4,6.1-20.4,5.8-30.6-0.2c-28.7-16.9-57.4-33.7-86.1-50.6c-7.7-4.6-15.3-9.6-23.2-13.7c-15.2-7.9-15.6-29,0.6-37.3
		C128.9,261.1,131.5,259.4,135.4,257.1z M250.3,254.9c2.5-1,4.9-1.6,7-2.9c36.2-21.2,72.3-42.5,108.4-63.7c5.4-3.2,5.4-5.6-0.1-8.8
		c-36-21.2-72-42.3-107.9-63.6c-5.2-3.1-9.8-2.9-14.9,0.2c-20.6,12.3-41.3,24.3-61.9,36.5c-15.3,9-30.7,18-46,27.2
		c-5.3,3.1-5.1,5.1,0.1,8.4c0.6,0.4,1.1,0.7,1.7,1.1c35.7,21,71.4,42,107.1,63C245.7,253.4,247.9,254,250.3,254.9z M250.7,352.7
		c3-1.5,6.1-2.8,8.9-4.5c21-12.2,41.9-24.5,62.9-36.8c14.5-8.5,28.9-17.1,43.3-25.7c5.2-3.1,5.2-5.4,0-8.6c-4-2.4-8.3-4.4-12-7.2
		c-3.9-2.9-6.9-2.2-10.8,0.1c-25.7,15.3-51.7,30.3-77.4,45.6c-10.3,6.1-20.2,6.1-30.5,0c-26-15.5-52.2-30.6-78.3-46.1
		c-3.3-2-5.9-2.2-9.1-0.1c-3.9,2.6-8,4.7-12,7.1c-6.4,3.8-6.4,5.9-0.2,9.6c36.1,21.3,72.3,42.5,108.4,63.7
		C246,351,248.2,351.7,250.7,352.7z M250.5,303.9c2.5-1.2,4.8-2,6.9-3.3c13.1-7.6,26.2-15.2,39.2-22.9
		c23.1-13.6,46.2-27.2,69.2-40.8c5-3,5.1-5.2,0.2-8.3c-3.6-2.3-7.6-4.2-11.1-6.8c-4.5-3.3-8.2-3-13-0.1
		c-24.7,14.8-49.7,28.9-74.3,43.9c-12.3,7.5-23.3,7.1-35.4-0.3c-25.1-15.3-50.7-29.9-76-44.9c-2.9-1.7-5.2-1.9-8.2,0
		c-4.4,2.9-9.2,5.4-13.7,8.2c-4.7,2.9-4.7,5.1-0.1,7.9c5,3.1,10,5.9,15,8.9c31,18.2,61.9,36.5,92.9,54.6
		C244.8,301.6,247.6,302.6,250.5,303.9z"/>
</g>
</svg>
