<?xml version="1.0" encoding="utf-8"?>
<!-- Generator: Adobe Illustrator 26.0.2, SVG Export Plug-In . SVG Version: 6.00 Build 0)  -->
<svg version="1.1" id="Layer_1" xmlns="http://www.w3.org/2000/svg" xmlns:xlink="http://www.w3.org/1999/xlink" x="0px" y="0px"
	 viewBox="0 0 500 500" style="enable-background:new 0 0 500 500; fill: #FF692B" xml:space="preserve">
<g>
	<path d="M494,95c-3.3,8.5-7.1,16.9-9.5,25.7c-1,3.6,0.2,8.3,1.8,11.9c5.2,11.8,4.3,17.1-5.3,25.6c-6.2,5.4-10.2,11.8-9.3,20.4
		c0.7,6.8-1.7,11.8-7.3,16c-9.1,6.8-14.6,16-17.8,27c-5.9,20.3-12.5,40.4-18.6,60.6c-4,13.5-10.9,25.3-20.2,35.9
		c-6.8,7.8-13.1,16.1-19.4,24.2c-1.8,2.2-3.3,4.7-4.7,7.2c-6,10.6-5.7,16.3,7.3,23c13.2,6.8,27.5,11.4,42.6,12.9
		c12.8,1.2,25.5,3.6,38.2,5.5c1.1,0.2,2.3,0.4,3.1,1c1,0.6,2.2,1.7,2.2,2.6c0,1-1.2,2.3-2.2,2.7c-2.2,0.9-4.5,1.5-6.8,2.1
		c-2.7,0.7-3.4,1.9-2.6,4.8c2,6.8,0.3,9.3-6.8,9c-13.4-0.6-26,2.6-38.8,6.5c-12.7,3.8-26.1,5.4-39.3,6.8
		c-18.5,2.1-37.1,3.3-55.6,4.6c-24.9,1.7-49.2-1.5-72.7-10c-24.8-8.9-47.1-21.8-67.6-38.6c-10-8.2-22.6-13.6-34.6-18.8
		c-23-10-46.7-18.7-71.7-22.5c-5.9-0.9-12-0.5-18.1-0.8c-6.2-0.3-12.4-0.2-18.5-1.1c-10.8-1.4-21.6-3.4-32.4-5.2
		c-1.2-0.2-2.4-0.4-4.8-0.9c2.1-1.6,3.3-2.5,4.5-3.3c10.4-7,21.1-13.7,31.3-21.1c7.9-5.8,15.8-6.4,24.2-2.4
		c8,3.8,15.4,9.4,23.7,12.2c11.7,4,23.9,6.5,36,8.9c21.7,4.3,43.7,6.6,65.9,6.1c2.1,0,4.2-0.5,7.3-0.8c-2.2-4.3-3.7-7.7-5.6-11
		c-5.9-10.4-11.7-20.8-17.9-31c-6.1-10-5.2-20.2-2.8-30.9c0.9-4.2,0.6-8.8,0-13.1c-1.1-7.7,0.3-15.1,3.2-21.9
		c10.1-23.7,20.5-47.3,30.9-70.8c1.4-3.2,3.5-6.1,5.7-8.8c0.9-1.1,2.8-1.5,4.2-2.3c0.7,1.7,2,3.4,1.9,5.1c-0.2,3.3-1.2,6.5-1.8,9.8
		c-0.2,0.9-0.3,1.8-0.4,2.7c0.4,0.2,0.8,0.5,1.1,0.7c1.7-2.3,3.1-4.8,5-6.9c1.4-1.5,3.4-2.3,5.2-3.4c0.7,2.1,2,4.2,2,6.3
		c-0.1,4.8-0.8,9.7-1.3,14.5c0.4,0.2,0.8,0.4,1.2,0.5c1.7-2.2,3.2-4.5,5.2-6.4c1.4-1.3,3.3-2.1,4.9-3.2c1,1.7,2.6,3.4,2.8,5.2
		c0.4,2.9-0.2,6-0.2,9c0,1.7,0.4,3.3,0.6,5c1.6-0.3,3.6-0.2,4.7-1.1c4.7-3.9,7.1-2.4,7.6,4c0.3,4,1.6,7.1,5.1,10.1
		c2.7,2.4,3.6,7.5,4.2,11.6c0.7,4.1,1.8,6.9,5.8,9c2,1.1,3.5,4.4,3.9,6.9c0.6,4.2,1.8,7.3,5.3,10c3.6,2.9,6.3,7,9.5,10.7
		c3.5-5,7-10.4,10.8-15.4c16-21.2,33.9-40.7,53.8-58.2c29.1-25.6,55-54,78.3-84.8c7.9-10.4,16.4-20.3,24.7-30.5
		c0.8-0.9,1.5-1.9,2.3-2.8c0.4,0.3,0.9,0.5,1.3,0.8c-2.3,6.9-4.5,13.8-6.8,20.7c7.8-4.8,11.3-13.9,20.8-18c0.2,9.7-6.1,16.1-8,25.2
		c6-3.7,11.3-7,16.5-10.2c0.5,0.5,1,1,1.6,1.5c-2.6,5.4-5.3,10.7-8.2,16.7c7.1,1.5,15.1-2.8,19.6,5C494,93.7,494,94.4,494,95z"/>
</g>
</svg>
