<?xml version="1.0" encoding="utf-8"?>
<!-- Generator: Adobe Illustrator 26.0.2, SVG Export Plug-In . SVG Version: 6.00 Build 0)  -->
<svg version="1.1" id="Layer_1" xmlns="http://www.w3.org/2000/svg" xmlns:xlink="http://www.w3.org/1999/xlink" x="0px" y="0px"
	 viewBox="0 0 500 500" style="enable-background:new 0 0 500 500; fill: #FF692B" xml:space="preserve">
<g>
	<path d="M4.3,187.1c0.7-6.2,1.3-12.4,2.3-18.5c9.3-57.5,40.3-97.8,94.3-120.1c16.1-6.6,33.1-9.6,50.3-9.4
		c35.7,0.3,67.7,11.8,94.8,35.6c5.4,4.8,5.3,4.7,10.8,0c21.6-18.7,46.3-30.3,74.7-34c42.1-5.5,79.6,5.4,112.2,32.3
		c26.4,21.8,43.1,49.9,50.4,83.4c1.7,7.6,2.1,15.5,3.1,23.3c0.3,2.5,0.8,5,1.2,7.5c0,1.3,0,2.6,0,3.9c-0.6,3.8-1.1,7.5-1.7,11.3
		c-3.3,21.4-12.3,40.4-23.7,58.5c-20.4,32.4-46.5,59.9-74.4,85.8c-43.1,40.1-89.8,75.5-138.6,108.3c-6.3,4.2-11.2,4.2-17.5,0
		c-59.9-40.4-116.9-84.2-167.1-136.4c-21.9-22.8-41.7-47.3-56.1-75.7C11.8,227.6,6,211.8,5.3,194.6c-0.1-1.2-0.7-2.4-1.1-3.6
		C4.3,189.6,4.3,188.4,4.3,187.1z M151.8,57.5c-4,0-8.1-0.3-12.1,0.1c-4.6,0.4-9.3,1-13.8,2.1c-51.7,12.9-84.4,45.4-98.7,96.5
		c-4,14.2-5.3,28.7-3.3,43.4c2.3,16.9,9.3,32,17.9,46.4c19.1,32.2,44.5,59,71.4,84.5c41.4,39.2,86.8,73.6,133.9,105.7
		c3.1,2.1,5.3,2.4,8.5,0.1c17.2-12.5,34.7-24.5,51.7-37.1c40.9-30.4,79.6-63.2,114-100.9c15.4-16.9,29.5-34.8,41.2-54.5
		c14.8-25,20.9-51.5,15-80.4c-11.1-54.1-53-95.7-105.2-104.3c-31.1-5.1-60.2,0.2-86.8,17c-9.4,6-17.6,13.8-26.2,21.1
		c-5.8,5-10,5.3-15.6,0.1c-1.3-1.2-2.5-2.5-3.8-3.7C215.3,69.7,185.9,57.7,151.8,57.5z"/>
	<path d="M445.9,183c0,1.1,0.1,2.3,0,3.4c-0.4,5-4.5,9.1-9.1,8.9c-4.6-0.1-8.3-3.8-8.6-8.8c-0.9-15.1-4.3-29.5-12.6-42.4
		c-9.2-14.4-21.5-24.9-37.6-31c-3.2-1.2-6.9-3.6-8.2-6.5c-1.1-2.3,0.2-6.6,1.8-9.1c2-3.1,5.9-3.4,9.6-2.2c22,7.2,38.7,21,50.8,40.7
		C441,150.4,445.2,166.2,445.9,183z"/>
	<path d="M341.2,92.7c5.3,0,8.7,3.4,8.6,8.7c-0.1,4.9-4.1,8.9-8.8,9c-4.8,0-9.3-4.6-9.1-9.3C332.1,96.3,336.2,92.7,341.2,92.7z"/>
</g>
</svg>
