<svg id="Layer_1" data-name="Layer 1" xmlns="http://www.w3.org/2000/svg" viewBox="0 0 502.45 480.52"  style="enable-background:new 0 0 500 500; fill: #FF692B"><path d="M249.91,490.62h-224C11,490.61.87,483.25-1,469.32c-.71-5.31,1-11.66,3.52-16.57,13.81-27.16,28.2-54,42.4-81Q136.26,198.29,227.62,24.81c7.95-15.09,24.78-19.31,37.32-9.2a31.49,31.49,0,0,1,7.54,9.76Q335,143.73,397.31,262.23q50.16,95.24,100.39,190.45c7.7,14.5,1.81,27.35-6.74,33.3-5.28,3.68-11.29,4.64-17.55,4.64ZM23.67,465.08H476.23C400.79,321.8,325.72,179.25,250,35.34,174.11,179.36,99.09,321.85,23.67,465.08Z" transform="translate(1.17 -10.1)"/><path d="M352.39,309.8c-9.23,0-17.7.09-26.16-.1-1.24,0-2.66-1.21-3.63-2.21-15.16-15.77-40.7-9.75-47.16,11.16A38.74,38.74,0,0,0,276.73,346c5.15,12.1,15.34,16.64,27.67,16.76,11.13.11,20-4.39,25.14-14.81.7-1.42,1.13-3,2-5.32-9.81,0-18.77-.22-27.71.1-4.35.15-5.76-1.08-5.69-5.57.19-12.87,0-12.87,12.8-12.87,12.5,0,25,.28,37.49-.13,5.27-.17,6.65,1.6,6.23,6.53-.74,8.83,1.37,17.84-3.55,26.31-9.77,16.84-23.91,26.48-43.4,27.78-21.24,1.41-39.17-4.91-51.35-23.36-14.39-21.81-12-62.11,17-78.71,21.6-12.37,52.49-9.06,68.52,7.72A41,41,0,0,1,352.39,309.8Z" transform="translate(1.17 -10.1)"/><path d="M244.85,330.61c-.26,31.95-23.94,55.21-56,55-31.1-.23-55.15-25-54.45-56.77.72-33.38,27.46-54.89,58.3-53.75C222.46,276.16,245.09,299.51,244.85,330.61Zm-84.29-.47c0,20.1,12.47,33,31.14,32.17,14.58-.63,25-10.41,27.08-27.5,3.17-25.89-15.72-42.41-39.37-35.07C167.47,303.45,160.56,315,160.56,330.14Z" transform="translate(1.17 -10.1)"/></svg>