<svg id="physical_redeem" data-name="physical redeem" xmlns="http://www.w3.org/2000/svg" width="27.729" height="32.498" viewBox="0 0 27.729 32.498">
  <path id="Path_211" data-name="Path 211" d="M116.463,77c1.886,1.122,3.782,2.245,5.668,3.367q3.735,2.221,7.489,4.423a.933.933,0,0,1,.509.9q-.014,7.6,0,15.185a.9.9,0,0,1-.49.868q-6.423,3.777-12.846,7.592a.922.922,0,0,1-1.056,0q-6.409-3.806-12.846-7.592a.875.875,0,0,1-.49-.839q.014-7.64,0-15.279a.82.82,0,0,1,.434-.783q6.607-3.891,13.2-7.791a.094.094,0,0,0,.038-.047Zm3.82,14.61c-.132.075-.226.113-.311.17-.943.556-1.877,1.113-2.82,1.66a.5.5,0,0,0-.292.5c.009,3.046.009,6.1.009,9.149v.283c-.009.472-.236.736-.6.736s-.575-.264-.594-.717v-.283c0-3.046,0-6.1.009-9.149a.52.52,0,0,0-.3-.519q-5.192-3.056-10.384-6.131c-.509-.3-.651-.6-.453-.953s.556-.377,1.047-.085q5.206,3.07,10.413,6.159a.453.453,0,0,0,.538,0c.953-.575,1.915-1.132,2.867-1.7.085-.047.16-.113.274-.179-.094-.057-.151-.1-.217-.141q-5.8-3.438-11.61-6.866a.354.354,0,0,0-.424,0c-1.17.7-2.348,1.4-3.527,2.084a.488.488,0,0,0-.283.5q.014,7.159,0,14.327a.51.51,0,0,0,.283.5q5.716,3.367,11.422,6.744c.094.057.189.113.33.189.009-.16.019-.255.019-.358,0-.5-.009-1,0-1.49.009-.434.236-.67.594-.67s.585.245.594.67c.009.519,0,1.037.009,1.556,0,.085.019.17.028.292a1.35,1.35,0,0,0,.179-.094q5.815-3.438,11.648-6.876a.381.381,0,0,0,.2-.387V86.809c0-.075-.019-.151-.028-.264-.971.575-1.905,1.132-2.848,1.679a.426.426,0,0,0-.245.424c.009,1.556,0,3.112.009,4.669a.727.727,0,0,1-.387.707c-1.386.811-2.773,1.641-4.159,2.452a.61.61,0,0,1-.981-.528,2.292,2.292,0,0,1,0-.255v-3.65C120.282,91.883,120.282,91.77,120.282,91.61Zm8.026-6.178a2.353,2.353,0,0,0-.226-.151Q122.3,81.857,116.5,78.434a.4.4,0,0,0-.462,0c-.9.538-1.8,1.066-2.707,1.6-.057.038-.113.075-.189.123.245.141.453.264.66.4l3.876,2.292a.613.613,0,0,1,.3.877c-.179.311-.528.368-.915.16-.066-.038-.132-.075-.189-.113-1.556-.924-3.112-1.839-4.669-2.763a.439.439,0,0,0-.538.009c-.811.5-1.632.971-2.452,1.462-.123.075-.236.141-.387.236.085.057.123.085.17.113q5.843,3.452,11.7,6.913a.325.325,0,0,0,.4-.009l2.433-1.443c.151-.085.3-.179.481-.292-.141-.085-.236-.151-.34-.207-1.49-.887-2.99-1.764-4.48-2.65-.481-.283-.622-.594-.424-.943s.566-.377,1.056-.094c1.726,1.019,3.443,2.028,5.159,3.056a.368.368,0,0,0,.453,0c.877-.528,1.764-1.047,2.65-1.575A1.345,1.345,0,0,0,128.309,85.432ZM124.6,89.044c-1.037.613-2.009,1.179-2.98,1.773a.432.432,0,0,0-.132.311c-.009,1.16-.009,2.33,0,3.49,0,.075.019.151.028.264.755-.443,1.452-.924,2.2-1.283a1.362,1.362,0,0,0,.9-1.556C124.536,91.072,124.6,90.091,124.6,89.044Z" transform="translate(-102.4 -77)" fill="#FF692B"/>
  <path id="Path_212" data-name="Path 212" d="M128.16,289.692c0-.377-.009-.764,0-1.141a.6.6,0,1,1,1.2-.047q.028,1.2,0,2.405a.589.589,0,0,1-.622.585.6.6,0,0,1-.566-.641C128.15,290.475,128.16,290.079,128.16,289.692Z" transform="translate(-125.726 -268.009)" fill="#FF692B"/>
  <path id="Path_213" data-name="Path 213" d="M153.66,302.473c0-.377-.009-.764,0-1.141a.6.6,0,1,1,1.188-.038q.028,1.188,0,2.377a.6.6,0,0,1-.622.613.608.608,0,0,1-.566-.67Z" transform="translate(-148.821 -279.592)" fill="#FF692B"/>
</svg>
