<?xml version="1.0" encoding="utf-8"?>
<!-- Generator: Adobe Illustrator 26.0.2, SVG Export Plug-In . SVG Version: 6.00 Build 0)  -->
<svg version="1.1" id="Layer_1" xmlns="http://www.w3.org/2000/svg" xmlns:xlink="http://www.w3.org/1999/xlink" x="0px" y="0px"
	 viewBox="0 0 500 500" style="enable-background:new 0 0 500 500; fill: #FF692B" xml:space="preserve">
<g>
	<path d="M500,202.9c0,1,0,2,0,3c-4,5.3-7.6,10.9-12,15.8c-6.1,6.8-12.6,13.3-19.2,19.7c-3.2,3.1-4.4,6.3-4.4,10.8
		c0.1,62.8,0.1,125.6,0.1,188.4c0,16.2-12.5,29.1-28.3,29.1c-124.1,0-248.3,0-372.4,0c-15.8,0-28.1-12.5-28.3-28.5
		c-0.1-14.7,0-29.3,0-44c0-24.9,0-49.8,0-74.7c0-8.2,0-8.2-7.8-8.2c-4.4,0-8.8,0.1-13.2,0c-6.2-0.1-10.3-3.4-12.8-9
		c-0.5-1.2-1.1-2.3-1.6-3.5c0-1,0-2,0-3c3.8-5.2,7.4-10.7,11.6-15.5c5.9-6.6,12.1-12.9,18.6-19c3.9-3.6,5.4-7.5,5.4-12.9
		c-0.2-62.5-0.1-125-0.1-187.5c0-16.7,12.3-29,28.7-29c123.8,0,247.7,0,371.5,0c16.2,0,28.7,12.6,28.7,29.1c0.1,14,0,28,0,42
		c0,26.2,0.1,52.4-0.1,78.6c0,4.3,1.2,5.9,5.5,5.6c5-0.3,10.1-0.1,15.1-0.1c6.4,0.1,11.2,3.5,13.5,9.5
		C499,200.9,499.5,201.8,500,202.9z M53.4,237.8c0.4,0.3,0.9,0.6,1.3,1c6.5-6,12.2-13.2,22.3-13.2c10.3-0.1,15.9,7.4,23.1,13
		c0.7-3.8,0.7-7.1,0.7-10.3c0-33.3-0.1-66.6,0.1-99.9c0.1-13.8,12-26.7,25.2-26.8c26.7-0.4,53.4-0.3,80.1,0c2.6,0,6,2.1,7.5,4.3
		c4.3,6.3-0.3,13.6-8.4,13.7c-24.4,0.1-48.8,0-73.2,0.1c-9.4,0-13.3,4-13.3,13.6c0,40.2,0,80.5-0.1,120.7c0,3.8,1.2,6.5,3.8,9.1
		c8.6,8.6,17,17.3,25.4,26c4.7,4.9,5.8,10.7,3.2,16.8c-2.5,6.1-7.5,8.8-14,8.7c-4.1-0.1-8.2,0.3-12.2-0.1c-5.1-0.5-6.3,1.6-6.2,6.5
		c0.3,16.6,0.1,33.3,0.1,50c0,11,3.5,14.5,14.3,14.5c77.8,0,155.6,0,233.4,0c11,0,14.6-3.7,14.6-14.8c0-39.6-0.1-79.1,0.1-118.7
		c0-4.3-1.2-7.4-4.2-10.4c-8.5-8.4-16.8-17-25.1-25.6c-4.5-4.7-5.8-10.3-3.2-16.4c2.6-6,7.4-9,13.9-8.9c4.2,0,8.5-0.3,12.7,0.1
		c4.5,0.4,5.9-1.3,5.9-5.9c-0.2-16.8-0.1-33.6-0.1-50.5c0-10.8-3.7-14.6-14.3-14.6c-23.8,0-47.5,0.1-71.3-0.1c-2.8,0-6.1-1.2-8.3-3
		c-2.7-2.3-3.4-5.8-1.7-9.5c1.8-3.9,4.7-5.6,8.9-5.6c25.2,0,50.5,0,75.7,0c16.8,0,28.9,12.3,28.9,29.3c0.1,20.3,0,40.6,0,60.8
		c0,16.5-0.7,17.2-17.1,17.2c-3.1,0-6.1,0-10.2,0c1.3,2,1.6,2.6,2,3c15.2,15.6,30.4,31.2,45.6,46.8c2.7,2.8,4.9,2.4,7.4-0.2
		c14.9-15.4,30-30.7,44.9-46.1c0.7-0.7,1-1.8,1.9-3.5c-3.4,0-6,0-8.6,0c-18.6,0-18.6,0-18.6-19c0-40.4,0-80.8,0-121.2
		c0-11.4-3.7-15.1-14.9-15.1c-121.1,0-242.2,0-363.3,0c-11.3,0-14.9,3.6-14.9,15c0,54.6,0,109.2,0,163.7
		C53.4,233.9,53.4,235.9,53.4,237.8z M400,264.9c-0.3,0.5-0.6,1-1,1.5c0,1.9,0,3.9,0,5.8c0,33.6-0.4,67.3,0.2,100.9
		c0.3,16.1-12.8,30.6-30.1,30.5c-79.4-0.4-158.9-0.4-238.3,0c-16.3,0.1-30.7-13.2-30.2-30.3c0.6-21.9,0.1-43.9,0.2-65.8
		c0-8.7,2.7-11.4,11.4-11.4c4.9,0,9.9,0,15.8,0c-1.2-2-1.6-2.8-2.2-3.5c-15-15.4-30-30.7-44.9-46.2c-2.8-2.9-5-2.8-7.8,0
		c-14.8,15.3-29.7,30.5-44.6,45.8c-0.7,0.7-1.2,1.8-2.5,3.8c5.5,0,10,0,14.4,0c10.7,0,12.9,2.3,12.9,12.9c0,42.7,0,85.4,0,128.1
		c0,10.4,3.8,14.3,14.1,14.3c121.6,0,243.2,0,364.7,0c10.2,0,14.1-4,14.2-14.4c0-55.1,0-110.1,0-165.2c0-1.7-0.3-3.4-0.6-7.2
		C430,284.7,414.9,283.1,400,264.9z"/>
	<path d="M250.2,101.3c5,0.1,9,4.2,9,9.1c0,4.9-4.2,9-9.1,9c-5.1,0-9.4-4.4-9.3-9.4C241,105.1,245.2,101.2,250.2,101.3z"/>
</g>
</svg>
