<svg width="500" height="500" viewBox="0 0 500 500" fill="#FFFFFF" xmlns="http://www.w3.org/2000/svg">
<path d="M306.39 256.866C308.602 259.598 309.903 262.851 312.245 263.891C314.586 264.932 317.839 264.412 320.571 263.761C322.003 263.371 323.173 261.68 324.475 260.509C350.366 234.617 376.257 208.726 402.148 182.835C405.141 179.842 408.133 176.98 410.865 173.988C414.118 170.345 414.118 165.27 411.126 162.018C407.873 158.505 402.929 158.505 398.896 162.018C398.375 162.538 397.855 163.059 397.464 163.449C368.971 191.942 340.478 220.436 312.114 248.929C309.772 251.141 308.471 253.873 306.39 256.866ZM329.289 153.431C346.072 153.431 359.733 139.9 359.603 123.116C359.603 106.462 345.682 92.6709 329.028 92.801C312.505 92.9311 298.974 106.332 298.974 123.116C299.104 140.03 312.505 153.431 329.289 153.431ZM231.188 200.529C230.928 195.455 229.366 192.853 225.984 191.552C222.341 190.121 218.958 191.032 216.226 193.764C207.118 202.871 197.881 211.979 188.643 221.347C184.61 225.38 184.48 230.324 187.992 233.967C191.505 237.61 196.84 237.35 200.873 233.446C209.981 224.469 219.088 215.362 228.065 206.124C229.627 204.172 230.537 201.7 231.188 200.529ZM223.382 140.68C228.195 140.81 231.838 137.298 231.969 132.614C232.099 127.8 228.326 123.766 223.512 123.766C218.958 123.766 215.185 127.67 215.055 132.223C215.055 136.777 218.698 140.55 223.382 140.68Z" fill="#FFFFFF"/>
<path d="M39.4105 468.68C31.474 463.605 30.9536 458.661 37.589 452.026C63.7405 425.874 89.892 399.593 116.174 373.441C118.255 371.36 118.906 369.278 119.036 366.416C119.817 333.238 135.559 309.949 166.135 296.548C166.655 296.288 167.436 296.028 169.778 294.857C167.436 293.426 165.614 292.515 164.443 291.344C154.685 281.586 144.797 271.958 135.039 262.07C119.686 246.457 119.686 224.339 135.299 208.596C153.124 190.641 170.949 172.947 188.773 155.122C189.814 154.081 190.855 153.04 192.026 152.39C195.409 150.048 199.832 150.698 202.565 153.561C205.427 156.423 205.817 160.717 203.605 164.23C202.695 165.661 201.394 166.832 200.223 168.003C182.918 185.307 165.614 202.611 148.31 219.915C138.292 229.934 138.292 240.863 148.31 251.011C160.8 263.501 173.29 275.991 185.781 288.482C190.465 293.165 196.059 293.165 200.873 288.352C211.542 277.683 221.95 266.754 233.01 256.345C251.224 239.041 281.149 246.587 288.695 270.527C292.859 283.928 289.606 295.898 279.718 305.786C268.399 317.235 256.949 328.685 245.63 339.874C244.329 341.175 242.768 342.216 241.076 343.647C244.849 347.16 247.581 350.282 250.834 352.754C257.86 358.219 267.618 357.959 274.644 352.494C276.075 351.323 277.376 350.022 278.807 348.721C333.192 294.336 387.576 240.082 441.961 185.567C452.63 174.898 452.63 164.23 442.091 153.561C409.564 121.034 377.038 88.5074 344.511 55.9807C333.842 45.3119 323.174 45.442 312.505 55.9807C295.07 73.415 277.636 90.8493 260.202 108.284C259.031 109.455 257.99 110.626 256.819 111.536C253.176 114.529 248.232 114.138 245.109 111.016C242.117 107.893 241.857 103.209 244.589 99.6966C245.37 98.6557 246.28 97.8751 247.191 96.9643C264.886 79.2698 282.58 61.4452 300.405 43.7507C317.319 26.8368 339.177 26.7067 355.96 43.6206C388.747 76.2774 421.404 109.064 454.191 141.851C470.975 158.765 470.975 180.623 454.061 197.407C422.835 228.632 391.61 259.858 360.384 291.214C358.172 293.426 356.221 296.288 355.31 299.28C344.381 328.424 333.582 357.568 322.913 386.842C313.546 412.473 295.851 429.127 269.57 436.543C250.184 442.008 230.798 447.602 211.282 452.937C206.988 454.108 203.475 456.059 200.613 459.312C197.36 462.695 193.717 465.687 190.334 468.81C188.643 468.81 186.952 468.81 185.26 468.81C177.584 463.736 177.194 458.791 183.699 452.286C186.431 449.554 189.294 446.952 191.766 444.089C194.758 440.837 198.271 439.015 202.565 437.844C223.512 432.12 244.459 426.135 265.406 420.15C285.703 414.295 299.494 401.544 306.91 381.638C311.594 368.758 316.538 355.747 321.352 342.866C323.434 337.142 325.515 331.417 327.597 325.692C327.077 325.302 326.686 324.912 326.166 324.521C325.385 325.822 324.735 327.253 323.694 328.294C312.505 339.614 301.185 350.933 289.866 362.122C273.863 377.865 251.875 377.865 235.872 361.992C233.92 360.171 232.489 357.829 230.668 355.877C228.065 358.219 226.374 360.04 224.422 361.472C221.04 363.944 216.486 363.553 213.493 360.691C210.631 357.829 210.241 353.145 212.583 349.762C213.493 348.461 214.664 347.42 215.835 346.379C232.749 329.465 249.663 312.551 266.577 295.507C267.358 294.727 268.138 293.946 268.919 293.165C275.424 286.14 275.554 275.861 269.179 269.356C262.674 262.59 252.005 262.33 245.109 269.226C234.701 279.374 224.162 289.392 214.404 300.191C208.549 306.566 202.304 309.299 193.457 309.169C175.763 308.778 161.191 316.194 149.871 329.856C140.113 341.565 136.34 355.096 137.121 369.929C137.381 375.653 135.559 379.817 131.396 383.85C104.724 410.392 78.1824 436.934 51.6406 463.605C49.5589 465.687 47.0868 467.379 44.7449 469.2C42.2729 468.68 40.9718 468.68 39.4105 468.68Z" fill="#FFFFFF"/>
<path d="M306.39 256.866C308.472 253.743 309.643 251.011 311.724 249.059C340.218 220.566 368.711 191.942 397.074 163.579C397.595 163.059 398.115 162.538 398.506 162.148C402.539 158.635 407.353 158.765 410.736 162.148C413.988 165.401 413.988 170.475 410.475 174.118C407.743 177.24 404.621 180.103 401.758 182.965C375.867 208.856 349.976 234.748 324.084 260.639C322.783 261.94 321.743 263.631 320.181 263.891C317.449 264.412 314.066 265.062 311.854 264.022C309.903 262.72 308.602 259.598 306.39 256.866Z" fill="#FFFFFF"/>
<path d="M329.289 153.431C312.375 153.431 298.974 139.9 298.974 123.116C299.104 106.592 312.505 93.0612 329.028 92.801C345.552 92.6709 359.473 106.462 359.603 123.116C359.864 139.9 346.202 153.431 329.289 153.431ZM329.549 136.387C336.835 136.257 342.95 130.142 342.69 122.986C342.429 115.96 336.575 109.975 329.419 109.975C322.263 109.975 316.148 116.09 316.148 123.376C316.148 130.662 322.133 136.387 329.549 136.387Z" fill="#FFFFFF"/>
<path d="M231.188 200.529C230.538 201.7 229.757 204.172 228.065 205.864C219.218 215.101 209.981 224.079 200.873 233.186C196.71 237.35 191.505 237.35 187.993 233.707C184.61 230.194 184.74 225.25 188.643 221.086C197.751 211.849 206.858 202.741 216.226 193.504C218.958 190.771 222.341 189.731 225.984 191.292C229.367 192.853 231.058 195.455 231.188 200.529Z" fill="#FFFFFF"/>
<path d="M223.382 140.68C218.698 140.55 215.055 136.777 215.055 132.223C215.055 127.67 218.958 123.766 223.512 123.766C228.326 123.766 232.099 127.8 231.969 132.614C231.839 137.297 228.196 140.68 223.382 140.68Z" fill="#FFFFFF"/>
</svg>
