<svg width="500" height="500" viewBox="0 0 500 500" fill="#FFFFFF" xmlns="http://www.w3.org/2000/svg">
<path d="M315.882 116.25C315.624 116.121 315.495 115.992 315.237 115.863C315.495 116.121 315.624 116.121 315.882 116.25Z" fill="#FFFFFF"/>
<path d="M318.203 118.055C317.945 117.797 317.558 117.41 317.3 117.281C317.558 117.41 317.816 117.797 318.203 118.055Z" fill="#FFFFFF"/>
<path d="M316.914 117.024C316.656 116.766 316.527 116.766 316.269 116.508C316.527 116.637 316.785 116.895 316.914 117.024Z" fill="#FFFFFF"/>
<path d="M214.007 389.764C214.265 389.764 214.652 389.764 214.91 389.764C214.652 389.635 214.394 389.764 214.007 389.764Z" fill="#FFFFFF"/>
<path d="M209.365 388.991C209.107 388.862 208.849 388.862 208.591 388.733C208.978 388.862 209.236 388.991 209.365 388.991Z" fill="#FFFFFF"/>
<path d="M314.85 115.734C314.592 115.605 314.463 115.476 314.205 115.476C314.463 115.605 314.592 115.605 314.85 115.734Z" fill="#FFFFFF"/>
<path d="M211.17 389.377C210.912 389.377 210.654 389.249 210.396 389.249C210.783 389.249 211.041 389.377 211.17 389.377Z" fill="#FFFFFF"/>
<path d="M204.335 386.669C204.078 386.54 203.949 386.411 203.691 386.282C203.82 386.54 204.078 386.54 204.335 386.669Z" fill="#FFFFFF"/>
<path d="M206.012 387.701C205.754 387.572 205.496 387.443 205.367 387.443C205.496 387.443 205.754 387.572 206.012 387.701Z" fill="#FFFFFF"/>
<path d="M207.688 388.346C207.431 388.217 207.173 388.088 207.044 388.088C207.173 388.346 207.431 388.346 207.688 388.346Z" fill="#FFFFFF"/>
<path d="M202.53 385.509C202.272 385.38 202.272 385.251 202.014 385.122C202.143 385.251 202.401 385.38 202.53 385.509Z" fill="#FFFFFF"/>
<path d="M335.096 166.671C335.354 166.929 335.483 166.929 335.741 167.058C335.483 166.929 335.225 166.8 335.096 166.671Z" fill="#FFFFFF"/>
<path d="M336.128 167.316C336.386 167.445 336.386 167.574 336.643 167.574C336.515 167.574 336.257 167.445 336.128 167.316Z" fill="#FFFFFF"/>
<path d="M338.191 168.348C338.449 168.477 338.578 168.477 338.707 168.606C338.449 168.477 338.449 168.348 338.191 168.348Z" fill="#FFFFFF"/>
<path d="M333.807 165.511C334.065 165.769 334.451 166.156 334.709 166.285C334.451 166.156 334.194 165.898 333.807 165.511Z" fill="#FFFFFF"/>
<path d="M340.254 168.864C340.512 168.864 340.641 168.992 340.899 168.992C340.641 168.864 340.512 168.864 340.254 168.864Z" fill="#FFFFFF"/>
<path d="M343.478 168.864C343.736 168.864 343.736 168.864 343.994 168.735C343.865 168.735 343.736 168.864 343.478 168.864Z" fill="#FFFFFF"/>
<path d="M339.223 168.735C339.481 168.735 339.61 168.864 339.867 168.864C339.61 168.735 339.352 168.735 339.223 168.735Z" fill="#FFFFFF"/>
<path d="M313.689 115.218C313.432 115.089 313.303 114.96 313.045 114.96C313.303 115.089 313.56 115.218 313.689 115.218Z" fill="#FFFFFF"/>
<path d="M304.147 116.121C304.018 116.25 303.889 116.25 303.76 116.379C303.889 116.25 304.018 116.121 304.147 116.121Z" fill="#FFFFFF"/>
<path d="M305.05 115.605C304.921 115.734 304.792 115.734 304.663 115.863C304.792 115.605 305.05 115.605 305.05 115.605Z" fill="#FFFFFF"/>
<path d="M307.242 114.832C306.984 114.832 306.984 114.96 306.726 114.96C306.855 114.832 306.984 114.832 307.242 114.832Z" fill="#FFFFFF"/>
<path d="M398.8 70.8575C398.155 70.0837 397.51 69.31 396.737 68.7942C397.51 69.439 398.155 70.2127 398.8 70.8575Z" fill="#FFFFFF"/>
<path d="M216.715 389.377C216.457 389.506 216.07 389.506 215.684 389.506C216.199 389.506 216.457 389.506 216.715 389.377Z" fill="#FFFFFF"/>
<path d="M328.003 66.9888C328.39 67.1177 328.648 67.2467 329.164 67.2467C328.777 67.1177 328.39 67.1177 328.003 66.9888Z" fill="#FFFFFF"/>
<path d="M329.293 67.2471C329.68 67.376 330.067 67.505 330.454 67.6339C330.067 67.6339 329.68 67.376 329.293 67.2471Z" fill="#FFFFFF"/>
<path d="M325.038 66.7312C325.424 66.7312 325.94 66.7312 326.327 66.8602C325.94 66.7312 325.424 66.7312 325.038 66.7312Z" fill="#FFFFFF"/>
<path d="M326.585 66.7312C326.972 66.7312 327.359 66.8602 327.746 66.9891C327.488 66.8602 326.972 66.7312 326.585 66.7312Z" fill="#FFFFFF"/>
<path d="M331.872 68.5366C332.13 68.7945 332.517 68.9235 332.904 69.1814C332.517 68.9235 332.259 68.6656 331.872 68.5366Z" fill="#FFFFFF"/>
<path d="M382.165 69.5679C382.423 69.31 382.81 69.0521 382.939 68.9231C382.681 69.0521 382.423 69.31 382.165 69.5679Z" fill="#FFFFFF"/>
<path d="M381.004 70.4708C381.262 70.2128 381.649 69.9549 381.778 69.697C381.649 69.9549 381.391 70.3418 381.004 70.4708Z" fill="#FFFFFF"/>
<path d="M333.033 69.1814C333.291 69.4393 333.678 69.6972 334.064 69.9551C333.806 69.8262 333.42 69.4393 333.033 69.1814Z" fill="#FFFFFF"/>
<path d="M334.323 70.2129C334.58 70.4708 334.967 70.8577 335.354 71.2445C334.967 70.8577 334.709 70.4708 334.323 70.2129Z" fill="#FFFFFF"/>
<path d="M60.4214 234.373C61.1951 232.955 61.9689 231.665 63.0005 230.375C61.9689 231.665 61.1951 233.084 60.4214 234.373Z" fill="#FFFFFF"/>
<path d="M188.216 402.144C187.829 401.886 187.314 401.499 186.927 401.112C187.443 401.628 187.829 401.886 188.216 402.144Z" fill="#FFFFFF"/>
<path d="M184.992 399.822C184.605 399.564 184.09 399.178 183.703 398.791C184.09 399.049 184.476 399.436 184.992 399.822Z" fill="#FFFFFF"/>
<path d="M190.021 403.82C189.635 403.434 189.377 403.176 188.861 402.789C189.248 403.047 189.635 403.434 190.021 403.82Z" fill="#FFFFFF"/>
<path d="M322.072 66.8602C322.459 66.7312 322.974 66.7312 323.361 66.7312C322.974 66.7312 322.459 66.8602 322.072 66.8602Z" fill="#FFFFFF"/>
<path d="M330.712 67.8918C331.099 68.1498 331.357 68.1498 331.873 68.4077C331.357 68.1498 331.099 68.0208 330.712 67.8918Z" fill="#FFFFFF"/>
<path d="M400.734 74.7261C400.992 75.6288 401.121 76.6604 401.121 77.5631C401.121 76.6604 400.863 75.7577 400.734 74.7261Z" fill="#FFFFFF"/>
<path d="M399.961 153.905C399.832 153.26 399.703 152.744 399.703 152.229C399.703 152.744 399.703 153.26 399.961 153.905Z" fill="#FFFFFF"/>
<path d="M225.355 385.638C225.097 385.896 224.71 386.154 224.323 386.411C224.71 386.154 225.097 385.896 225.355 385.638Z" fill="#FFFFFF"/>
<path d="M344.639 168.735C344.897 168.735 344.897 168.606 345.155 168.606C344.897 168.606 344.768 168.606 344.639 168.735Z" fill="#FFFFFF"/>
<path d="M218.521 388.99C218.263 389.119 217.876 389.248 217.489 389.248C217.876 389.248 218.263 389.119 218.521 388.99Z" fill="#FFFFFF"/>
<path d="M220.326 388.474C220.068 388.603 219.681 388.732 219.294 388.861C219.681 388.732 219.939 388.603 220.326 388.474Z" fill="#FFFFFF"/>
<path d="M223.808 386.798C223.55 387.056 223.163 387.185 222.776 387.443C223.163 387.185 223.421 387.056 223.808 386.798Z" fill="#FFFFFF"/>
<path d="M222.131 387.701C221.874 387.959 221.487 387.959 221.1 388.217C221.358 388.088 221.745 387.959 222.131 387.701Z" fill="#FFFFFF"/>
<path d="M388.355 66.6023C388.613 66.6023 388.999 66.4734 389.386 66.4734C389.128 66.6023 388.742 66.6023 388.355 66.6023Z" fill="#FFFFFF"/>
<path d="M385.131 67.6339C385.389 67.505 385.775 67.376 386.033 67.2471C385.775 67.2471 385.517 67.376 385.131 67.6339Z" fill="#FFFFFF"/>
<path d="M386.162 67.118C386.42 66.9891 386.807 66.8601 387.194 66.8601C386.807 66.8601 386.549 66.9891 386.162 67.118Z" fill="#FFFFFF"/>
<path d="M387.452 66.7313C387.71 66.6023 388.097 66.6023 388.484 66.4734C388.097 66.7313 387.71 66.7313 387.452 66.7313Z" fill="#FFFFFF"/>
<path d="M384.099 68.1494C384.357 67.8915 384.744 67.8915 385.002 67.6335C384.615 67.7625 384.357 68.0204 384.099 68.1494Z" fill="#FFFFFF"/>
<path d="M389.644 66.6023C390.031 66.6023 390.418 66.6023 390.805 66.7312C390.547 66.6023 390.16 66.6023 389.644 66.6023Z" fill="#FFFFFF"/>
<path d="M391.063 66.7312C391.45 66.8602 391.837 66.8602 392.224 66.9891C391.966 66.7312 391.579 66.7312 391.063 66.7312Z" fill="#FFFFFF"/>
<path d="M398.8 70.8574C399.445 71.6312 399.961 72.4049 400.219 73.4365C399.832 72.5338 399.316 71.7601 398.8 70.8574Z" fill="#FFFFFF"/>
<path d="M383.068 68.7941C383.326 68.5362 383.583 68.4073 383.841 68.2783C383.712 68.4073 383.326 68.5362 383.068 68.7941Z" fill="#FFFFFF"/>
<path d="M337.159 167.832C337.417 167.961 337.417 168.09 337.675 168.09C337.546 168.09 337.288 167.961 337.159 167.832Z" fill="#FFFFFF"/>
<path d="M382.81 259.777C383.325 258.875 383.841 257.972 384.228 256.94C383.841 257.972 383.454 258.875 382.81 259.777Z" fill="#FFFFFF"/>
<path d="M225.871 385.122C226.387 384.735 226.902 384.219 227.418 383.703C226.902 384.219 226.387 384.735 225.871 385.122Z" fill="#FFFFFF"/>
<path d="M417.757 216.706C418.015 217.351 418.143 217.867 418.401 218.64C418.143 217.996 418.015 217.222 417.757 216.706Z" fill="#FFFFFF"/>
<path d="M345.671 168.348C345.8 168.219 345.929 168.219 346.058 168.09C345.929 168.219 345.8 168.219 345.671 168.348Z" fill="#FFFFFF"/>
<path d="M441.871 351.722C441.871 344.759 441.871 337.795 441.871 330.96C441.871 321.289 441.871 311.488 441.871 301.946C441.871 270.738 441.871 238.5 442 206.777C442 202.392 440.839 199.039 438.26 195.557C432.199 187.691 426.267 179.696 420.465 171.83C414.79 164.092 408.73 156.097 402.798 148.231C400.863 145.652 400.219 143.331 400.863 140.493C401.121 139.591 401.121 138.688 401.25 137.656C401.379 136.754 401.508 135.851 401.637 134.948C402.411 130.822 401.379 127.34 398.155 124.245C391.965 118.055 385.647 111.736 379.586 105.676L377.007 103.096C376.491 102.581 376.104 102.065 375.588 101.549C375.33 101.291 375.072 100.904 374.814 100.646L374.17 100.002L374.814 99.3568C377.264 96.9066 379.586 94.5854 382.036 92.2642C387.452 86.9771 392.997 81.5609 398.284 76.0158C401.25 73.0499 402.282 69.0523 401.25 65.4415C400.219 61.9597 397.381 59.2517 393.642 58.349C392.868 58.0911 391.965 58.0911 391.063 58.0911C388.226 58.0911 385.776 59.2517 383.196 61.8308C377.007 68.0206 370.559 74.4684 364.369 80.6582L362.693 82.3347C362.048 82.9794 361.532 83.4953 360.758 84.14C360.5 84.3979 360.113 84.7848 359.727 85.1717L359.082 85.8165L358.437 85.1717C356.245 82.9794 354.053 80.7872 351.86 78.595C346.573 73.3078 341.286 68.0206 336.128 62.7335C333.291 59.7675 330.325 58.4779 326.456 58.4779C325.553 58.4779 324.651 58.6069 323.748 58.7358C283.772 64.5388 251.017 69.3102 220.584 73.4367C213.749 74.3394 208.591 76.9185 204.078 81.432C161.522 124.245 119.096 166.8 77.9592 207.679C68.4165 217.222 60.2923 226.249 58.1001 239.015V249.332C60.1634 262.614 68.4165 271.641 77.4434 280.668C100.268 303.364 123.351 326.318 145.661 348.756C158.427 361.523 171.71 374.805 184.734 387.83C185.895 388.99 187.184 389.893 188.474 390.796C190.666 392.343 193.116 394.149 194.277 396.47C195.437 398.791 195.566 401.757 195.566 404.465C195.566 406.012 195.695 407.689 195.824 409.236C198.403 424.711 211.944 438.251 227.934 441.088C228.579 441.217 229.095 441.346 229.74 441.604C229.998 441.733 230.126 441.733 230.384 441.862H406.279C406.924 441.604 407.698 441.475 408.343 441.217C409.89 440.83 411.567 440.444 413.114 439.928C429.878 434.641 441.226 419.295 441.355 401.499C441.871 384.735 441.871 367.971 441.871 351.722ZM201.627 374.934C163.586 337.021 124.383 297.819 85.0518 258.359C76.7986 250.106 76.5407 238.113 84.7939 229.988C130.186 184.467 176.094 138.688 219.036 95.746C220.197 94.5854 221.615 93.8117 223.034 93.6827C255.273 88.9114 288.285 84.269 321.298 79.6266C321.556 79.6266 321.814 79.6266 321.943 79.6266C322.974 79.6266 324.522 79.8845 325.424 80.7872C330.196 85.5585 334.967 90.2009 339.867 95.2302C341.415 96.7777 342.833 98.1962 344.252 99.6147L344.897 100.259L344.252 100.904L340.899 104.128C337.159 107.868 333.549 111.35 329.938 114.96C329.551 115.347 329.293 115.605 328.777 116.121C328.519 116.379 328.261 116.508 328.004 116.766L327.359 117.411L326.714 116.766C325.94 115.992 325.167 115.218 324.264 114.316C322.587 112.51 320.911 110.834 319.235 109.157C317.042 107.094 314.334 105.805 311.497 105.805C308.918 105.805 306.339 106.836 304.405 108.771C302.341 110.705 301.31 113.284 301.31 115.992C301.31 118.7 302.47 121.408 304.534 123.6C315.753 134.948 326.069 145.394 336.257 155.323C338.32 157.387 340.899 158.418 343.607 158.418C346.186 158.418 348.765 157.258 350.7 155.452C354.826 151.455 354.697 145.007 350.442 140.622C348.765 138.946 346.96 137.27 345.284 135.851C344.639 135.206 343.736 134.562 343.22 133.917L342.447 133.272L343.091 132.627L349.668 126.051L359.34 116.379L359.984 115.734L360.629 116.379C361.919 117.668 363.208 118.958 364.498 120.248C369.14 125.019 374.041 129.79 378.812 134.691C379.844 135.851 379.973 137.785 379.715 138.946C374.556 175.054 370.043 206.905 365.787 236.565C365.53 238.242 364.627 240.047 363.337 241.337C312.529 292.403 269.974 334.958 229.482 375.192C225.613 379.061 220.584 381.382 215.426 381.382C210.654 381.124 205.625 378.932 201.627 374.934ZM421.238 400.467C421.238 412.589 412.727 421.1 400.476 421.1C373.396 421.1 346.444 421.1 319.492 421.1C291.767 421.1 264.042 421.1 236.445 421.1C225.355 421.1 217.747 414.266 216.07 402.789L215.812 401.628H216.973C231.932 401.37 242.248 392.214 250.63 383.703C290.735 343.211 331.872 302.332 371.59 262.614L380.875 253.458C383.97 250.363 385.647 247.011 386.162 242.626C388.355 226.12 390.805 209.356 393.255 192.978C393.9 188.207 394.673 183.307 395.318 178.535C395.447 178.148 395.576 177.762 395.705 177.375C395.834 177.117 395.963 176.988 395.963 176.73L396.608 175.182L397.768 176.472C398.026 176.859 398.413 177.117 398.671 177.504C399.316 178.148 399.703 178.664 400.219 179.309L403.829 184.08C409.116 191.044 414.404 198.008 419.562 205.229C420.722 206.777 421.367 208.711 421.367 210.516C421.238 267.643 421.238 329.8 421.238 400.467Z" fill="#FFFFFF"/>
<path d="M347.605 167.316C347.734 167.187 347.863 167.058 347.992 167.058C347.863 167.316 347.734 167.316 347.605 167.316Z" fill="#FFFFFF"/>
<path d="M348.508 166.671C348.637 166.543 348.765 166.543 348.765 166.414C348.894 166.543 348.637 166.671 348.508 166.671Z" fill="#FFFFFF"/>
<path d="M353.021 156.742C353.021 157.129 353.15 157.387 353.15 157.903C353.021 157.387 353.021 157 353.021 156.742Z" fill="#FFFFFF"/>
<path d="M349.668 149.52C347.863 147.586 345.8 145.91 343.994 144.233C345.8 145.781 347.734 147.715 349.668 149.52Z" fill="#FFFFFF"/>
<path d="M346.702 167.832C346.831 167.703 346.96 167.703 347.089 167.574C346.96 167.832 346.702 167.832 346.702 167.832Z" fill="#FFFFFF"/>
<path d="M206.786 329.8C206.657 329.929 206.528 330.058 206.528 330.187C206.657 329.929 206.657 329.8 206.786 329.8Z" fill="#FFFFFF"/>
<path d="M208.462 327.092C208.333 327.221 208.333 327.35 208.204 327.479C208.204 327.221 208.333 327.092 208.462 327.092Z" fill="#FFFFFF"/>
<path d="M204.851 331.734C204.722 331.863 204.593 331.992 204.593 331.992C204.722 331.992 204.851 331.863 204.851 331.734Z" fill="#FFFFFF"/>
<path d="M208.849 325.931C208.72 326.06 208.72 326.189 208.591 326.318C208.72 326.189 208.849 326.189 208.849 325.931Z" fill="#FFFFFF"/>
<path d="M205.625 331.218C205.496 331.347 205.367 331.476 205.367 331.476C205.238 331.347 205.496 331.218 205.625 331.218Z" fill="#FFFFFF"/>
<path d="M199.951 333.926C199.693 333.926 199.693 333.926 199.435 334.055C199.693 333.926 199.822 333.926 199.951 333.926Z" fill="#FFFFFF"/>
<path d="M205.883 330.703C206.012 330.574 206.141 330.445 206.141 330.445C206.141 330.574 206.012 330.703 205.883 330.703Z" fill="#FFFFFF"/>
<path d="M200.854 333.668C200.725 333.668 200.596 333.797 200.467 333.797C200.596 333.797 200.725 333.668 200.854 333.668Z" fill="#FFFFFF"/>
<path d="M204.207 332.25C204.078 332.379 203.949 332.508 203.82 332.508C203.949 332.508 203.949 332.379 204.207 332.25Z" fill="#FFFFFF"/>
<path d="M207.946 327.995C207.817 328.124 207.688 328.253 207.688 328.381C207.688 328.253 207.817 328.124 207.946 327.995Z" fill="#FFFFFF"/>
<path d="M207.43 328.897C207.301 329.026 207.172 329.155 207.172 329.284C207.172 329.155 207.301 329.026 207.43 328.897Z" fill="#FFFFFF"/>
<path d="M203.433 332.766C203.304 332.895 203.175 332.895 203.046 333.024C203.046 332.895 203.304 332.766 203.433 332.766Z" fill="#FFFFFF"/>
<path d="M202.53 333.153C202.401 333.282 202.272 333.282 202.143 333.411C202.272 333.282 202.53 333.153 202.53 333.153Z" fill="#FFFFFF"/>
<path d="M198.017 333.927C203.046 333.927 206.27 331.218 208.333 325.415C216.844 299.753 225.484 274.091 233.995 248.429L242.893 222.122C244.57 216.964 246.375 211.806 248.18 206.648C252.436 194.01 256.691 181.114 260.947 168.477C262.108 164.995 261.85 161.384 260.302 158.676C258.755 156.097 256.305 154.55 253.21 153.905C252.565 153.776 252.049 153.647 251.404 153.647C246.891 153.647 243.022 157 241.217 162.416C233.222 186.531 225.097 210.645 217.102 234.889L200.467 284.666C199.177 288.534 197.888 292.403 196.598 296.272C194.019 304.009 191.311 312.004 188.732 319.999C187.571 323.61 188.087 327.221 190.021 329.929C191.698 332.379 194.793 333.927 198.017 333.927Z" fill="#FFFFFF"/>
<path d="M201.756 333.411C201.627 333.411 201.498 333.54 201.369 333.54C201.498 333.411 201.627 333.411 201.756 333.411Z" fill="#FFFFFF"/>
<path d="M293.315 253.072C293.057 253.2 293.057 253.329 292.799 253.329C292.928 253.2 293.186 253.2 293.315 253.072Z" fill="#FFFFFF"/>
<path d="M278.098 238.886C278.227 238.629 278.227 238.5 278.356 238.242C278.227 238.5 278.227 238.758 278.098 238.886Z" fill="#FFFFFF"/>
<path d="M277.582 241.078C277.582 240.82 277.711 240.563 277.711 240.434C277.582 240.563 277.582 240.949 277.582 241.078Z" fill="#FFFFFF"/>
<path d="M278.485 237.855C278.614 237.597 278.743 237.468 278.743 237.339C278.743 237.468 278.614 237.726 278.485 237.855Z" fill="#FFFFFF"/>
<path d="M279.129 236.952C279.258 236.694 279.387 236.694 279.387 236.437C279.387 236.565 279.258 236.823 279.129 236.952Z" fill="#FFFFFF"/>
<path d="M292.283 253.458C292.025 253.587 291.896 253.587 291.767 253.716C291.896 253.587 292.154 253.458 292.283 253.458Z" fill="#FFFFFF"/>
<path d="M291.251 253.845C290.993 253.845 290.864 253.974 290.606 253.974C290.864 253.845 291.122 253.845 291.251 253.845Z" fill="#FFFFFF"/>
<path d="M277.324 242.626C277.324 242.239 277.324 241.852 277.453 241.465C277.453 241.852 277.324 242.239 277.324 242.626Z" fill="#FFFFFF"/>
<path d="M290.22 253.974C289.962 253.974 289.833 254.103 289.575 254.103C289.833 254.103 289.962 253.974 290.22 253.974Z" fill="#FFFFFF"/>
<path d="M277.711 240.047C277.84 239.789 277.84 239.66 277.969 239.402C277.969 239.531 277.84 239.66 277.711 240.047Z" fill="#FFFFFF"/>
<path d="M320.266 254.748C320.137 255.006 320.008 255.264 320.008 255.522C320.137 255.264 320.137 255.006 320.266 254.748Z" fill="#FFFFFF"/>
<path d="M282.096 233.728C282.354 233.599 282.354 233.47 282.612 233.47C282.354 233.47 282.096 233.728 282.096 233.728Z" fill="#FFFFFF"/>
<path d="M321.298 251.524C321.169 251.782 321.169 252.04 321.04 252.298C321.169 252.04 321.298 251.911 321.298 251.524Z" fill="#FFFFFF"/>
<path d="M282.998 233.213C283.256 233.084 283.256 232.955 283.514 232.955C283.256 232.955 283.127 233.084 282.998 233.213Z" fill="#FFFFFF"/>
<path d="M312.4 266.999C312.142 267.256 312.013 267.385 311.755 267.643C312.013 267.385 312.271 267.127 312.4 266.999Z" fill="#FFFFFF"/>
<path d="M281.193 234.502C281.322 234.373 281.451 234.244 281.58 234.115C281.451 234.115 281.322 234.244 281.193 234.502Z" fill="#FFFFFF"/>
<path d="M280.419 235.147C280.548 235.018 280.677 234.889 280.806 234.76C280.806 234.889 280.548 235.018 280.419 235.147Z" fill="#FFFFFF"/>
<path d="M279.774 236.05C279.903 235.792 280.032 235.792 280.161 235.534C279.903 235.663 279.903 235.921 279.774 236.05Z" fill="#FFFFFF"/>
<path d="M320.911 253.2C320.782 253.458 320.653 253.716 320.653 253.974C320.653 253.716 320.782 253.458 320.911 253.2Z" fill="#FFFFFF"/>
<path d="M298.215 248.816C298.086 249.074 297.957 249.074 297.957 249.332C297.828 249.203 298.086 249.074 298.215 248.816Z" fill="#FFFFFF"/>
<path d="M299.891 243.142C299.891 243.529 299.891 243.916 299.762 244.303C299.762 243.916 299.891 243.529 299.891 243.142Z" fill="#FFFFFF"/>
<path d="M319.621 256.295C319.492 256.553 319.363 256.811 319.363 257.069C319.492 256.811 319.621 256.553 319.621 256.295Z" fill="#FFFFFF"/>
<path d="M293.573 276.283C293.315 276.283 293.057 276.412 292.799 276.412C293.057 276.412 293.186 276.412 293.573 276.283Z" fill="#FFFFFF"/>
<path d="M311.239 268.03C310.981 268.288 310.852 268.417 310.594 268.546C310.852 268.546 310.981 268.288 311.239 268.03Z" fill="#FFFFFF"/>
<path d="M294.218 252.556C293.96 252.685 293.96 252.814 293.702 252.814C293.96 252.814 294.089 252.685 294.218 252.556Z" fill="#FFFFFF"/>
<path d="M291.767 276.541C291.509 276.541 291.122 276.541 290.993 276.67C291.251 276.67 291.509 276.67 291.767 276.541Z" fill="#FFFFFF"/>
<path d="M299.633 244.689C299.633 244.947 299.504 245.205 299.504 245.334C299.633 245.205 299.633 244.947 299.633 244.689Z" fill="#FFFFFF"/>
<path d="M296.023 251.266C295.894 251.395 295.765 251.524 295.636 251.653C295.765 251.524 295.894 251.395 296.023 251.266Z" fill="#FFFFFF"/>
<path d="M296.796 250.622C296.667 250.751 296.538 250.879 296.409 251.008C296.538 250.879 296.667 250.622 296.796 250.622Z" fill="#FFFFFF"/>
<path d="M297.441 249.719C297.312 249.977 297.183 249.977 297.054 250.235C297.312 250.106 297.312 249.848 297.441 249.719Z" fill="#FFFFFF"/>
<path d="M295.12 252.04C294.862 252.169 294.862 252.297 294.604 252.297C294.862 252.169 294.991 252.04 295.12 252.04Z" fill="#FFFFFF"/>
<path d="M310.079 269.191C309.821 269.449 309.692 269.449 309.434 269.707C309.563 269.449 309.692 269.32 310.079 269.191Z" fill="#FFFFFF"/>
<path d="M299.504 245.85C299.376 246.108 299.376 246.237 299.247 246.495C299.376 246.237 299.376 246.108 299.504 245.85Z" fill="#FFFFFF"/>
<path d="M299.118 246.882C298.989 247.14 298.989 247.268 298.86 247.526C298.989 247.268 299.118 247.011 299.118 246.882Z" fill="#FFFFFF"/>
<path d="M298.602 247.913C298.473 248.171 298.344 248.3 298.344 248.429C298.473 248.3 298.602 248.042 298.602 247.913Z" fill="#FFFFFF"/>
<path d="M315.495 263.388C315.237 263.646 315.237 263.775 314.979 264.032C315.237 263.775 315.495 263.517 315.495 263.388Z" fill="#FFFFFF"/>
<path d="M314.592 264.549C314.335 264.806 314.206 264.935 314.077 265.193C314.206 265.064 314.464 264.806 314.592 264.549Z" fill="#FFFFFF"/>
<path d="M305.952 271.899C305.694 272.028 305.437 272.157 305.308 272.286C305.437 272.157 305.823 272.157 305.952 271.899Z" fill="#FFFFFF"/>
<path d="M304.534 272.673C304.276 272.802 304.018 272.931 303.889 273.059C304.147 273.059 304.276 272.931 304.534 272.673Z" fill="#FFFFFF"/>
<path d="M313.561 265.838C313.303 266.096 313.174 266.225 312.916 266.483C313.174 266.225 313.303 266.096 313.561 265.838Z" fill="#FFFFFF"/>
<path d="M318.332 259.261C318.203 259.519 318.074 259.777 317.945 259.906C317.945 259.777 318.074 259.519 318.332 259.261Z" fill="#FFFFFF"/>
<path d="M307.371 271.125C307.113 271.383 306.855 271.383 306.726 271.512C306.855 271.383 307.113 271.254 307.371 271.125Z" fill="#FFFFFF"/>
<path d="M300.02 274.736C299.762 274.865 299.504 274.994 299.247 274.994C299.504 274.865 299.762 274.865 300.02 274.736Z" fill="#FFFFFF"/>
<path d="M298.472 275.251C298.215 275.38 297.957 275.38 297.699 275.509C297.957 275.38 298.215 275.38 298.472 275.251Z" fill="#FFFFFF"/>
<path d="M317.429 260.68C317.3 260.938 317.171 261.196 316.913 261.325C317.171 261.196 317.3 260.938 317.429 260.68Z" fill="#FFFFFF"/>
<path d="M296.797 275.768C296.539 275.897 296.281 275.897 296.023 276.025C296.281 275.768 296.668 275.768 296.797 275.768Z" fill="#FFFFFF"/>
<path d="M301.568 274.091C301.31 274.22 301.052 274.349 300.794 274.349C301.052 274.349 301.31 274.22 301.568 274.091Z" fill="#FFFFFF"/>
<path d="M316.527 262.098C316.269 262.356 316.269 262.614 316.011 262.743C316.269 262.485 316.398 262.227 316.527 262.098Z" fill="#FFFFFF"/>
<path d="M318.977 257.843C318.848 258.101 318.719 258.359 318.59 258.488C318.719 258.359 318.848 257.972 318.977 257.843Z" fill="#FFFFFF"/>
<path d="M303.115 273.576C302.857 273.705 302.599 273.834 302.342 273.834C302.599 273.705 302.857 273.576 303.115 273.576Z" fill="#FFFFFF"/>
<path d="M308.66 270.094C308.402 270.351 308.144 270.351 308.015 270.609C308.273 270.48 308.531 270.351 308.66 270.094Z" fill="#FFFFFF"/>
<path d="M286.996 231.665C287.254 231.665 287.383 231.536 287.641 231.536C287.383 231.665 287.125 231.665 286.996 231.665Z" fill="#FFFFFF"/>
<path d="M285.964 231.923C286.222 231.923 286.351 231.794 286.609 231.794C286.222 231.794 286.093 231.923 285.964 231.923Z" fill="#FFFFFF"/>
<path d="M284.933 232.31C285.191 232.181 285.319 232.181 285.448 232.052C285.319 232.052 285.062 232.181 284.933 232.31Z" fill="#FFFFFF"/>
<path d="M283.901 232.696C284.159 232.567 284.159 232.438 284.417 232.438C284.288 232.438 284.03 232.567 283.901 232.696Z" fill="#FFFFFF"/>
<path d="M321.685 249.977C321.556 250.234 321.556 250.492 321.427 250.75C321.556 250.492 321.685 250.234 321.685 249.977Z" fill="#FFFFFF"/>
<path d="M321.943 248.3C321.943 248.558 321.814 248.816 321.814 248.945C321.943 248.816 321.943 248.558 321.943 248.3Z" fill="#FFFFFF"/>
<path d="M322.33 246.495C322.33 246.753 322.201 246.882 322.201 247.14C322.201 247.011 322.201 246.753 322.33 246.495Z" fill="#FFFFFF"/>
<path d="M295.249 276.026C294.991 276.155 294.733 276.155 294.475 276.155C294.604 276.155 294.991 276.155 295.249 276.026Z" fill="#FFFFFF"/>
<path d="M322.459 244.818C322.459 245.076 322.459 245.205 322.33 245.463C322.459 245.205 322.459 245.076 322.459 244.818Z" fill="#FFFFFF"/>
<path d="M255.789 242.755C255.66 260.809 270.232 275.639 288.285 275.768H288.543C306.855 275.768 321.298 261.454 321.427 243.142C321.556 234.373 318.074 226.12 311.884 219.801C305.694 213.482 297.312 210.001 288.543 210.001V208.969V210.001C270.619 209.872 255.918 224.573 255.789 242.755ZM288.93 230.505C295.507 230.762 301.052 236.565 300.923 243.142C300.665 249.848 295.249 255.135 288.672 255.135C288.543 255.135 288.414 255.135 288.414 255.135C285.191 255.006 282.225 253.716 279.903 251.395C277.582 248.945 276.422 245.85 276.422 242.626C276.679 236.05 282.096 230.505 288.543 230.505C288.672 230.505 288.801 230.505 288.93 230.505Z" fill="#FFFFFF"/>
<path d="M162.296 210.001C144.242 210.001 129.541 224.702 129.541 242.755C129.541 251.653 132.894 259.906 139.084 266.096C145.274 272.286 153.527 275.768 162.296 275.768C180.35 275.768 195.051 261.067 195.18 243.142C195.309 234.373 191.827 226.12 185.508 219.801C179.318 213.482 170.936 210.001 162.296 210.001V208.969V210.001ZM162.554 230.505C169.131 230.762 174.805 236.565 174.676 243.142C174.418 249.719 169.002 255.135 162.296 255.135H162.038C155.332 255.006 149.916 249.461 150.045 242.626C150.174 236.05 155.719 230.505 162.167 230.505C162.296 230.505 162.425 230.505 162.554 230.505Z" fill="#FFFFFF"/>
<path d="M194.664 241.078C194.664 241.723 194.793 242.368 194.793 243.142C194.793 242.368 194.664 241.723 194.664 241.078Z" fill="#FFFFFF"/>
</svg>
