<svg width="500" height="500" viewBox="0 0 500 500" fill="none" xmlns="http://www.w3.org/2000/svg">
<path d="M184.413 274.677C184.413 270.271 180.833 266.553 176.427 266.415C171.883 266.277 167.889 269.995 167.889 274.539C167.889 278.946 171.469 282.664 175.876 282.802C180.42 282.939 184.276 279.221 184.413 274.677Z" fill="#FFFFFF"/>
<path d="M39.4131 390.76C41.4786 386.629 42.9934 382.085 45.7474 378.504C50.4293 372.445 57.3144 370.104 65.0257 370.104C101.379 370.104 137.732 370.104 174.086 370.242C176.977 370.242 178.767 369.416 180.558 367.075C203.829 338.158 247.618 338.295 270.615 367.488C272.267 369.554 273.92 370.242 276.398 370.242C328.725 370.104 381.189 370.242 433.654 370.242C450.867 370.242 460.919 380.294 460.919 397.645C460.919 401.638 460.919 405.632 460.919 409.487C460.919 425.874 450.591 436.064 434.067 436.064C381.74 436.064 329.551 436.064 277.224 436.064C274.195 436.064 271.992 436.752 269.926 439.369C260.7 450.798 248.72 457.683 234.124 460.024C233.297 460.162 232.609 460.437 231.783 460.85C227.376 460.85 222.97 460.85 218.563 460.85C217.737 460.575 217.049 460.162 216.222 460.024C201.764 457.545 189.646 450.798 180.42 439.369C178.354 436.89 176.289 436.064 173.259 436.064C137.044 436.201 100.828 436.064 64.6126 436.201C56.6258 436.201 49.6031 433.585 44.7835 427.113C42.3049 423.671 40.7901 419.402 39 415.546C39.4131 407.146 39.4131 399.022 39.4131 390.76ZM225.724 361.98C203.141 361.98 184.551 380.294 184.413 402.878C184.276 425.461 202.728 444.188 225.173 444.188C247.894 444.326 266.621 425.736 266.621 403.015C266.759 380.57 248.307 361.98 225.724 361.98ZM280.942 419.264C281.769 419.402 282.182 419.539 282.595 419.539C333.82 419.539 384.907 419.539 436.132 419.539C441.503 419.539 444.67 416.097 444.808 410.589C444.945 406.32 444.808 402.051 444.808 397.783C444.808 389.107 442.329 386.491 433.654 386.491C384.494 386.491 335.197 386.491 286.037 386.491C284.523 386.491 283.008 386.491 281.218 386.491C283.972 397.645 283.972 408.248 280.942 419.264ZM170.23 386.904C169.404 386.766 169.128 386.629 168.715 386.629C134.014 386.629 99.4512 386.629 64.6126 386.629C59.2422 386.629 56.075 390.071 55.9373 395.442C55.7996 399.848 55.9373 404.255 55.9373 408.661C55.9373 416.785 58.5537 419.539 66.6781 419.539C99.7266 419.539 132.775 419.539 165.824 419.539C167.201 419.539 168.578 419.539 170.368 419.539C167.338 408.661 167.201 397.92 170.23 386.904Z" fill="#FFFFFF"/>
<path d="M39.4131 84.3729C40.9278 81.0681 41.8917 77.3501 44.095 74.3207C48.9145 67.1602 56.075 63.7176 64.7502 63.7176C84.717 63.7176 104.546 63.7176 124.513 63.7176C127.542 63.7176 129.332 63.0291 131.398 60.5505C154.67 31.7708 198.321 31.7708 221.317 60.8259C223.108 63.0291 224.76 63.8553 227.514 63.8553C296.227 63.7176 365.078 63.8553 433.792 63.8553C451.417 63.8553 461.332 73.7699 461.332 91.5334C461.332 95.3891 461.332 99.2447 461.332 103.1C461.332 119.625 451.142 129.815 434.755 129.815C393.996 129.815 353.236 129.815 312.476 129.815C284.247 129.815 255.881 129.815 227.652 129.815C225.035 129.815 223.245 130.641 221.455 132.844C198.183 161.899 154.532 161.899 131.398 132.706C129.608 130.503 127.818 129.815 125.201 129.815C106.887 129.952 88.435 129.401 70.1206 130.09C55.1111 130.503 44.0949 124.857 39.8262 109.435C39.4131 100.897 39.4131 92.635 39.4131 84.3729ZM231.37 113.153C233.297 113.153 234.812 113.153 236.189 113.153C286.45 113.153 336.849 113.153 387.111 113.153C403.084 113.153 418.92 113.153 434.893 113.153C441.365 113.153 444.532 110.123 444.532 103.513C444.532 99.3824 444.532 95.2514 444.532 91.258C444.532 82.8582 441.916 80.2419 433.378 80.2419C367.557 80.2419 301.735 80.2419 235.914 80.2419C234.537 80.2419 233.022 80.2419 231.232 80.2419C234.674 91.5334 234.674 102.136 231.37 113.153ZM176.289 55.5932C153.706 55.4555 134.978 73.9076 134.978 96.4907C134.841 119.074 153.293 137.801 175.738 137.939C198.459 138.214 217.186 119.625 217.186 96.7661C217.324 74.3207 198.872 55.7309 176.289 55.5932ZM120.933 113.153C117.766 101.999 117.903 91.258 120.933 80.2419C119.28 80.2419 118.041 80.2419 116.802 80.2419C99.038 80.2419 81.5499 80.1042 63.7863 80.3796C59.1045 80.3796 56.075 83.9598 55.9373 88.7794C55.7996 93.7366 55.7996 98.6939 55.9373 103.513C55.9373 109.985 58.9668 113.153 65.5765 113.153C73.5632 113.153 81.6876 113.153 89.812 113.153C100.002 113.153 110.33 113.153 120.933 113.153Z" fill="#FFFFFF"/>
<path d="M39.4128 237.497C39.6883 236.671 40.1014 235.983 40.2391 235.157C43.8193 223.727 52.7699 216.842 64.6123 216.842C89.5364 216.704 114.598 216.842 139.522 216.842C192.124 216.842 244.726 216.842 297.191 216.842C300.22 216.842 302.01 216.154 304.076 213.675C327.348 184.758 371.137 184.895 394.133 214.226C395.648 216.154 397.163 216.842 399.641 216.842C411.346 216.704 423.326 216.704 435.031 216.842C450.316 216.98 460.781 227.445 460.919 242.868C460.919 247.963 461.056 253.058 460.919 258.015C460.643 271.923 450.178 282.526 436.27 282.664C424.014 282.801 411.897 282.801 399.641 282.664C397.163 282.664 395.648 283.49 394.133 285.28C370.861 314.611 327.072 314.748 303.663 285.418C302.01 283.352 300.496 282.526 297.879 282.526C270.752 282.664 243.487 282.664 216.36 282.526C214.983 282.526 213.606 282.664 212.229 282.388C207.822 281.975 204.655 278.257 204.793 273.988C204.931 269.857 207.96 266.553 212.229 266.002C213.606 265.864 214.983 265.864 216.36 265.864C240.595 265.864 264.693 265.864 288.929 265.864C290.444 265.864 291.958 265.864 293.748 265.864C290.719 254.848 290.719 244.107 293.748 232.953C291.958 232.953 290.581 232.953 289.067 232.953C214.845 232.953 140.899 232.953 66.6778 232.953C58.5534 232.953 55.7994 235.57 55.7994 243.694C55.7994 247.825 55.7994 251.956 55.7994 255.95C55.9371 262.697 58.8288 265.726 65.7139 265.726C88.9856 265.726 112.119 265.726 135.391 265.726C136.493 265.726 137.594 265.726 138.696 265.726C143.791 266.002 147.233 269.307 147.233 273.851C147.371 278.533 143.791 281.837 138.834 282.251C137.181 282.388 135.529 282.251 133.876 282.251C112.395 282.251 91.0511 281.837 69.5696 282.388C54.5601 282.801 43.5439 277.156 39.2751 261.733C39.4128 254.022 39.4128 245.76 39.4128 237.497ZM349.105 291.063C371.688 291.063 390.277 272.474 390.277 249.891C390.277 227.307 371.825 208.718 349.242 208.58C326.521 208.442 307.932 227.17 307.932 249.891C308.069 272.611 326.659 291.063 349.105 291.063ZM404.323 266.415C415.477 266.415 425.942 266.553 436.545 266.415C441.227 266.277 444.394 262.972 444.532 258.153C444.67 252.645 444.67 247.137 444.532 241.766C444.394 237.497 441.64 233.779 437.647 233.779C426.631 233.504 415.615 233.642 404.323 233.642C407.628 244.52 407.628 255.399 404.323 266.415Z" fill="#FFFFFF"/>
<path d="M184.413 274.677C184.413 279.221 180.42 282.939 175.876 282.802C171.469 282.664 167.889 278.946 167.889 274.539C167.889 269.995 171.883 266.277 176.427 266.415C180.833 266.553 184.413 270.271 184.413 274.677Z" fill="#FFFFFF"/>
</svg>
