<svg id="ethereum_icon" data-name="ethereum icon" xmlns="http://www.w3.org/2000/svg" width="15.32" height="23.334" viewBox="0 0 15.32 23.334">
  <path id="Path_361" data-name="Path 361" d="M97.858,323.174c-.077-.1-.144-.211-.23-.306q-3.411-3.993-6.827-7.985c-.053-.062-.105-.129-.2-.244.239.086.421.148.6.211q3.217,1.192,6.439,2.384a.65.65,0,0,0,.426,0c2.355-.862,4.7-1.738,7.1-2.628-.062.081-.1.134-.134.177q-3.5,4.1-7,8.2c-.053.062-.091.134-.139.2Z" transform="translate(-90.222 -299.84)"/>
  <path id="Path_362" data-name="Path 362" d="M98.02,19.456c-.565.211-1.1.407-1.642.608-1.939.718-3.878,1.441-5.821,2.154a.591.591,0,0,1-.364,0q-3.626-1.336-7.253-2.681c-.072-.024-.139-.057-.239-.1,2.552-4.38,5.094-8.742,7.655-13.141C92.916,10.7,95.463,15.066,98.02,19.456Z" transform="translate(-82.7 -6.3)"/>
</svg>
