<svg xmlns="http://www.w3.org/2000/svg" width="36.028" height="36.045" viewBox="0 0 36.028 36.045">
  <path id="Path_281" data-name="Path 281" d="M117.806,115.9a2.929,2.929,0,0,1,.428.3c2.082,2.071,4.153,4.153,6.224,6.224a1.8,1.8,0,0,1-2.33,2.757c-.124-.1-.225-.214-.338-.315l-6.167-6.167c-.1-.1-.2-.191-.315-.3a16.01,16.01,0,0,1-14.1,3,15.644,15.644,0,0,1-9.375-6.618,16.161,16.161,0,1,1,25.975,1.114Zm0-10.129a12.582,12.582,0,1,0-12.616,12.56A12.55,12.55,0,0,0,117.806,105.773Z" transform="translate(-89.058 -89.562)" fill="#fc6c03"/>
</svg>
